G04 #@! TF.GenerationSoftware,KiCad,Pcbnew,9.0.7*
G04 #@! TF.CreationDate,2026-04-24T14:05:45+02:00*
G04 #@! TF.ProjectId,modest_mapper,6d6f6465-7374-45f6-9d61-707065722e6b,rev?*
G04 #@! TF.SameCoordinates,Original*
G04 #@! TF.FileFunction,Legend,Top*
G04 #@! TF.FilePolarity,Positive*
%FSLAX46Y46*%
G04 Gerber Fmt 4.6, Leading zero omitted, Abs format (unit mm)*
G04 Created by KiCad (PCBNEW 9.0.7) date 2026-04-24 14:05:45*
%MOMM*%
%LPD*%
G01*
G04 APERTURE LIST*
%ADD10C,0.160000*%
%ADD11C,0.150000*%
%ADD12C,0.120000*%
G04 APERTURE END LIST*
D10*
X110773775Y-90785689D02*
X111345203Y-90785689D01*
X111345203Y-90785689D02*
X111459489Y-90823784D01*
X111459489Y-90823784D02*
X111535680Y-90899975D01*
X111535680Y-90899975D02*
X111573775Y-91014260D01*
X111573775Y-91014260D02*
X111573775Y-91090451D01*
X111573775Y-90023784D02*
X111573775Y-90404736D01*
X111573775Y-90404736D02*
X110773775Y-90404736D01*
X111497584Y-89299974D02*
X111535680Y-89338070D01*
X111535680Y-89338070D02*
X111573775Y-89452355D01*
X111573775Y-89452355D02*
X111573775Y-89528546D01*
X111573775Y-89528546D02*
X111535680Y-89642832D01*
X111535680Y-89642832D02*
X111459489Y-89719022D01*
X111459489Y-89719022D02*
X111383299Y-89757117D01*
X111383299Y-89757117D02*
X111230918Y-89795213D01*
X111230918Y-89795213D02*
X111116632Y-89795213D01*
X111116632Y-89795213D02*
X110964251Y-89757117D01*
X110964251Y-89757117D02*
X110888060Y-89719022D01*
X110888060Y-89719022D02*
X110811870Y-89642832D01*
X110811870Y-89642832D02*
X110773775Y-89528546D01*
X110773775Y-89528546D02*
X110773775Y-89452355D01*
X110773775Y-89452355D02*
X110811870Y-89338070D01*
X110811870Y-89338070D02*
X110849965Y-89299974D01*
X110773775Y-88728546D02*
X111345203Y-88728546D01*
X111345203Y-88728546D02*
X111459489Y-88766641D01*
X111459489Y-88766641D02*
X111535680Y-88842832D01*
X111535680Y-88842832D02*
X111573775Y-88957117D01*
X111573775Y-88957117D02*
X111573775Y-89033308D01*
X111573775Y-87966641D02*
X111573775Y-88347593D01*
X111573775Y-88347593D02*
X110773775Y-88347593D01*
X111497584Y-87242831D02*
X111535680Y-87280927D01*
X111535680Y-87280927D02*
X111573775Y-87395212D01*
X111573775Y-87395212D02*
X111573775Y-87471403D01*
X111573775Y-87471403D02*
X111535680Y-87585689D01*
X111535680Y-87585689D02*
X111459489Y-87661879D01*
X111459489Y-87661879D02*
X111383299Y-87699974D01*
X111383299Y-87699974D02*
X111230918Y-87738070D01*
X111230918Y-87738070D02*
X111116632Y-87738070D01*
X111116632Y-87738070D02*
X110964251Y-87699974D01*
X110964251Y-87699974D02*
X110888060Y-87661879D01*
X110888060Y-87661879D02*
X110811870Y-87585689D01*
X110811870Y-87585689D02*
X110773775Y-87471403D01*
X110773775Y-87471403D02*
X110773775Y-87395212D01*
X110773775Y-87395212D02*
X110811870Y-87280927D01*
X110811870Y-87280927D02*
X110849965Y-87242831D01*
X110773775Y-86671403D02*
X111345203Y-86671403D01*
X111345203Y-86671403D02*
X111459489Y-86709498D01*
X111459489Y-86709498D02*
X111535680Y-86785689D01*
X111535680Y-86785689D02*
X111573775Y-86899974D01*
X111573775Y-86899974D02*
X111573775Y-86976165D01*
X111573775Y-85909498D02*
X111573775Y-86290450D01*
X111573775Y-86290450D02*
X110773775Y-86290450D01*
X111497584Y-85185688D02*
X111535680Y-85223784D01*
X111535680Y-85223784D02*
X111573775Y-85338069D01*
X111573775Y-85338069D02*
X111573775Y-85414260D01*
X111573775Y-85414260D02*
X111535680Y-85528546D01*
X111535680Y-85528546D02*
X111459489Y-85604736D01*
X111459489Y-85604736D02*
X111383299Y-85642831D01*
X111383299Y-85642831D02*
X111230918Y-85680927D01*
X111230918Y-85680927D02*
X111116632Y-85680927D01*
X111116632Y-85680927D02*
X110964251Y-85642831D01*
X110964251Y-85642831D02*
X110888060Y-85604736D01*
X110888060Y-85604736D02*
X110811870Y-85528546D01*
X110811870Y-85528546D02*
X110773775Y-85414260D01*
X110773775Y-85414260D02*
X110773775Y-85338069D01*
X110773775Y-85338069D02*
X110811870Y-85223784D01*
X110811870Y-85223784D02*
X110849965Y-85185688D01*
X110773775Y-84614260D02*
X111345203Y-84614260D01*
X111345203Y-84614260D02*
X111459489Y-84652355D01*
X111459489Y-84652355D02*
X111535680Y-84728546D01*
X111535680Y-84728546D02*
X111573775Y-84842831D01*
X111573775Y-84842831D02*
X111573775Y-84919022D01*
X111573775Y-83852355D02*
X111573775Y-84233307D01*
X111573775Y-84233307D02*
X110773775Y-84233307D01*
X111497584Y-83128545D02*
X111535680Y-83166641D01*
X111535680Y-83166641D02*
X111573775Y-83280926D01*
X111573775Y-83280926D02*
X111573775Y-83357117D01*
X111573775Y-83357117D02*
X111535680Y-83471403D01*
X111535680Y-83471403D02*
X111459489Y-83547593D01*
X111459489Y-83547593D02*
X111383299Y-83585688D01*
X111383299Y-83585688D02*
X111230918Y-83623784D01*
X111230918Y-83623784D02*
X111116632Y-83623784D01*
X111116632Y-83623784D02*
X110964251Y-83585688D01*
X110964251Y-83585688D02*
X110888060Y-83547593D01*
X110888060Y-83547593D02*
X110811870Y-83471403D01*
X110811870Y-83471403D02*
X110773775Y-83357117D01*
X110773775Y-83357117D02*
X110773775Y-83280926D01*
X110773775Y-83280926D02*
X110811870Y-83166641D01*
X110811870Y-83166641D02*
X110849965Y-83128545D01*
D11*
X133343333Y-77679580D02*
X133295714Y-77727200D01*
X133295714Y-77727200D02*
X133152857Y-77774819D01*
X133152857Y-77774819D02*
X133057619Y-77774819D01*
X133057619Y-77774819D02*
X132914762Y-77727200D01*
X132914762Y-77727200D02*
X132819524Y-77631961D01*
X132819524Y-77631961D02*
X132771905Y-77536723D01*
X132771905Y-77536723D02*
X132724286Y-77346247D01*
X132724286Y-77346247D02*
X132724286Y-77203390D01*
X132724286Y-77203390D02*
X132771905Y-77012914D01*
X132771905Y-77012914D02*
X132819524Y-76917676D01*
X132819524Y-76917676D02*
X132914762Y-76822438D01*
X132914762Y-76822438D02*
X133057619Y-76774819D01*
X133057619Y-76774819D02*
X133152857Y-76774819D01*
X133152857Y-76774819D02*
X133295714Y-76822438D01*
X133295714Y-76822438D02*
X133343333Y-76870057D01*
X133724286Y-76870057D02*
X133771905Y-76822438D01*
X133771905Y-76822438D02*
X133867143Y-76774819D01*
X133867143Y-76774819D02*
X134105238Y-76774819D01*
X134105238Y-76774819D02*
X134200476Y-76822438D01*
X134200476Y-76822438D02*
X134248095Y-76870057D01*
X134248095Y-76870057D02*
X134295714Y-76965295D01*
X134295714Y-76965295D02*
X134295714Y-77060533D01*
X134295714Y-77060533D02*
X134248095Y-77203390D01*
X134248095Y-77203390D02*
X133676667Y-77774819D01*
X133676667Y-77774819D02*
X134295714Y-77774819D01*
X156658333Y-78074819D02*
X156325000Y-77598628D01*
X156086905Y-78074819D02*
X156086905Y-77074819D01*
X156086905Y-77074819D02*
X156467857Y-77074819D01*
X156467857Y-77074819D02*
X156563095Y-77122438D01*
X156563095Y-77122438D02*
X156610714Y-77170057D01*
X156610714Y-77170057D02*
X156658333Y-77265295D01*
X156658333Y-77265295D02*
X156658333Y-77408152D01*
X156658333Y-77408152D02*
X156610714Y-77503390D01*
X156610714Y-77503390D02*
X156563095Y-77551009D01*
X156563095Y-77551009D02*
X156467857Y-77598628D01*
X156467857Y-77598628D02*
X156086905Y-77598628D01*
X157610714Y-78074819D02*
X157039286Y-78074819D01*
X157325000Y-78074819D02*
X157325000Y-77074819D01*
X157325000Y-77074819D02*
X157229762Y-77217676D01*
X157229762Y-77217676D02*
X157134524Y-77312914D01*
X157134524Y-77312914D02*
X157039286Y-77360533D01*
X156683333Y-88334819D02*
X156350000Y-87858628D01*
X156111905Y-88334819D02*
X156111905Y-87334819D01*
X156111905Y-87334819D02*
X156492857Y-87334819D01*
X156492857Y-87334819D02*
X156588095Y-87382438D01*
X156588095Y-87382438D02*
X156635714Y-87430057D01*
X156635714Y-87430057D02*
X156683333Y-87525295D01*
X156683333Y-87525295D02*
X156683333Y-87668152D01*
X156683333Y-87668152D02*
X156635714Y-87763390D01*
X156635714Y-87763390D02*
X156588095Y-87811009D01*
X156588095Y-87811009D02*
X156492857Y-87858628D01*
X156492857Y-87858628D02*
X156111905Y-87858628D01*
X157588095Y-87334819D02*
X157111905Y-87334819D01*
X157111905Y-87334819D02*
X157064286Y-87811009D01*
X157064286Y-87811009D02*
X157111905Y-87763390D01*
X157111905Y-87763390D02*
X157207143Y-87715771D01*
X157207143Y-87715771D02*
X157445238Y-87715771D01*
X157445238Y-87715771D02*
X157540476Y-87763390D01*
X157540476Y-87763390D02*
X157588095Y-87811009D01*
X157588095Y-87811009D02*
X157635714Y-87906247D01*
X157635714Y-87906247D02*
X157635714Y-88144342D01*
X157635714Y-88144342D02*
X157588095Y-88239580D01*
X157588095Y-88239580D02*
X157540476Y-88287200D01*
X157540476Y-88287200D02*
X157445238Y-88334819D01*
X157445238Y-88334819D02*
X157207143Y-88334819D01*
X157207143Y-88334819D02*
X157111905Y-88287200D01*
X157111905Y-88287200D02*
X157064286Y-88239580D01*
X147838095Y-90024819D02*
X147838095Y-90834342D01*
X147838095Y-90834342D02*
X147885714Y-90929580D01*
X147885714Y-90929580D02*
X147933333Y-90977200D01*
X147933333Y-90977200D02*
X148028571Y-91024819D01*
X148028571Y-91024819D02*
X148219047Y-91024819D01*
X148219047Y-91024819D02*
X148314285Y-90977200D01*
X148314285Y-90977200D02*
X148361904Y-90929580D01*
X148361904Y-90929580D02*
X148409523Y-90834342D01*
X148409523Y-90834342D02*
X148409523Y-90024819D01*
X149361904Y-90024819D02*
X148885714Y-90024819D01*
X148885714Y-90024819D02*
X148838095Y-90501009D01*
X148838095Y-90501009D02*
X148885714Y-90453390D01*
X148885714Y-90453390D02*
X148980952Y-90405771D01*
X148980952Y-90405771D02*
X149219047Y-90405771D01*
X149219047Y-90405771D02*
X149314285Y-90453390D01*
X149314285Y-90453390D02*
X149361904Y-90501009D01*
X149361904Y-90501009D02*
X149409523Y-90596247D01*
X149409523Y-90596247D02*
X149409523Y-90834342D01*
X149409523Y-90834342D02*
X149361904Y-90929580D01*
X149361904Y-90929580D02*
X149314285Y-90977200D01*
X149314285Y-90977200D02*
X149219047Y-91024819D01*
X149219047Y-91024819D02*
X148980952Y-91024819D01*
X148980952Y-91024819D02*
X148885714Y-90977200D01*
X148885714Y-90977200D02*
X148838095Y-90929580D01*
X132118095Y-84894819D02*
X132118095Y-85704342D01*
X132118095Y-85704342D02*
X132165714Y-85799580D01*
X132165714Y-85799580D02*
X132213333Y-85847200D01*
X132213333Y-85847200D02*
X132308571Y-85894819D01*
X132308571Y-85894819D02*
X132499047Y-85894819D01*
X132499047Y-85894819D02*
X132594285Y-85847200D01*
X132594285Y-85847200D02*
X132641904Y-85799580D01*
X132641904Y-85799580D02*
X132689523Y-85704342D01*
X132689523Y-85704342D02*
X132689523Y-84894819D01*
X133689523Y-85894819D02*
X133118095Y-85894819D01*
X133403809Y-85894819D02*
X133403809Y-84894819D01*
X133403809Y-84894819D02*
X133308571Y-85037676D01*
X133308571Y-85037676D02*
X133213333Y-85132914D01*
X133213333Y-85132914D02*
X133118095Y-85180533D01*
X163335595Y-81349819D02*
X163335595Y-82159342D01*
X163335595Y-82159342D02*
X163383214Y-82254580D01*
X163383214Y-82254580D02*
X163430833Y-82302200D01*
X163430833Y-82302200D02*
X163526071Y-82349819D01*
X163526071Y-82349819D02*
X163716547Y-82349819D01*
X163716547Y-82349819D02*
X163811785Y-82302200D01*
X163811785Y-82302200D02*
X163859404Y-82254580D01*
X163859404Y-82254580D02*
X163907023Y-82159342D01*
X163907023Y-82159342D02*
X163907023Y-81349819D01*
X164811785Y-81683152D02*
X164811785Y-82349819D01*
X164573690Y-81302200D02*
X164335595Y-82016485D01*
X164335595Y-82016485D02*
X164954642Y-82016485D01*
X151408333Y-80909580D02*
X151360714Y-80957200D01*
X151360714Y-80957200D02*
X151217857Y-81004819D01*
X151217857Y-81004819D02*
X151122619Y-81004819D01*
X151122619Y-81004819D02*
X150979762Y-80957200D01*
X150979762Y-80957200D02*
X150884524Y-80861961D01*
X150884524Y-80861961D02*
X150836905Y-80766723D01*
X150836905Y-80766723D02*
X150789286Y-80576247D01*
X150789286Y-80576247D02*
X150789286Y-80433390D01*
X150789286Y-80433390D02*
X150836905Y-80242914D01*
X150836905Y-80242914D02*
X150884524Y-80147676D01*
X150884524Y-80147676D02*
X150979762Y-80052438D01*
X150979762Y-80052438D02*
X151122619Y-80004819D01*
X151122619Y-80004819D02*
X151217857Y-80004819D01*
X151217857Y-80004819D02*
X151360714Y-80052438D01*
X151360714Y-80052438D02*
X151408333Y-80100057D01*
X151741667Y-80004819D02*
X152360714Y-80004819D01*
X152360714Y-80004819D02*
X152027381Y-80385771D01*
X152027381Y-80385771D02*
X152170238Y-80385771D01*
X152170238Y-80385771D02*
X152265476Y-80433390D01*
X152265476Y-80433390D02*
X152313095Y-80481009D01*
X152313095Y-80481009D02*
X152360714Y-80576247D01*
X152360714Y-80576247D02*
X152360714Y-80814342D01*
X152360714Y-80814342D02*
X152313095Y-80909580D01*
X152313095Y-80909580D02*
X152265476Y-80957200D01*
X152265476Y-80957200D02*
X152170238Y-81004819D01*
X152170238Y-81004819D02*
X151884524Y-81004819D01*
X151884524Y-81004819D02*
X151789286Y-80957200D01*
X151789286Y-80957200D02*
X151741667Y-80909580D01*
X156663333Y-85624819D02*
X156330000Y-85148628D01*
X156091905Y-85624819D02*
X156091905Y-84624819D01*
X156091905Y-84624819D02*
X156472857Y-84624819D01*
X156472857Y-84624819D02*
X156568095Y-84672438D01*
X156568095Y-84672438D02*
X156615714Y-84720057D01*
X156615714Y-84720057D02*
X156663333Y-84815295D01*
X156663333Y-84815295D02*
X156663333Y-84958152D01*
X156663333Y-84958152D02*
X156615714Y-85053390D01*
X156615714Y-85053390D02*
X156568095Y-85101009D01*
X156568095Y-85101009D02*
X156472857Y-85148628D01*
X156472857Y-85148628D02*
X156091905Y-85148628D01*
X157520476Y-84958152D02*
X157520476Y-85624819D01*
X157282381Y-84577200D02*
X157044286Y-85291485D01*
X157044286Y-85291485D02*
X157663333Y-85291485D01*
X118943333Y-89869580D02*
X118895714Y-89917200D01*
X118895714Y-89917200D02*
X118752857Y-89964819D01*
X118752857Y-89964819D02*
X118657619Y-89964819D01*
X118657619Y-89964819D02*
X118514762Y-89917200D01*
X118514762Y-89917200D02*
X118419524Y-89821961D01*
X118419524Y-89821961D02*
X118371905Y-89726723D01*
X118371905Y-89726723D02*
X118324286Y-89536247D01*
X118324286Y-89536247D02*
X118324286Y-89393390D01*
X118324286Y-89393390D02*
X118371905Y-89202914D01*
X118371905Y-89202914D02*
X118419524Y-89107676D01*
X118419524Y-89107676D02*
X118514762Y-89012438D01*
X118514762Y-89012438D02*
X118657619Y-88964819D01*
X118657619Y-88964819D02*
X118752857Y-88964819D01*
X118752857Y-88964819D02*
X118895714Y-89012438D01*
X118895714Y-89012438D02*
X118943333Y-89060057D01*
X119895714Y-89964819D02*
X119324286Y-89964819D01*
X119610000Y-89964819D02*
X119610000Y-88964819D01*
X119610000Y-88964819D02*
X119514762Y-89107676D01*
X119514762Y-89107676D02*
X119419524Y-89202914D01*
X119419524Y-89202914D02*
X119324286Y-89250533D01*
X156653333Y-80624819D02*
X156320000Y-80148628D01*
X156081905Y-80624819D02*
X156081905Y-79624819D01*
X156081905Y-79624819D02*
X156462857Y-79624819D01*
X156462857Y-79624819D02*
X156558095Y-79672438D01*
X156558095Y-79672438D02*
X156605714Y-79720057D01*
X156605714Y-79720057D02*
X156653333Y-79815295D01*
X156653333Y-79815295D02*
X156653333Y-79958152D01*
X156653333Y-79958152D02*
X156605714Y-80053390D01*
X156605714Y-80053390D02*
X156558095Y-80101009D01*
X156558095Y-80101009D02*
X156462857Y-80148628D01*
X156462857Y-80148628D02*
X156081905Y-80148628D01*
X157034286Y-79720057D02*
X157081905Y-79672438D01*
X157081905Y-79672438D02*
X157177143Y-79624819D01*
X157177143Y-79624819D02*
X157415238Y-79624819D01*
X157415238Y-79624819D02*
X157510476Y-79672438D01*
X157510476Y-79672438D02*
X157558095Y-79720057D01*
X157558095Y-79720057D02*
X157605714Y-79815295D01*
X157605714Y-79815295D02*
X157605714Y-79910533D01*
X157605714Y-79910533D02*
X157558095Y-80053390D01*
X157558095Y-80053390D02*
X156986667Y-80624819D01*
X156986667Y-80624819D02*
X157605714Y-80624819D01*
X172123333Y-95639580D02*
X172075714Y-95687200D01*
X172075714Y-95687200D02*
X171932857Y-95734819D01*
X171932857Y-95734819D02*
X171837619Y-95734819D01*
X171837619Y-95734819D02*
X171694762Y-95687200D01*
X171694762Y-95687200D02*
X171599524Y-95591961D01*
X171599524Y-95591961D02*
X171551905Y-95496723D01*
X171551905Y-95496723D02*
X171504286Y-95306247D01*
X171504286Y-95306247D02*
X171504286Y-95163390D01*
X171504286Y-95163390D02*
X171551905Y-94972914D01*
X171551905Y-94972914D02*
X171599524Y-94877676D01*
X171599524Y-94877676D02*
X171694762Y-94782438D01*
X171694762Y-94782438D02*
X171837619Y-94734819D01*
X171837619Y-94734819D02*
X171932857Y-94734819D01*
X171932857Y-94734819D02*
X172075714Y-94782438D01*
X172075714Y-94782438D02*
X172123333Y-94830057D01*
X172980476Y-94734819D02*
X172790000Y-94734819D01*
X172790000Y-94734819D02*
X172694762Y-94782438D01*
X172694762Y-94782438D02*
X172647143Y-94830057D01*
X172647143Y-94830057D02*
X172551905Y-94972914D01*
X172551905Y-94972914D02*
X172504286Y-95163390D01*
X172504286Y-95163390D02*
X172504286Y-95544342D01*
X172504286Y-95544342D02*
X172551905Y-95639580D01*
X172551905Y-95639580D02*
X172599524Y-95687200D01*
X172599524Y-95687200D02*
X172694762Y-95734819D01*
X172694762Y-95734819D02*
X172885238Y-95734819D01*
X172885238Y-95734819D02*
X172980476Y-95687200D01*
X172980476Y-95687200D02*
X173028095Y-95639580D01*
X173028095Y-95639580D02*
X173075714Y-95544342D01*
X173075714Y-95544342D02*
X173075714Y-95306247D01*
X173075714Y-95306247D02*
X173028095Y-95211009D01*
X173028095Y-95211009D02*
X172980476Y-95163390D01*
X172980476Y-95163390D02*
X172885238Y-95115771D01*
X172885238Y-95115771D02*
X172694762Y-95115771D01*
X172694762Y-95115771D02*
X172599524Y-95163390D01*
X172599524Y-95163390D02*
X172551905Y-95211009D01*
X172551905Y-95211009D02*
X172504286Y-95306247D01*
X156683333Y-83144819D02*
X156350000Y-82668628D01*
X156111905Y-83144819D02*
X156111905Y-82144819D01*
X156111905Y-82144819D02*
X156492857Y-82144819D01*
X156492857Y-82144819D02*
X156588095Y-82192438D01*
X156588095Y-82192438D02*
X156635714Y-82240057D01*
X156635714Y-82240057D02*
X156683333Y-82335295D01*
X156683333Y-82335295D02*
X156683333Y-82478152D01*
X156683333Y-82478152D02*
X156635714Y-82573390D01*
X156635714Y-82573390D02*
X156588095Y-82621009D01*
X156588095Y-82621009D02*
X156492857Y-82668628D01*
X156492857Y-82668628D02*
X156111905Y-82668628D01*
X157016667Y-82144819D02*
X157635714Y-82144819D01*
X157635714Y-82144819D02*
X157302381Y-82525771D01*
X157302381Y-82525771D02*
X157445238Y-82525771D01*
X157445238Y-82525771D02*
X157540476Y-82573390D01*
X157540476Y-82573390D02*
X157588095Y-82621009D01*
X157588095Y-82621009D02*
X157635714Y-82716247D01*
X157635714Y-82716247D02*
X157635714Y-82954342D01*
X157635714Y-82954342D02*
X157588095Y-83049580D01*
X157588095Y-83049580D02*
X157540476Y-83097200D01*
X157540476Y-83097200D02*
X157445238Y-83144819D01*
X157445238Y-83144819D02*
X157159524Y-83144819D01*
X157159524Y-83144819D02*
X157064286Y-83097200D01*
X157064286Y-83097200D02*
X157016667Y-83049580D01*
X169003333Y-82119580D02*
X168955714Y-82167200D01*
X168955714Y-82167200D02*
X168812857Y-82214819D01*
X168812857Y-82214819D02*
X168717619Y-82214819D01*
X168717619Y-82214819D02*
X168574762Y-82167200D01*
X168574762Y-82167200D02*
X168479524Y-82071961D01*
X168479524Y-82071961D02*
X168431905Y-81976723D01*
X168431905Y-81976723D02*
X168384286Y-81786247D01*
X168384286Y-81786247D02*
X168384286Y-81643390D01*
X168384286Y-81643390D02*
X168431905Y-81452914D01*
X168431905Y-81452914D02*
X168479524Y-81357676D01*
X168479524Y-81357676D02*
X168574762Y-81262438D01*
X168574762Y-81262438D02*
X168717619Y-81214819D01*
X168717619Y-81214819D02*
X168812857Y-81214819D01*
X168812857Y-81214819D02*
X168955714Y-81262438D01*
X168955714Y-81262438D02*
X169003333Y-81310057D01*
X169860476Y-81548152D02*
X169860476Y-82214819D01*
X169622381Y-81167200D02*
X169384286Y-81881485D01*
X169384286Y-81881485D02*
X170003333Y-81881485D01*
X154043333Y-90769580D02*
X153995714Y-90817200D01*
X153995714Y-90817200D02*
X153852857Y-90864819D01*
X153852857Y-90864819D02*
X153757619Y-90864819D01*
X153757619Y-90864819D02*
X153614762Y-90817200D01*
X153614762Y-90817200D02*
X153519524Y-90721961D01*
X153519524Y-90721961D02*
X153471905Y-90626723D01*
X153471905Y-90626723D02*
X153424286Y-90436247D01*
X153424286Y-90436247D02*
X153424286Y-90293390D01*
X153424286Y-90293390D02*
X153471905Y-90102914D01*
X153471905Y-90102914D02*
X153519524Y-90007676D01*
X153519524Y-90007676D02*
X153614762Y-89912438D01*
X153614762Y-89912438D02*
X153757619Y-89864819D01*
X153757619Y-89864819D02*
X153852857Y-89864819D01*
X153852857Y-89864819D02*
X153995714Y-89912438D01*
X153995714Y-89912438D02*
X154043333Y-89960057D01*
X154948095Y-89864819D02*
X154471905Y-89864819D01*
X154471905Y-89864819D02*
X154424286Y-90341009D01*
X154424286Y-90341009D02*
X154471905Y-90293390D01*
X154471905Y-90293390D02*
X154567143Y-90245771D01*
X154567143Y-90245771D02*
X154805238Y-90245771D01*
X154805238Y-90245771D02*
X154900476Y-90293390D01*
X154900476Y-90293390D02*
X154948095Y-90341009D01*
X154948095Y-90341009D02*
X154995714Y-90436247D01*
X154995714Y-90436247D02*
X154995714Y-90674342D01*
X154995714Y-90674342D02*
X154948095Y-90769580D01*
X154948095Y-90769580D02*
X154900476Y-90817200D01*
X154900476Y-90817200D02*
X154805238Y-90864819D01*
X154805238Y-90864819D02*
X154567143Y-90864819D01*
X154567143Y-90864819D02*
X154471905Y-90817200D01*
X154471905Y-90817200D02*
X154424286Y-90769580D01*
X127088095Y-77034819D02*
X127088095Y-77844342D01*
X127088095Y-77844342D02*
X127135714Y-77939580D01*
X127135714Y-77939580D02*
X127183333Y-77987200D01*
X127183333Y-77987200D02*
X127278571Y-78034819D01*
X127278571Y-78034819D02*
X127469047Y-78034819D01*
X127469047Y-78034819D02*
X127564285Y-77987200D01*
X127564285Y-77987200D02*
X127611904Y-77939580D01*
X127611904Y-77939580D02*
X127659523Y-77844342D01*
X127659523Y-77844342D02*
X127659523Y-77034819D01*
X128088095Y-77130057D02*
X128135714Y-77082438D01*
X128135714Y-77082438D02*
X128230952Y-77034819D01*
X128230952Y-77034819D02*
X128469047Y-77034819D01*
X128469047Y-77034819D02*
X128564285Y-77082438D01*
X128564285Y-77082438D02*
X128611904Y-77130057D01*
X128611904Y-77130057D02*
X128659523Y-77225295D01*
X128659523Y-77225295D02*
X128659523Y-77320533D01*
X128659523Y-77320533D02*
X128611904Y-77463390D01*
X128611904Y-77463390D02*
X128040476Y-78034819D01*
X128040476Y-78034819D02*
X128659523Y-78034819D01*
X145320595Y-80179819D02*
X145320595Y-80989342D01*
X145320595Y-80989342D02*
X145368214Y-81084580D01*
X145368214Y-81084580D02*
X145415833Y-81132200D01*
X145415833Y-81132200D02*
X145511071Y-81179819D01*
X145511071Y-81179819D02*
X145701547Y-81179819D01*
X145701547Y-81179819D02*
X145796785Y-81132200D01*
X145796785Y-81132200D02*
X145844404Y-81084580D01*
X145844404Y-81084580D02*
X145892023Y-80989342D01*
X145892023Y-80989342D02*
X145892023Y-80179819D01*
X146272976Y-80179819D02*
X146892023Y-80179819D01*
X146892023Y-80179819D02*
X146558690Y-80560771D01*
X146558690Y-80560771D02*
X146701547Y-80560771D01*
X146701547Y-80560771D02*
X146796785Y-80608390D01*
X146796785Y-80608390D02*
X146844404Y-80656009D01*
X146844404Y-80656009D02*
X146892023Y-80751247D01*
X146892023Y-80751247D02*
X146892023Y-80989342D01*
X146892023Y-80989342D02*
X146844404Y-81084580D01*
X146844404Y-81084580D02*
X146796785Y-81132200D01*
X146796785Y-81132200D02*
X146701547Y-81179819D01*
X146701547Y-81179819D02*
X146415833Y-81179819D01*
X146415833Y-81179819D02*
X146320595Y-81132200D01*
X146320595Y-81132200D02*
X146272976Y-81084580D01*
D12*
X133369420Y-78240000D02*
X133650580Y-78240000D01*
X133369420Y-79260000D02*
X133650580Y-79260000D01*
X156587742Y-78397500D02*
X157062258Y-78397500D01*
X156587742Y-79442500D02*
X157062258Y-79442500D01*
X156617742Y-88657500D02*
X157092258Y-88657500D01*
X156617742Y-89702500D02*
X157092258Y-89702500D01*
X146290000Y-91285000D02*
X150910000Y-91285000D01*
X150910000Y-96755000D02*
X146290000Y-96755000D01*
X144740000Y-91740000D02*
X144410000Y-91980000D01*
X144410000Y-91500000D01*
X144740000Y-91740000D01*
G36*
X144740000Y-91740000D02*
G01*
X144410000Y-91980000D01*
X144410000Y-91500000D01*
X144740000Y-91740000D01*
G37*
X122190000Y-86290000D02*
X134210000Y-86290000D01*
X134210000Y-94610000D02*
X122190000Y-94610000D01*
X120730000Y-86700000D02*
X120400000Y-86940000D01*
X120400000Y-86460000D01*
X120730000Y-86700000D01*
G36*
X120730000Y-86700000D02*
G01*
X120400000Y-86940000D01*
X120400000Y-86460000D01*
X120730000Y-86700000D01*
G37*
X161787500Y-82610000D02*
X166407500Y-82610000D01*
X166407500Y-88080000D02*
X161787500Y-88080000D01*
X160237500Y-83065000D02*
X159907500Y-83305000D01*
X159907500Y-82825000D01*
X160237500Y-83065000D01*
G36*
X160237500Y-83065000D02*
G01*
X159907500Y-83305000D01*
X159907500Y-82825000D01*
X160237500Y-83065000D01*
G37*
X151434420Y-81470000D02*
X151715580Y-81470000D01*
X151434420Y-82490000D02*
X151715580Y-82490000D01*
X156587742Y-85927500D02*
X157062258Y-85927500D01*
X156587742Y-86972500D02*
X157062258Y-86972500D01*
X118690000Y-91604420D02*
X118690000Y-91885580D01*
X119710000Y-91604420D02*
X119710000Y-91885580D01*
X156587742Y-80907500D02*
X157062258Y-80907500D01*
X156587742Y-81952500D02*
X157062258Y-81952500D01*
X172501252Y-96195000D02*
X171978748Y-96195000D01*
X172501252Y-97665000D02*
X171978748Y-97665000D01*
X156587742Y-83417500D02*
X157062258Y-83417500D01*
X156587742Y-84462500D02*
X157062258Y-84462500D01*
X168690000Y-83744420D02*
X168690000Y-84025580D01*
X169710000Y-83744420D02*
X169710000Y-84025580D01*
X154069420Y-91330000D02*
X154350580Y-91330000D01*
X154069420Y-92350000D02*
X154350580Y-92350000D01*
X125532500Y-78290000D02*
X130152500Y-78290000D01*
X130152500Y-85060000D02*
X125532500Y-85060000D01*
X123982500Y-78745000D02*
X123652500Y-78985000D01*
X123652500Y-78505000D01*
X123982500Y-78745000D01*
G36*
X123982500Y-78745000D02*
G01*
X123652500Y-78985000D01*
X123652500Y-78505000D01*
X123982500Y-78745000D01*
G37*
X143772500Y-81540000D02*
X148392500Y-81540000D01*
X148392500Y-88310000D02*
X143772500Y-88310000D01*
X142222500Y-81995000D02*
X141892500Y-82235000D01*
X141892500Y-81755000D01*
X142222500Y-81995000D01*
G36*
X142222500Y-81995000D02*
G01*
X141892500Y-82235000D01*
X141892500Y-81755000D01*
X142222500Y-81995000D01*
G37*
M02*
