G04 #@! TF.GenerationSoftware,KiCad,Pcbnew,9.0.7*
G04 #@! TF.CreationDate,2026-04-24T14:05:45+02:00*
G04 #@! TF.ProjectId,modest_mapper,6d6f6465-7374-45f6-9d61-707065722e6b,rev?*
G04 #@! TF.SameCoordinates,Original*
G04 #@! TF.FileFunction,Copper,L4,Bot*
G04 #@! TF.FilePolarity,Positive*
%FSLAX46Y46*%
G04 Gerber Fmt 4.6, Leading zero omitted, Abs format (unit mm)*
G04 Created by KiCad (PCBNEW 9.0.7) date 2026-04-24 14:05:45*
%MOMM*%
%LPD*%
G01*
G04 APERTURE LIST*
G04 #@! TA.AperFunction,ConnectorPad*
%ADD10R,1.699260X8.001000*%
G04 #@! TD*
G04 #@! TA.AperFunction,ViaPad*
%ADD11C,0.800000*%
G04 #@! TD*
G04 #@! TA.AperFunction,ViaPad*
%ADD12C,0.900000*%
G04 #@! TD*
G04 #@! TA.AperFunction,Conductor*
%ADD13C,1.500000*%
G04 #@! TD*
G04 #@! TA.AperFunction,Conductor*
%ADD14C,0.250000*%
G04 #@! TD*
G04 APERTURE END LIST*
D10*
X173470000Y-106980000D03*
X170930000Y-106980000D03*
X168390000Y-106980000D03*
X165850000Y-106980000D03*
X163310000Y-106980000D03*
X160770000Y-106980000D03*
X158230000Y-106980000D03*
X155690000Y-106980000D03*
X153150000Y-106980000D03*
X150610000Y-106980000D03*
X148070000Y-106980000D03*
X145530000Y-106980000D03*
X142990000Y-106980000D03*
X140450000Y-106980000D03*
X137910000Y-106980000D03*
X135370000Y-106980000D03*
X132830000Y-106980000D03*
X130290000Y-106980000D03*
X127750000Y-106980000D03*
X125210000Y-106980000D03*
X122670000Y-106980000D03*
X120130000Y-106980000D03*
X117590000Y-106980000D03*
X115050000Y-106980000D03*
X112510000Y-106980000D03*
D11*
X117460000Y-78490000D03*
X140110000Y-95380000D03*
X126600000Y-83670000D03*
X117170000Y-96890000D03*
X132860000Y-90700000D03*
X117460000Y-81960000D03*
X156300000Y-99560000D03*
X153690000Y-85490000D03*
X160730000Y-78430000D03*
X165770000Y-78430000D03*
X117170000Y-95140000D03*
X133160000Y-96010000D03*
X154790000Y-93080000D03*
X165420000Y-80270000D03*
X163240000Y-78460000D03*
X137760000Y-77590000D03*
X142790000Y-98120000D03*
X168120000Y-94970000D03*
X164640000Y-98150000D03*
X155530000Y-98020000D03*
X159190000Y-89250000D03*
X135700000Y-98900000D03*
X144110000Y-95480000D03*
X141330000Y-96760000D03*
X159490000Y-99440000D03*
X146030000Y-90750000D03*
X120690000Y-80200000D03*
X146180000Y-100090000D03*
X149320000Y-100290000D03*
X153770000Y-95110000D03*
X163370000Y-91620000D03*
X151990000Y-101220000D03*
X149880000Y-92830000D03*
X159970000Y-92090000D03*
X159680000Y-80250000D03*
X132710000Y-93870000D03*
X134760000Y-95480000D03*
X120690000Y-83910000D03*
X131140000Y-93870000D03*
X159470000Y-101320000D03*
X141140000Y-85850000D03*
X143000000Y-94430000D03*
X153070000Y-78770000D03*
X137010000Y-100210000D03*
X146310000Y-97340000D03*
X170650000Y-87410000D03*
X141630000Y-77610000D03*
X162470000Y-88750000D03*
X149340000Y-101730000D03*
X162050000Y-101270000D03*
X169600000Y-92430000D03*
X146110000Y-77590000D03*
X171000000Y-94080000D03*
X138270000Y-101500000D03*
X147010000Y-90820000D03*
X169450000Y-89270000D03*
X129540000Y-91790000D03*
X169440000Y-101500000D03*
X167100000Y-100450000D03*
X168070000Y-90960000D03*
X141560000Y-74330000D03*
X174120000Y-81700000D03*
X115090000Y-101320000D03*
X174180000Y-92480000D03*
X112480000Y-79060000D03*
X127800000Y-101300000D03*
X112220000Y-96920000D03*
X137710000Y-74340000D03*
X174120000Y-84850000D03*
X112480000Y-75730000D03*
X125300000Y-101290000D03*
X128910000Y-74350000D03*
X174160000Y-94080000D03*
X112220000Y-95060000D03*
X153730000Y-74360000D03*
X146020000Y-74330000D03*
X120250000Y-101320000D03*
X173470000Y-99000000D03*
X153010000Y-93050000D03*
D12*
X123980000Y-85965000D03*
D11*
X140134000Y-90728696D03*
X154848442Y-88294000D03*
D12*
X125470000Y-86270000D03*
D11*
X129360000Y-99130000D03*
X144050000Y-93050000D03*
X135940153Y-84555153D03*
X127075000Y-81409421D03*
X135010000Y-82876653D03*
X145722653Y-101637347D03*
X127357660Y-79781285D03*
X157575000Y-95880000D03*
X148189847Y-91515153D03*
X130447653Y-99157653D03*
X137170000Y-86860000D03*
X162416252Y-97133748D03*
X129210000Y-93685000D03*
X129207653Y-95202347D03*
X164722576Y-84902081D03*
X162160000Y-93995000D03*
X148290881Y-97000095D03*
X141901000Y-101070000D03*
X151214938Y-89647000D03*
X130130000Y-90130000D03*
X162835000Y-83645000D03*
X163927647Y-90235981D03*
X151950000Y-90325000D03*
X142435000Y-90290000D03*
X165640000Y-85300000D03*
X142674619Y-101732439D03*
X149087941Y-97604000D03*
X162880000Y-94760000D03*
X134610000Y-83800000D03*
X126380000Y-80625000D03*
X163310000Y-98780000D03*
X122810000Y-85460000D03*
X139061558Y-91778442D03*
X134585609Y-85715000D03*
X126652052Y-82315577D03*
X140450000Y-101090000D03*
X128166558Y-95213442D03*
X127923319Y-93685000D03*
X134623521Y-101151479D03*
D12*
X123910996Y-87315020D03*
X159338087Y-97621913D03*
D11*
X132830000Y-101160000D03*
X126680000Y-95255000D03*
X126230000Y-92485000D03*
X133363653Y-82151653D03*
X127664220Y-78805000D03*
X149010000Y-79600000D03*
X147247909Y-82420000D03*
X125335571Y-91935000D03*
X146305869Y-82755502D03*
X148279696Y-80324999D03*
X125960000Y-88335000D03*
X147302001Y-84025000D03*
X125147433Y-88917872D03*
X147191886Y-80774999D03*
X124240000Y-91435000D03*
X146260000Y-84691633D03*
X145572630Y-81225999D03*
X141490000Y-81925000D03*
X129631000Y-89109000D03*
X128000000Y-90690000D03*
X146873903Y-85481018D03*
X141584000Y-93140000D03*
X148257537Y-96000652D03*
X139580000Y-85920000D03*
X126690000Y-78430000D03*
X132181571Y-84154999D03*
X162928284Y-86667020D03*
X161336918Y-93427073D03*
X159127547Y-88055000D03*
D13*
X150610000Y-106980000D02*
X150610000Y-100490000D01*
X148070000Y-106980000D02*
X148070000Y-100470000D01*
X130290000Y-106980000D02*
X130290000Y-101370000D01*
X173470000Y-106980000D02*
X173470000Y-99000000D01*
D14*
X153350000Y-93050000D02*
X158230000Y-97930000D01*
X153010000Y-93050000D02*
X153350000Y-93050000D01*
X158230000Y-97930000D02*
X158230000Y-106980000D01*
X123980000Y-85965000D02*
X123980000Y-85970000D01*
X152865380Y-88471000D02*
X158799000Y-94404620D01*
X158799000Y-95986810D02*
X163310000Y-100497810D01*
X133911269Y-87343000D02*
X135375190Y-87343000D01*
X135375190Y-87343000D02*
X136503190Y-88471000D01*
X163310000Y-100497810D02*
X163310000Y-106980000D01*
X123980000Y-85970000D02*
X125161000Y-87151000D01*
X133719269Y-87151000D02*
X133911269Y-87343000D01*
X125253570Y-87151000D02*
X133719269Y-87151000D01*
X125161000Y-87151000D02*
X125253570Y-87151000D01*
X158799000Y-94404620D02*
X158799000Y-95986810D01*
X136503190Y-88471000D02*
X152865380Y-88471000D01*
X140134000Y-90728696D02*
X140724304Y-91319000D01*
X140724304Y-91319000D02*
X145239000Y-91319000D01*
X145239000Y-91319000D02*
X155690000Y-101770000D01*
X155690000Y-101770000D02*
X155690000Y-106980000D01*
X159250000Y-95800000D02*
X165850000Y-102400000D01*
X153052190Y-88020000D02*
X159250000Y-94217810D01*
X125470000Y-86270000D02*
X125464883Y-86275117D01*
X125900000Y-86700000D02*
X133906079Y-86700000D01*
X154574442Y-88020000D02*
X154848442Y-88294000D01*
X136690000Y-88020000D02*
X153052190Y-88020000D01*
X159250000Y-94217810D02*
X159250000Y-95800000D01*
X165850000Y-102400000D02*
X165850000Y-106980000D01*
X135562000Y-86892000D02*
X136690000Y-88020000D01*
X153052190Y-88020000D02*
X154574442Y-88020000D01*
X125470000Y-86270000D02*
X125900000Y-86700000D01*
X133906079Y-86700000D02*
X134098079Y-86892000D01*
X134098079Y-86892000D02*
X135562000Y-86892000D01*
X144050000Y-93050000D02*
X143221000Y-92221000D01*
X139939000Y-92221000D02*
X133730000Y-98430000D01*
X133730000Y-98430000D02*
X130060000Y-98430000D01*
X143221000Y-92221000D02*
X139939000Y-92221000D01*
X130060000Y-98430000D02*
X129360000Y-99130000D01*
X130904579Y-85239000D02*
X127075000Y-81409421D01*
X135940153Y-84555153D02*
X135505306Y-84990000D01*
X135505306Y-84990000D02*
X134283889Y-84990000D01*
X134034889Y-85239000D02*
X130904579Y-85239000D01*
X134283889Y-84990000D02*
X134034889Y-85239000D01*
X145530000Y-101830000D02*
X145530000Y-106980000D01*
X127463190Y-79881000D02*
X127457375Y-79881000D01*
X135006653Y-82880000D02*
X130470000Y-82880000D01*
X135010000Y-82876653D02*
X134896653Y-82990000D01*
X145722653Y-101637347D02*
X145530000Y-101830000D01*
X135010000Y-82876653D02*
X135006653Y-82880000D01*
X130185843Y-82603653D02*
X127463190Y-79881000D01*
X130193653Y-82603653D02*
X130185843Y-82603653D01*
X130470000Y-82880000D02*
X130193653Y-82603653D01*
X127457375Y-79881000D02*
X127357660Y-79781285D01*
X157580000Y-94461240D02*
X154318760Y-91200000D01*
X157575000Y-95880000D02*
X157580000Y-95875000D01*
X148505000Y-91200000D02*
X148189847Y-91515153D01*
X157580000Y-95875000D02*
X157580000Y-94461240D01*
X154318760Y-91200000D02*
X148505000Y-91200000D01*
X130600000Y-99140000D02*
X134330000Y-99140000D01*
X130447653Y-99157653D02*
X130582347Y-99157653D01*
X134330000Y-99140000D02*
X137910000Y-102720000D01*
X137910000Y-102720000D02*
X137910000Y-106980000D01*
X130582347Y-99157653D02*
X130600000Y-99140000D01*
X155251190Y-87569000D02*
X158793000Y-91110810D01*
X158793000Y-91110810D02*
X158793000Y-92577530D01*
X138371190Y-87569000D02*
X155251190Y-87569000D01*
X137170000Y-86860000D02*
X137185000Y-86845000D01*
X162416252Y-96200782D02*
X162416252Y-97133748D01*
X137185000Y-86845000D02*
X137647190Y-86845000D01*
X137647190Y-86845000D02*
X138371190Y-87569000D01*
X158793000Y-92577530D02*
X162416252Y-96200782D01*
X129207653Y-93687347D02*
X129207653Y-95202347D01*
X129210000Y-93685000D02*
X129207653Y-93687347D01*
X147363190Y-98419000D02*
X148290881Y-97491309D01*
X162160000Y-93995000D02*
X162775000Y-93995000D01*
X142975520Y-100484480D02*
X145041000Y-98419000D01*
X142990000Y-103440000D02*
X142990000Y-106980000D01*
X142380000Y-101070000D02*
X142965520Y-100484480D01*
X141901000Y-101070000D02*
X141901000Y-102351000D01*
X165189000Y-91581000D02*
X165189000Y-85899000D01*
X162775000Y-93995000D02*
X165189000Y-91581000D01*
X141901000Y-102351000D02*
X142990000Y-103440000D01*
X145041000Y-98419000D02*
X147363190Y-98419000D01*
X164722576Y-85432576D02*
X164722576Y-84902081D01*
X164722576Y-84902081D02*
X164810000Y-84989505D01*
X165189000Y-85899000D02*
X164722576Y-85432576D01*
X141901000Y-101070000D02*
X142380000Y-101070000D01*
X142965520Y-100484480D02*
X142975520Y-100484480D01*
X148290881Y-97491309D02*
X148290881Y-97000095D01*
X163926599Y-84736599D02*
X162835000Y-83645000D01*
X163927647Y-88444449D02*
X163926599Y-88443401D01*
X163927647Y-90235981D02*
X163927647Y-88444449D01*
X130560000Y-90130000D02*
X131300000Y-89390000D01*
X131300000Y-89390000D02*
X148305590Y-89390000D01*
X148562590Y-89647000D02*
X151214938Y-89647000D01*
X148305590Y-89390000D02*
X148562590Y-89647000D01*
X130130000Y-90130000D02*
X130560000Y-90130000D01*
X163926599Y-88443401D02*
X163926599Y-84736599D01*
X151755000Y-90520000D02*
X148797780Y-90520000D01*
X148118780Y-89841000D02*
X142884000Y-89841000D01*
X142884000Y-89841000D02*
X142435000Y-90290000D01*
X148797780Y-90520000D02*
X148118780Y-89841000D01*
X151950000Y-90325000D02*
X151755000Y-90520000D01*
X142674619Y-101732439D02*
X142650000Y-101707820D01*
X162880000Y-94760000D02*
X165640000Y-92000000D01*
X147550000Y-98870000D02*
X148815000Y-97605000D01*
X142650000Y-101447810D02*
X145227810Y-98870000D01*
X148815000Y-97605000D02*
X149086941Y-97605000D01*
X142650000Y-101707820D02*
X142650000Y-101447810D01*
X149086941Y-97605000D02*
X149087941Y-97604000D01*
X145227810Y-98870000D02*
X147550000Y-98870000D01*
X165640000Y-92000000D02*
X165640000Y-85300000D01*
X130004653Y-83054653D02*
X130380000Y-83430000D01*
X130380000Y-83430000D02*
X134240000Y-83430000D01*
X127450665Y-80506285D02*
X129999033Y-83054653D01*
X126498715Y-80506285D02*
X127450665Y-80506285D01*
X126380000Y-80625000D02*
X126498715Y-80506285D01*
X129999033Y-83054653D02*
X130004653Y-83054653D01*
X134240000Y-83430000D02*
X134610000Y-83800000D01*
X159244000Y-92390720D02*
X159244000Y-90924000D01*
X136719280Y-86119000D02*
X136718280Y-86120000D01*
X134284889Y-86441000D02*
X134053889Y-86210000D01*
X126959000Y-85189000D02*
X123081000Y-85189000D01*
X137720000Y-86120000D02*
X137321720Y-86120000D01*
X163310000Y-96452190D02*
X159673810Y-92816000D01*
X136270000Y-86120000D02*
X135949000Y-86441000D01*
X163310000Y-98780000D02*
X163310000Y-96452190D01*
X159669280Y-92816000D02*
X159244000Y-92390720D01*
X123081000Y-85189000D02*
X122810000Y-85460000D01*
X159244000Y-90924000D02*
X155438000Y-87118000D01*
X138718000Y-87118000D02*
X137720000Y-86120000D01*
X137321720Y-86120000D02*
X137320720Y-86119000D01*
X134053889Y-86210000D02*
X127980000Y-86210000D01*
X127980000Y-86210000D02*
X126959000Y-85189000D01*
X159673810Y-92816000D02*
X159669280Y-92816000D01*
X136718280Y-86120000D02*
X136270000Y-86120000D01*
X155438000Y-87118000D02*
X138718000Y-87118000D01*
X135949000Y-86441000D02*
X134284889Y-86441000D01*
X137320720Y-86119000D02*
X136719280Y-86119000D01*
X153150000Y-99867810D02*
X153150000Y-106980000D01*
X134585609Y-85715000D02*
X134560609Y-85690000D01*
X139070000Y-91770000D02*
X145052190Y-91770000D01*
X139061558Y-91778442D02*
X139070000Y-91770000D01*
X145052190Y-91770000D02*
X153150000Y-99867810D01*
X134560609Y-85690000D02*
X130020000Y-85690000D01*
X130020000Y-85690000D02*
X126652052Y-82322052D01*
X126652052Y-82322052D02*
X126652052Y-82315577D01*
X140450000Y-101090000D02*
X140450000Y-106980000D01*
X127923319Y-93685000D02*
X127923319Y-94970203D01*
X127923319Y-94970203D02*
X128166558Y-95213442D01*
X135370000Y-101897959D02*
X135370000Y-106980000D01*
X134623521Y-101151479D02*
X135370000Y-101897959D01*
X133540459Y-87610000D02*
X124355117Y-87610000D01*
X135188380Y-87794000D02*
X133724459Y-87794000D01*
X158300000Y-96341404D02*
X158300000Y-94543430D01*
X159338087Y-97379491D02*
X158300000Y-96341404D01*
X152678570Y-88922000D02*
X136316380Y-88922000D01*
X136316380Y-88922000D02*
X135188380Y-87794000D01*
X158300000Y-94543430D02*
X152678570Y-88922000D01*
X124355117Y-87610000D02*
X124060137Y-87315020D01*
X124060137Y-87315020D02*
X123910996Y-87315020D01*
X133724459Y-87794000D02*
X133540459Y-87610000D01*
X159338087Y-97621913D02*
X159338087Y-97379491D01*
X126680000Y-95255000D02*
X126680000Y-92935000D01*
X126680000Y-92935000D02*
X126230000Y-92485000D01*
X132830000Y-101160000D02*
X132830000Y-106980000D01*
X133362653Y-82152653D02*
X131011873Y-82152653D01*
X133363653Y-82151653D02*
X133362653Y-82152653D01*
X131011873Y-82152653D02*
X127664220Y-78805000D01*
X149010000Y-79600000D02*
X149010000Y-80620000D01*
X147247909Y-82382091D02*
X147247909Y-82420000D01*
X149010000Y-80620000D02*
X147247909Y-82382091D01*
X146947189Y-81694000D02*
X146521909Y-82119280D01*
X146521909Y-82119280D02*
X146521909Y-82539462D01*
X148279696Y-80712494D02*
X147298190Y-81694000D01*
X125960000Y-88335000D02*
X125960000Y-91310571D01*
X148279696Y-80324999D02*
X148279696Y-80712494D01*
X147298190Y-81694000D02*
X146947189Y-81694000D01*
X146521909Y-82539462D02*
X146305869Y-82755502D01*
X125960000Y-91310571D02*
X125335571Y-91935000D01*
X147302001Y-84025000D02*
X146545000Y-84025000D01*
X146545000Y-84025000D02*
X145579869Y-83059869D01*
X125147433Y-90647567D02*
X124360000Y-91435000D01*
X145579869Y-82387015D02*
X147191886Y-80774999D01*
X124360000Y-91435000D02*
X124240000Y-91435000D01*
X125147433Y-88917872D02*
X125147433Y-90647567D01*
X145579869Y-83059869D02*
X145579869Y-82387015D01*
X145128869Y-83246679D02*
X145128869Y-81669760D01*
X146260000Y-84377810D02*
X145128869Y-83246679D01*
X145128869Y-81669760D02*
X145572630Y-81225999D01*
X146260000Y-84691633D02*
X146260000Y-84377810D01*
X144450000Y-81920000D02*
X141495000Y-81920000D01*
X146022665Y-85481018D02*
X145534000Y-84992353D01*
X128050000Y-90690000D02*
X129631000Y-89109000D01*
X145534000Y-84992353D02*
X145534000Y-84289620D01*
X141495000Y-81920000D02*
X141490000Y-81925000D01*
X128000000Y-90690000D02*
X128050000Y-90690000D01*
X145534000Y-84289620D02*
X144677869Y-83433489D01*
X144677869Y-83433489D02*
X144677869Y-82147869D01*
X146873903Y-85481018D02*
X146022665Y-85481018D01*
X144677869Y-82147869D02*
X144450000Y-81920000D01*
X143113280Y-93140000D02*
X141584000Y-93140000D01*
X148257537Y-95613157D02*
X146424380Y-93780000D01*
X146424380Y-93780000D02*
X144346720Y-93780000D01*
X143749280Y-93776000D02*
X143113280Y-93140000D01*
X148257537Y-96000652D02*
X148257537Y-95613157D01*
X144346720Y-93780000D02*
X144350720Y-93776000D01*
X144350720Y-93776000D02*
X143749280Y-93776000D01*
X127041000Y-78079000D02*
X126690000Y-78430000D01*
X139580000Y-85920000D02*
X135000000Y-81340000D01*
X128540000Y-79042970D02*
X128540000Y-78607030D01*
X130837030Y-81340000D02*
X128540000Y-79042970D01*
X128011970Y-78079000D02*
X127041000Y-78079000D01*
X135000000Y-81340000D02*
X130837030Y-81340000D01*
X128540000Y-78607030D02*
X128011970Y-78079000D01*
X162928264Y-86667000D02*
X139117000Y-86667000D01*
X136250000Y-83800000D02*
X135670000Y-83800000D01*
X134944000Y-84526000D02*
X134006000Y-84526000D01*
X133630000Y-84150000D02*
X132186570Y-84150000D01*
X162928284Y-86667020D02*
X162928264Y-86667000D01*
X134006000Y-84526000D02*
X133630000Y-84150000D01*
X139117000Y-86667000D02*
X136250000Y-83800000D01*
X132186570Y-84150000D02*
X132181571Y-84154999D01*
X135670000Y-83800000D02*
X134944000Y-84526000D01*
X161336918Y-90266918D02*
X161336918Y-93427073D01*
X159127547Y-88055000D02*
X159127547Y-88057547D01*
X159127547Y-88057547D02*
X161336918Y-90266918D01*
G04 #@! TA.AperFunction,Conductor*
G36*
X175482539Y-73270185D02*
G01*
X175528294Y-73322989D01*
X175539500Y-73374500D01*
X175539500Y-102378683D01*
X175519815Y-102445722D01*
X175467011Y-102491477D01*
X175416716Y-102502677D01*
X172755356Y-102528770D01*
X172688126Y-102509744D01*
X172641856Y-102457391D01*
X172630140Y-102404637D01*
X172630169Y-102378683D01*
X172656114Y-79209315D01*
X172675874Y-79142302D01*
X172726308Y-79097741D01*
X172882997Y-79022284D01*
X173111289Y-78878838D01*
X173322085Y-78710734D01*
X173512734Y-78520085D01*
X173680838Y-78309289D01*
X173824284Y-78080997D01*
X173941267Y-77838079D01*
X174030316Y-77583591D01*
X174090312Y-77320732D01*
X174120500Y-77052809D01*
X174120500Y-76783191D01*
X174090312Y-76515268D01*
X174030316Y-76252409D01*
X173941267Y-75997921D01*
X173824284Y-75755003D01*
X173680838Y-75526711D01*
X173512734Y-75315915D01*
X173322085Y-75125266D01*
X173111289Y-74957162D01*
X172882997Y-74813716D01*
X172882994Y-74813714D01*
X172640082Y-74696734D01*
X172385602Y-74607687D01*
X172385594Y-74607684D01*
X172188446Y-74562687D01*
X172122732Y-74547688D01*
X172122728Y-74547687D01*
X172122719Y-74547686D01*
X171854813Y-74517500D01*
X171854809Y-74517500D01*
X171585191Y-74517500D01*
X171585186Y-74517500D01*
X171317280Y-74547686D01*
X171317268Y-74547688D01*
X171054405Y-74607684D01*
X171054397Y-74607687D01*
X170799917Y-74696734D01*
X170557005Y-74813714D01*
X170328712Y-74957161D01*
X170117915Y-75125265D01*
X169927265Y-75315915D01*
X169759159Y-75526714D01*
X169668238Y-75671412D01*
X169615903Y-75717703D01*
X169562822Y-75729438D01*
X114010001Y-75539999D01*
X114010000Y-75540000D01*
X114006343Y-84531604D01*
X113986631Y-84598636D01*
X113933809Y-84644369D01*
X113909936Y-84652445D01*
X113834410Y-84669683D01*
X113834397Y-84669687D01*
X113579917Y-84758734D01*
X113337005Y-84875714D01*
X113108712Y-85019161D01*
X112897915Y-85187265D01*
X112707265Y-85377915D01*
X112539161Y-85588712D01*
X112395714Y-85817005D01*
X112278734Y-86059917D01*
X112189687Y-86314397D01*
X112189684Y-86314405D01*
X112129688Y-86577268D01*
X112129686Y-86577280D01*
X112099500Y-86845186D01*
X112099500Y-87114813D01*
X112129686Y-87382719D01*
X112129687Y-87382728D01*
X112129688Y-87382732D01*
X112140362Y-87429499D01*
X112189684Y-87645594D01*
X112189687Y-87645602D01*
X112278734Y-87900082D01*
X112395714Y-88142994D01*
X112395716Y-88142997D01*
X112539162Y-88371289D01*
X112707266Y-88582085D01*
X112897915Y-88772734D01*
X113108711Y-88940838D01*
X113337003Y-89084284D01*
X113579921Y-89201267D01*
X113771049Y-89268145D01*
X113834397Y-89290312D01*
X113834412Y-89290317D01*
X113863971Y-89297063D01*
X113907943Y-89307099D01*
X113968921Y-89341207D01*
X114001779Y-89402868D01*
X114004351Y-89428040D01*
X113999999Y-100130000D01*
X114084415Y-100130245D01*
X131035277Y-100179636D01*
X131102258Y-100199515D01*
X131147859Y-100252452D01*
X131158910Y-100304718D01*
X131141072Y-102347250D01*
X131120803Y-102414115D01*
X131067601Y-102459407D01*
X131017247Y-102470167D01*
X110624670Y-102498051D01*
X110557603Y-102478458D01*
X110511776Y-102425717D01*
X110500500Y-102374051D01*
X110500500Y-73374500D01*
X110520185Y-73307461D01*
X110572989Y-73261706D01*
X110624500Y-73250500D01*
X175415500Y-73250500D01*
X175482539Y-73270185D01*
G37*
G04 #@! TD.AperFunction*
G04 #@! TA.AperFunction,Conductor*
G36*
X169262299Y-76725715D02*
G01*
X169308175Y-76778414D01*
X169319500Y-76830185D01*
X169319500Y-77052813D01*
X169349686Y-77320719D01*
X169349688Y-77320731D01*
X169409684Y-77583594D01*
X169409687Y-77583602D01*
X169498734Y-77838082D01*
X169615714Y-78080994D01*
X169615716Y-78080997D01*
X169759162Y-78309289D01*
X169881016Y-78462089D01*
X169906520Y-78494071D01*
X169927266Y-78520085D01*
X170117915Y-78710734D01*
X170328711Y-78878838D01*
X170557003Y-79022284D01*
X170799921Y-79139267D01*
X170931565Y-79185331D01*
X171054397Y-79228312D01*
X171054405Y-79228315D01*
X171054408Y-79228315D01*
X171054409Y-79228316D01*
X171317268Y-79288312D01*
X171585187Y-79318499D01*
X171585188Y-79318500D01*
X171746509Y-79318500D01*
X171813548Y-79338185D01*
X171859303Y-79390989D01*
X171870508Y-79442929D01*
X171791375Y-102312376D01*
X171776099Y-102371574D01*
X171740996Y-102435579D01*
X171740000Y-102430000D01*
X171740000Y-102437396D01*
X171724723Y-102465252D01*
X171721568Y-102468394D01*
X171720315Y-102472664D01*
X171697049Y-102492823D01*
X171675227Y-102514566D01*
X171670874Y-102515504D01*
X171667511Y-102518419D01*
X171615626Y-102529624D01*
X166349126Y-102513725D01*
X166282146Y-102493839D01*
X166236551Y-102440897D01*
X166225500Y-102389726D01*
X166225500Y-102350567D01*
X166225500Y-102350565D01*
X166214337Y-102308904D01*
X166211512Y-102298362D01*
X166199911Y-102255064D01*
X166199911Y-102255063D01*
X166150475Y-102169438D01*
X163550919Y-99569882D01*
X163517434Y-99508559D01*
X163522418Y-99438867D01*
X163564290Y-99382934D01*
X163591144Y-99367641D01*
X163618127Y-99356465D01*
X163724669Y-99285276D01*
X163815276Y-99194669D01*
X163886465Y-99088127D01*
X163935501Y-98969744D01*
X163960500Y-98844069D01*
X163960500Y-98715931D01*
X163960500Y-98715928D01*
X163935502Y-98590261D01*
X163935501Y-98590260D01*
X163935501Y-98590256D01*
X163886465Y-98471873D01*
X163886464Y-98471872D01*
X163886461Y-98471866D01*
X163815276Y-98365331D01*
X163815273Y-98365327D01*
X163721819Y-98271873D01*
X163688334Y-98210550D01*
X163685500Y-98184192D01*
X163685500Y-96402755D01*
X163682307Y-96390841D01*
X163682306Y-96390837D01*
X163673057Y-96356319D01*
X163659910Y-96307253D01*
X163659910Y-96307252D01*
X163610475Y-96221628D01*
X163540562Y-96151715D01*
X162987397Y-95598550D01*
X162953912Y-95537227D01*
X162958896Y-95467535D01*
X163000768Y-95411602D01*
X163050886Y-95389252D01*
X163069744Y-95385501D01*
X163188127Y-95336465D01*
X163294669Y-95265276D01*
X163385276Y-95174669D01*
X163456465Y-95068127D01*
X163505501Y-94949744D01*
X163516547Y-94894213D01*
X163530500Y-94824071D01*
X163530500Y-94691898D01*
X163550185Y-94624859D01*
X163566819Y-94604217D01*
X164722912Y-93448124D01*
X165940474Y-92230563D01*
X165941410Y-92228942D01*
X165989910Y-92144938D01*
X166015500Y-92049435D01*
X166015500Y-85895807D01*
X166035185Y-85828768D01*
X166051819Y-85808125D01*
X166054665Y-85805278D01*
X166054669Y-85805276D01*
X166145276Y-85714669D01*
X166216465Y-85608127D01*
X166265501Y-85489744D01*
X166279982Y-85416946D01*
X166290500Y-85364071D01*
X166290500Y-85235928D01*
X166265502Y-85110261D01*
X166265501Y-85110260D01*
X166265501Y-85110256D01*
X166216465Y-84991873D01*
X166216464Y-84991872D01*
X166216461Y-84991866D01*
X166145276Y-84885331D01*
X166145273Y-84885327D01*
X166054672Y-84794726D01*
X166054668Y-84794723D01*
X165948133Y-84723538D01*
X165948124Y-84723533D01*
X165829744Y-84674499D01*
X165829738Y-84674497D01*
X165704071Y-84649500D01*
X165704069Y-84649500D01*
X165575931Y-84649500D01*
X165575929Y-84649500D01*
X165444282Y-84675687D01*
X165443890Y-84673721D01*
X165383215Y-84674250D01*
X165324110Y-84636990D01*
X165302549Y-84602423D01*
X165302152Y-84601465D01*
X165299041Y-84593954D01*
X165299039Y-84593951D01*
X165299037Y-84593947D01*
X165227852Y-84487412D01*
X165227849Y-84487408D01*
X165137248Y-84396807D01*
X165137244Y-84396804D01*
X165030709Y-84325619D01*
X165030700Y-84325614D01*
X164912320Y-84276580D01*
X164912314Y-84276578D01*
X164786647Y-84251581D01*
X164786645Y-84251581D01*
X164658507Y-84251581D01*
X164658505Y-84251581D01*
X164532837Y-84276578D01*
X164532831Y-84276580D01*
X164414451Y-84325614D01*
X164414442Y-84325619D01*
X164307907Y-84396804D01*
X164307903Y-84396807D01*
X164300555Y-84404156D01*
X164239232Y-84437641D01*
X164169540Y-84432657D01*
X164125193Y-84404156D01*
X163521819Y-83800782D01*
X163488334Y-83739459D01*
X163485500Y-83713101D01*
X163485500Y-83580928D01*
X163460502Y-83455261D01*
X163460501Y-83455260D01*
X163460501Y-83455256D01*
X163422206Y-83362804D01*
X163411466Y-83336875D01*
X163411461Y-83336866D01*
X163340276Y-83230331D01*
X163340273Y-83230327D01*
X163249672Y-83139726D01*
X163249668Y-83139723D01*
X163143133Y-83068538D01*
X163143124Y-83068533D01*
X163024744Y-83019499D01*
X163024738Y-83019497D01*
X162899071Y-82994500D01*
X162899069Y-82994500D01*
X162770931Y-82994500D01*
X162770929Y-82994500D01*
X162645261Y-83019497D01*
X162645255Y-83019499D01*
X162526875Y-83068533D01*
X162526866Y-83068538D01*
X162420331Y-83139723D01*
X162420327Y-83139726D01*
X162329726Y-83230327D01*
X162329723Y-83230331D01*
X162258538Y-83336866D01*
X162258533Y-83336875D01*
X162209499Y-83455255D01*
X162209497Y-83455261D01*
X162184500Y-83580928D01*
X162184500Y-83580931D01*
X162184500Y-83709069D01*
X162184500Y-83709071D01*
X162184499Y-83709071D01*
X162209497Y-83834738D01*
X162209499Y-83834744D01*
X162258533Y-83953124D01*
X162258538Y-83953133D01*
X162329723Y-84059668D01*
X162329726Y-84059672D01*
X162420327Y-84150273D01*
X162420331Y-84150276D01*
X162526866Y-84221461D01*
X162526872Y-84221464D01*
X162526873Y-84221465D01*
X162645256Y-84270501D01*
X162645260Y-84270501D01*
X162645261Y-84270502D01*
X162770928Y-84295500D01*
X162903101Y-84295500D01*
X162970140Y-84315185D01*
X162990782Y-84331819D01*
X163514780Y-84855817D01*
X163548265Y-84917140D01*
X163551099Y-84943498D01*
X163551099Y-86070527D01*
X163531414Y-86137566D01*
X163478610Y-86183321D01*
X163409452Y-86193265D01*
X163347998Y-86165200D01*
X163347663Y-86165609D01*
X163346118Y-86164341D01*
X163345896Y-86164240D01*
X163345161Y-86163556D01*
X163342952Y-86161743D01*
X163236417Y-86090558D01*
X163236408Y-86090553D01*
X163118028Y-86041519D01*
X163118022Y-86041517D01*
X162992355Y-86016520D01*
X162992353Y-86016520D01*
X162864215Y-86016520D01*
X162864213Y-86016520D01*
X162738545Y-86041517D01*
X162738539Y-86041519D01*
X162620159Y-86090553D01*
X162620150Y-86090558D01*
X162513615Y-86161743D01*
X162513611Y-86161746D01*
X162420177Y-86255181D01*
X162358854Y-86288666D01*
X162332496Y-86291500D01*
X147239251Y-86291500D01*
X147172212Y-86271815D01*
X147126457Y-86219011D01*
X147116513Y-86149853D01*
X147145538Y-86086297D01*
X147177111Y-86061087D01*
X147176965Y-86060868D01*
X147179546Y-86059143D01*
X147180804Y-86058139D01*
X147182029Y-86057484D01*
X147240794Y-86018218D01*
X147288572Y-85986294D01*
X147379179Y-85895687D01*
X147450368Y-85789145D01*
X147499404Y-85670762D01*
X147511118Y-85611873D01*
X147524403Y-85545089D01*
X147524403Y-85416946D01*
X147499405Y-85291279D01*
X147499404Y-85291278D01*
X147499404Y-85291274D01*
X147450368Y-85172891D01*
X147450367Y-85172890D01*
X147450364Y-85172884D01*
X147379179Y-85066349D01*
X147379176Y-85066345D01*
X147288575Y-84975744D01*
X147288571Y-84975741D01*
X147179111Y-84902602D01*
X147134306Y-84848990D01*
X147125599Y-84779665D01*
X147155753Y-84716637D01*
X147215196Y-84679918D01*
X147248002Y-84675500D01*
X147366072Y-84675500D01*
X147452553Y-84658297D01*
X147491745Y-84650501D01*
X147610128Y-84601465D01*
X147716670Y-84530276D01*
X147807277Y-84439669D01*
X147878466Y-84333127D01*
X147927502Y-84214744D01*
X147940326Y-84150276D01*
X147952501Y-84089071D01*
X147952501Y-83960928D01*
X147927503Y-83835261D01*
X147927502Y-83835260D01*
X147927502Y-83835256D01*
X147878466Y-83716873D01*
X147878465Y-83716872D01*
X147878462Y-83716866D01*
X147807277Y-83610331D01*
X147807274Y-83610327D01*
X147716673Y-83519726D01*
X147716669Y-83519723D01*
X147610134Y-83448538D01*
X147610125Y-83448533D01*
X147491745Y-83399499D01*
X147491739Y-83399497D01*
X147366072Y-83374500D01*
X147366070Y-83374500D01*
X147237932Y-83374500D01*
X147237930Y-83374500D01*
X147112262Y-83399497D01*
X147112256Y-83399499D01*
X146993876Y-83448533D01*
X146993867Y-83448538D01*
X146887332Y-83519723D01*
X146887328Y-83519726D01*
X146816727Y-83590328D01*
X146808781Y-83594666D01*
X146803356Y-83601914D01*
X146778596Y-83611148D01*
X146755404Y-83623813D01*
X146746374Y-83623167D01*
X146737892Y-83626331D01*
X146712071Y-83620714D01*
X146685712Y-83618829D01*
X146676658Y-83613010D01*
X146669619Y-83611479D01*
X146641365Y-83590328D01*
X146581689Y-83530652D01*
X146548204Y-83469329D01*
X146553188Y-83399637D01*
X146595060Y-83343704D01*
X146610924Y-83333609D01*
X146613992Y-83331968D01*
X146613996Y-83331967D01*
X146720538Y-83260778D01*
X146811145Y-83170171D01*
X146873400Y-83076998D01*
X146927010Y-83032196D01*
X146996335Y-83023488D01*
X147023951Y-83031329D01*
X147058165Y-83045501D01*
X147058169Y-83045501D01*
X147058170Y-83045502D01*
X147183837Y-83070500D01*
X147183840Y-83070500D01*
X147311980Y-83070500D01*
X147396524Y-83053682D01*
X147437653Y-83045501D01*
X147556036Y-82996465D01*
X147662578Y-82925276D01*
X147753185Y-82834669D01*
X147824374Y-82728127D01*
X147873410Y-82609744D01*
X147885194Y-82550502D01*
X147898409Y-82484071D01*
X147898409Y-82355930D01*
X147895860Y-82343119D01*
X147902084Y-82273527D01*
X147929793Y-82231242D01*
X149310474Y-80850563D01*
X149319859Y-80834308D01*
X149359910Y-80764938D01*
X149385500Y-80669435D01*
X149385500Y-80195807D01*
X149405185Y-80128768D01*
X149421819Y-80108125D01*
X149424665Y-80105278D01*
X149424669Y-80105276D01*
X149515276Y-80014669D01*
X149586465Y-79908127D01*
X149635501Y-79789744D01*
X149657692Y-79678187D01*
X149660500Y-79664071D01*
X149660500Y-79535928D01*
X149635502Y-79410261D01*
X149635501Y-79410260D01*
X149635501Y-79410256D01*
X149586465Y-79291873D01*
X149586464Y-79291872D01*
X149586461Y-79291866D01*
X149515276Y-79185331D01*
X149515273Y-79185327D01*
X149424672Y-79094726D01*
X149424668Y-79094723D01*
X149318133Y-79023538D01*
X149318124Y-79023533D01*
X149199744Y-78974499D01*
X149199738Y-78974497D01*
X149074071Y-78949500D01*
X149074069Y-78949500D01*
X148945931Y-78949500D01*
X148945929Y-78949500D01*
X148820261Y-78974497D01*
X148820255Y-78974499D01*
X148701875Y-79023533D01*
X148701866Y-79023538D01*
X148595331Y-79094723D01*
X148595327Y-79094726D01*
X148504726Y-79185327D01*
X148504723Y-79185331D01*
X148433538Y-79291866D01*
X148433533Y-79291875D01*
X148384499Y-79410255D01*
X148384497Y-79410261D01*
X148359500Y-79535928D01*
X148359500Y-79550499D01*
X148339815Y-79617538D01*
X148287011Y-79663293D01*
X148235500Y-79674499D01*
X148215625Y-79674499D01*
X148089957Y-79699496D01*
X148089951Y-79699498D01*
X147971571Y-79748532D01*
X147971562Y-79748537D01*
X147865027Y-79819722D01*
X147865023Y-79819725D01*
X147774422Y-79910326D01*
X147774419Y-79910330D01*
X147703234Y-80016865D01*
X147703231Y-80016871D01*
X147656695Y-80129218D01*
X147612853Y-80183621D01*
X147546559Y-80205685D01*
X147494682Y-80196325D01*
X147381634Y-80149499D01*
X147381624Y-80149496D01*
X147255957Y-80124499D01*
X147255955Y-80124499D01*
X147127817Y-80124499D01*
X147127815Y-80124499D01*
X147002147Y-80149496D01*
X147002141Y-80149498D01*
X146883761Y-80198532D01*
X146883752Y-80198537D01*
X146777217Y-80269722D01*
X146777213Y-80269725D01*
X146686612Y-80360326D01*
X146686609Y-80360330D01*
X146615424Y-80466865D01*
X146615419Y-80466874D01*
X146566385Y-80585254D01*
X146566383Y-80585260D01*
X146541386Y-80710927D01*
X146541386Y-80843099D01*
X146532741Y-80872539D01*
X146526218Y-80902526D01*
X146522463Y-80907541D01*
X146521701Y-80910138D01*
X146505071Y-80930775D01*
X146445758Y-80990089D01*
X146388361Y-81047486D01*
X146327038Y-81080970D01*
X146257346Y-81075986D01*
X146201413Y-81034114D01*
X146186119Y-81007256D01*
X146149098Y-80917878D01*
X146149091Y-80917865D01*
X146077906Y-80811330D01*
X146077903Y-80811326D01*
X145987302Y-80720725D01*
X145987298Y-80720722D01*
X145880763Y-80649537D01*
X145880754Y-80649532D01*
X145762374Y-80600498D01*
X145762368Y-80600496D01*
X145636701Y-80575499D01*
X145636699Y-80575499D01*
X145508561Y-80575499D01*
X145508559Y-80575499D01*
X145382891Y-80600496D01*
X145382885Y-80600498D01*
X145264505Y-80649532D01*
X145264496Y-80649537D01*
X145157961Y-80720722D01*
X145157957Y-80720725D01*
X145067356Y-80811326D01*
X145067353Y-80811330D01*
X144996168Y-80917865D01*
X144996163Y-80917874D01*
X144947129Y-81036254D01*
X144947127Y-81036260D01*
X144922130Y-81161927D01*
X144922130Y-81294100D01*
X144902445Y-81361139D01*
X144897619Y-81368113D01*
X144892215Y-81375376D01*
X144828394Y-81439198D01*
X144778959Y-81524822D01*
X144777789Y-81529188D01*
X144767453Y-81543082D01*
X144745066Y-81559945D01*
X144724783Y-81579285D01*
X144717539Y-81580681D01*
X144711645Y-81585121D01*
X144683692Y-81587203D01*
X144656175Y-81592507D01*
X144647923Y-81589869D01*
X144641968Y-81590313D01*
X144631417Y-81584592D01*
X144605965Y-81576456D01*
X144594938Y-81570090D01*
X144547186Y-81557295D01*
X144547184Y-81557294D01*
X144547182Y-81557293D01*
X144499436Y-81544500D01*
X144499435Y-81544500D01*
X142080808Y-81544500D01*
X142013769Y-81524815D01*
X141993127Y-81508181D01*
X141904672Y-81419726D01*
X141904668Y-81419723D01*
X141798133Y-81348538D01*
X141798124Y-81348533D01*
X141679744Y-81299499D01*
X141679738Y-81299497D01*
X141554071Y-81274500D01*
X141554069Y-81274500D01*
X141425931Y-81274500D01*
X141425929Y-81274500D01*
X141300261Y-81299497D01*
X141300255Y-81299499D01*
X141181875Y-81348533D01*
X141181866Y-81348538D01*
X141075331Y-81419723D01*
X141075327Y-81419726D01*
X140984726Y-81510327D01*
X140984723Y-81510331D01*
X140913538Y-81616866D01*
X140913533Y-81616875D01*
X140864499Y-81735255D01*
X140864497Y-81735261D01*
X140839500Y-81860928D01*
X140839500Y-81860931D01*
X140839500Y-81989069D01*
X140839500Y-81989071D01*
X140839499Y-81989071D01*
X140864497Y-82114738D01*
X140864499Y-82114744D01*
X140913533Y-82233124D01*
X140913538Y-82233133D01*
X140984723Y-82339668D01*
X140984726Y-82339672D01*
X141075327Y-82430273D01*
X141075331Y-82430276D01*
X141181866Y-82501461D01*
X141181875Y-82501466D01*
X141191182Y-82505321D01*
X141300256Y-82550501D01*
X141300260Y-82550501D01*
X141300261Y-82550502D01*
X141425928Y-82575500D01*
X141425931Y-82575500D01*
X141554071Y-82575500D01*
X141638615Y-82558682D01*
X141679744Y-82550501D01*
X141798127Y-82501465D01*
X141904669Y-82430276D01*
X141951730Y-82383215D01*
X141999584Y-82335362D01*
X142000705Y-82336483D01*
X142052072Y-82301499D01*
X142090173Y-82295500D01*
X144178369Y-82295500D01*
X144245408Y-82315185D01*
X144291163Y-82367989D01*
X144302369Y-82419500D01*
X144302369Y-83482925D01*
X144313210Y-83523386D01*
X144327957Y-83578422D01*
X144327958Y-83578426D01*
X144327959Y-83578427D01*
X144355616Y-83626331D01*
X144377395Y-83664052D01*
X145122181Y-84408838D01*
X145155666Y-84470161D01*
X145158500Y-84496519D01*
X145158500Y-85041789D01*
X145161701Y-85053737D01*
X145161702Y-85053740D01*
X145164586Y-85064500D01*
X145184090Y-85137291D01*
X145233525Y-85222915D01*
X145233526Y-85222916D01*
X145792102Y-85781493D01*
X145792103Y-85781494D01*
X145792105Y-85781495D01*
X145833296Y-85805276D01*
X145877728Y-85830929D01*
X145973229Y-85856518D01*
X145973230Y-85856518D01*
X146278095Y-85856518D01*
X146345134Y-85876203D01*
X146365776Y-85892837D01*
X146459230Y-85986291D01*
X146459234Y-85986294D01*
X146565776Y-86057484D01*
X146567002Y-86058139D01*
X146567523Y-86058651D01*
X146570841Y-86060868D01*
X146570420Y-86061496D01*
X146616849Y-86107098D01*
X146632313Y-86175235D01*
X146608485Y-86240916D01*
X146552930Y-86283288D01*
X146508555Y-86291500D01*
X140315794Y-86291500D01*
X140248755Y-86271815D01*
X140203000Y-86219011D01*
X140193056Y-86149853D01*
X140201231Y-86120051D01*
X140205501Y-86109744D01*
X140215412Y-86059921D01*
X140230500Y-85984071D01*
X140230500Y-85855928D01*
X140205502Y-85730261D01*
X140205501Y-85730260D01*
X140205501Y-85730256D01*
X140156465Y-85611873D01*
X140156464Y-85611872D01*
X140156461Y-85611866D01*
X140085276Y-85505331D01*
X140085273Y-85505327D01*
X139994672Y-85414726D01*
X139994668Y-85414723D01*
X139888133Y-85343538D01*
X139888124Y-85343533D01*
X139769744Y-85294499D01*
X139769738Y-85294497D01*
X139644071Y-85269500D01*
X139644069Y-85269500D01*
X139515931Y-85269500D01*
X139511899Y-85269500D01*
X139444860Y-85249815D01*
X139424218Y-85233181D01*
X135230564Y-81039527D01*
X135230563Y-81039526D01*
X135230562Y-81039525D01*
X135173479Y-81006568D01*
X135144937Y-80990089D01*
X135088288Y-80974909D01*
X135088288Y-80974910D01*
X135049438Y-80964500D01*
X135049436Y-80964500D01*
X135049435Y-80964500D01*
X131043929Y-80964500D01*
X130976890Y-80944815D01*
X130956248Y-80928181D01*
X128951819Y-78923752D01*
X128918334Y-78862429D01*
X128915500Y-78836071D01*
X128915500Y-78557597D01*
X128915500Y-78557595D01*
X128889910Y-78462092D01*
X128840475Y-78376468D01*
X128770562Y-78306555D01*
X128242533Y-77778526D01*
X128242532Y-77778525D01*
X128156908Y-77729090D01*
X128109156Y-77716295D01*
X128109154Y-77716294D01*
X128109152Y-77716293D01*
X128061406Y-77703500D01*
X128061405Y-77703500D01*
X127090436Y-77703500D01*
X126991564Y-77703500D01*
X126943812Y-77716295D01*
X126943811Y-77716294D01*
X126896063Y-77729089D01*
X126896062Y-77729089D01*
X126855725Y-77752378D01*
X126835155Y-77764254D01*
X126767257Y-77780727D01*
X126760155Y-77779857D01*
X126760132Y-77780097D01*
X126754070Y-77779500D01*
X126754069Y-77779500D01*
X126625931Y-77779500D01*
X126625929Y-77779500D01*
X126500261Y-77804497D01*
X126500255Y-77804499D01*
X126381875Y-77853533D01*
X126381866Y-77853538D01*
X126275331Y-77924723D01*
X126275327Y-77924726D01*
X126184726Y-78015327D01*
X126184723Y-78015331D01*
X126113538Y-78121866D01*
X126113533Y-78121875D01*
X126064499Y-78240255D01*
X126064497Y-78240261D01*
X126039500Y-78365928D01*
X126039500Y-78365931D01*
X126039500Y-78494069D01*
X126039500Y-78494071D01*
X126039499Y-78494071D01*
X126064497Y-78619738D01*
X126064499Y-78619744D01*
X126113533Y-78738124D01*
X126113538Y-78738133D01*
X126184723Y-78844668D01*
X126184726Y-78844672D01*
X126275327Y-78935273D01*
X126275331Y-78935276D01*
X126381866Y-79006461D01*
X126381872Y-79006464D01*
X126381873Y-79006465D01*
X126500256Y-79055501D01*
X126500260Y-79055501D01*
X126500261Y-79055502D01*
X126625928Y-79080500D01*
X126625931Y-79080500D01*
X126754070Y-79080500D01*
X126778183Y-79075703D01*
X126833035Y-79064792D01*
X126902626Y-79071019D01*
X126957804Y-79113881D01*
X126981049Y-79179770D01*
X126964982Y-79247768D01*
X126944909Y-79274090D01*
X126852383Y-79366616D01*
X126781198Y-79473151D01*
X126781193Y-79473160D01*
X126732159Y-79591540D01*
X126732157Y-79591546D01*
X126707160Y-79717213D01*
X126707160Y-79717216D01*
X126707160Y-79845354D01*
X126707160Y-79845356D01*
X126707159Y-79845356D01*
X126708540Y-79852294D01*
X126702313Y-79921886D01*
X126659450Y-79977063D01*
X126593560Y-80000308D01*
X126562732Y-79998103D01*
X126444072Y-79974500D01*
X126444069Y-79974500D01*
X126315931Y-79974500D01*
X126315929Y-79974500D01*
X126190261Y-79999497D01*
X126190255Y-79999499D01*
X126071875Y-80048533D01*
X126071866Y-80048538D01*
X125965331Y-80119723D01*
X125965327Y-80119726D01*
X125874726Y-80210327D01*
X125874723Y-80210331D01*
X125803538Y-80316866D01*
X125803533Y-80316875D01*
X125754499Y-80435255D01*
X125754497Y-80435261D01*
X125729500Y-80560928D01*
X125729500Y-80560931D01*
X125729500Y-80689069D01*
X125729500Y-80689071D01*
X125729499Y-80689071D01*
X125754497Y-80814738D01*
X125754499Y-80814744D01*
X125803533Y-80933124D01*
X125803538Y-80933133D01*
X125874723Y-81039668D01*
X125874726Y-81039672D01*
X125965327Y-81130273D01*
X125965331Y-81130276D01*
X126071866Y-81201461D01*
X126071872Y-81201464D01*
X126071873Y-81201465D01*
X126190256Y-81250501D01*
X126190260Y-81250501D01*
X126190261Y-81250502D01*
X126321906Y-81276689D01*
X126321495Y-81278750D01*
X126341030Y-81286635D01*
X126370173Y-81296005D01*
X126373122Y-81299589D01*
X126377428Y-81301327D01*
X126395120Y-81326322D01*
X126414569Y-81349957D01*
X126415671Y-81355356D01*
X126417795Y-81358356D01*
X126423647Y-81384063D01*
X126424500Y-81391299D01*
X126424500Y-81473490D01*
X126448282Y-81593050D01*
X126448857Y-81597922D01*
X126443794Y-81627723D01*
X126441100Y-81657839D01*
X126438001Y-81661827D01*
X126437156Y-81666805D01*
X126416788Y-81689135D01*
X126398238Y-81713016D01*
X126391662Y-81716683D01*
X126390072Y-81718427D01*
X126387133Y-81719209D01*
X126373166Y-81726999D01*
X126343927Y-81739110D01*
X126343918Y-81739115D01*
X126237383Y-81810300D01*
X126237379Y-81810303D01*
X126146778Y-81900904D01*
X126146775Y-81900908D01*
X126075590Y-82007443D01*
X126075585Y-82007452D01*
X126026551Y-82125832D01*
X126026549Y-82125838D01*
X126001552Y-82251505D01*
X126001552Y-82251508D01*
X126001552Y-82379646D01*
X126001552Y-82379648D01*
X126001551Y-82379648D01*
X126026549Y-82505315D01*
X126026551Y-82505321D01*
X126075585Y-82623701D01*
X126075590Y-82623710D01*
X126146775Y-82730245D01*
X126146778Y-82730249D01*
X126237379Y-82820850D01*
X126237383Y-82820853D01*
X126343918Y-82892038D01*
X126343924Y-82892041D01*
X126343925Y-82892042D01*
X126462308Y-82941078D01*
X126462312Y-82941078D01*
X126462313Y-82941079D01*
X126587980Y-82966077D01*
X126713678Y-82966077D01*
X126780717Y-82985762D01*
X126801359Y-83002396D01*
X129421781Y-85622819D01*
X129455266Y-85684142D01*
X129450282Y-85753834D01*
X129408410Y-85809767D01*
X129342946Y-85834184D01*
X129334100Y-85834500D01*
X128186899Y-85834500D01*
X128119860Y-85814815D01*
X128099218Y-85798181D01*
X127189563Y-84888526D01*
X127189562Y-84888525D01*
X127103938Y-84839090D01*
X127056186Y-84826295D01*
X127056184Y-84826294D01*
X127056182Y-84826293D01*
X127008436Y-84813500D01*
X127008435Y-84813500D01*
X123130436Y-84813500D01*
X123031564Y-84813500D01*
X123000952Y-84821702D01*
X122944671Y-84823543D01*
X122874073Y-84809500D01*
X122874069Y-84809500D01*
X122745931Y-84809500D01*
X122745929Y-84809500D01*
X122620261Y-84834497D01*
X122620255Y-84834499D01*
X122501875Y-84883533D01*
X122501866Y-84883538D01*
X122395331Y-84954723D01*
X122395327Y-84954726D01*
X122304726Y-85045327D01*
X122304723Y-85045331D01*
X122233538Y-85151866D01*
X122233533Y-85151875D01*
X122184499Y-85270255D01*
X122184497Y-85270261D01*
X122159500Y-85395928D01*
X122159500Y-85395931D01*
X122159500Y-85524069D01*
X122159500Y-85524071D01*
X122159499Y-85524071D01*
X122184497Y-85649738D01*
X122184499Y-85649744D01*
X122233533Y-85768124D01*
X122233538Y-85768133D01*
X122304723Y-85874668D01*
X122304726Y-85874672D01*
X122395327Y-85965273D01*
X122395331Y-85965276D01*
X122501866Y-86036461D01*
X122501875Y-86036466D01*
X122514074Y-86041519D01*
X122620256Y-86085501D01*
X122620260Y-86085501D01*
X122620261Y-86085502D01*
X122745928Y-86110500D01*
X122745931Y-86110500D01*
X122874071Y-86110500D01*
X122974321Y-86090558D01*
X122999744Y-86085501D01*
X123105926Y-86041519D01*
X123123755Y-86034134D01*
X123124341Y-86035548D01*
X123185361Y-86022832D01*
X123250610Y-86047819D01*
X123291991Y-86104116D01*
X123297053Y-86122241D01*
X123306418Y-86169323D01*
X123306421Y-86169332D01*
X123359221Y-86296804D01*
X123359228Y-86296817D01*
X123435885Y-86411541D01*
X123435888Y-86411545D01*
X123533454Y-86509111D01*
X123533460Y-86509116D01*
X123540552Y-86513855D01*
X123585357Y-86567468D01*
X123594063Y-86636793D01*
X123563907Y-86699820D01*
X123540552Y-86720057D01*
X123464456Y-86770903D01*
X123464450Y-86770908D01*
X123366884Y-86868474D01*
X123366881Y-86868478D01*
X123290224Y-86983202D01*
X123290217Y-86983215D01*
X123237417Y-87110687D01*
X123237414Y-87110697D01*
X123210496Y-87246024D01*
X123210496Y-87246027D01*
X123210496Y-87384013D01*
X123210496Y-87384015D01*
X123210495Y-87384015D01*
X123237414Y-87519342D01*
X123237417Y-87519352D01*
X123290217Y-87646824D01*
X123290224Y-87646837D01*
X123366881Y-87761561D01*
X123366884Y-87761565D01*
X123464450Y-87859131D01*
X123464454Y-87859134D01*
X123579178Y-87935791D01*
X123579191Y-87935798D01*
X123699184Y-87985500D01*
X123706668Y-87988600D01*
X123706672Y-87988600D01*
X123706673Y-87988601D01*
X123842000Y-88015520D01*
X123842003Y-88015520D01*
X123979991Y-88015520D01*
X124071037Y-87997409D01*
X124115324Y-87988600D01*
X124155750Y-87971854D01*
X124225218Y-87964385D01*
X124235275Y-87966635D01*
X124305681Y-87985500D01*
X124305682Y-87985500D01*
X125215766Y-87985500D01*
X125236936Y-87991716D01*
X125258948Y-87993262D01*
X125269805Y-88001368D01*
X125282805Y-88005185D01*
X125297252Y-88021858D01*
X125314936Y-88035060D01*
X125319688Y-88047750D01*
X125328560Y-88057989D01*
X125331700Y-88079828D01*
X125339438Y-88100492D01*
X125337357Y-88119172D01*
X125338504Y-88127147D01*
X125336967Y-88135700D01*
X125335340Y-88143224D01*
X125334499Y-88145256D01*
X125329859Y-88168579D01*
X125329645Y-88169572D01*
X125313401Y-88199412D01*
X125297675Y-88229475D01*
X125296749Y-88230002D01*
X125296240Y-88230938D01*
X125266451Y-88247255D01*
X125236959Y-88264049D01*
X125235476Y-88264221D01*
X125234961Y-88264504D01*
X125233771Y-88264420D01*
X125208444Y-88267372D01*
X125083362Y-88267372D01*
X124957694Y-88292369D01*
X124957688Y-88292371D01*
X124839308Y-88341405D01*
X124839299Y-88341410D01*
X124732764Y-88412595D01*
X124732760Y-88412598D01*
X124642159Y-88503199D01*
X124642156Y-88503203D01*
X124570971Y-88609738D01*
X124570966Y-88609747D01*
X124521932Y-88728127D01*
X124521930Y-88728133D01*
X124496933Y-88853800D01*
X124496933Y-88853803D01*
X124496933Y-88981941D01*
X124496933Y-88981943D01*
X124496932Y-88981943D01*
X124521930Y-89107610D01*
X124521932Y-89107616D01*
X124570966Y-89225996D01*
X124570971Y-89226005D01*
X124642155Y-89332539D01*
X124642156Y-89332540D01*
X124642157Y-89332541D01*
X124732764Y-89423148D01*
X124732766Y-89423149D01*
X124735614Y-89425997D01*
X124769099Y-89487320D01*
X124771933Y-89513679D01*
X124771933Y-90440667D01*
X124752248Y-90507706D01*
X124735614Y-90528348D01*
X124497229Y-90766733D01*
X124435906Y-90800218D01*
X124385356Y-90800669D01*
X124304071Y-90784500D01*
X124304069Y-90784500D01*
X124175931Y-90784500D01*
X124175929Y-90784500D01*
X124050261Y-90809497D01*
X124050255Y-90809499D01*
X123931875Y-90858533D01*
X123931866Y-90858538D01*
X123825331Y-90929723D01*
X123825327Y-90929726D01*
X123734726Y-91020327D01*
X123734723Y-91020331D01*
X123663538Y-91126866D01*
X123663533Y-91126875D01*
X123614499Y-91245255D01*
X123614497Y-91245261D01*
X123589500Y-91370928D01*
X123589500Y-91370931D01*
X123589500Y-91499069D01*
X123589500Y-91499071D01*
X123589499Y-91499071D01*
X123614497Y-91624738D01*
X123614499Y-91624744D01*
X123663533Y-91743124D01*
X123663538Y-91743133D01*
X123734723Y-91849668D01*
X123734726Y-91849672D01*
X123825327Y-91940273D01*
X123825331Y-91940276D01*
X123931866Y-92011461D01*
X123931872Y-92011464D01*
X123931873Y-92011465D01*
X124050256Y-92060501D01*
X124050260Y-92060501D01*
X124050261Y-92060502D01*
X124175928Y-92085500D01*
X124175931Y-92085500D01*
X124304071Y-92085500D01*
X124388615Y-92068682D01*
X124429744Y-92060501D01*
X124537333Y-92015935D01*
X124606800Y-92008467D01*
X124669279Y-92039742D01*
X124704932Y-92099830D01*
X124706400Y-92106301D01*
X124710067Y-92124734D01*
X124710070Y-92124744D01*
X124759104Y-92243124D01*
X124759109Y-92243133D01*
X124830294Y-92349668D01*
X124830297Y-92349672D01*
X124920898Y-92440273D01*
X124920902Y-92440276D01*
X125027437Y-92511461D01*
X125027446Y-92511466D01*
X125037248Y-92515526D01*
X125145827Y-92560501D01*
X125145831Y-92560501D01*
X125145832Y-92560502D01*
X125271499Y-92585500D01*
X125271502Y-92585500D01*
X125399641Y-92585500D01*
X125458007Y-92573890D01*
X125527598Y-92580117D01*
X125582776Y-92622979D01*
X125603815Y-92671308D01*
X125604497Y-92674738D01*
X125604499Y-92674744D01*
X125653533Y-92793124D01*
X125653538Y-92793133D01*
X125724723Y-92899668D01*
X125724726Y-92899672D01*
X125815327Y-92990273D01*
X125815331Y-92990276D01*
X125921866Y-93061461D01*
X125921872Y-93061464D01*
X125921873Y-93061465D01*
X126040256Y-93110501D01*
X126040260Y-93110501D01*
X126040261Y-93110502D01*
X126165928Y-93135500D01*
X126180500Y-93135500D01*
X126247539Y-93155185D01*
X126293294Y-93207989D01*
X126304500Y-93259500D01*
X126304500Y-94659192D01*
X126284815Y-94726231D01*
X126268181Y-94746873D01*
X126174726Y-94840327D01*
X126174723Y-94840331D01*
X126103538Y-94946866D01*
X126103533Y-94946875D01*
X126054499Y-95065255D01*
X126054497Y-95065261D01*
X126029500Y-95190928D01*
X126029500Y-95190931D01*
X126029500Y-95319069D01*
X126029500Y-95319071D01*
X126029499Y-95319071D01*
X126054497Y-95444738D01*
X126054499Y-95444744D01*
X126103533Y-95563124D01*
X126103538Y-95563133D01*
X126174723Y-95669668D01*
X126174726Y-95669672D01*
X126265327Y-95760273D01*
X126265331Y-95760276D01*
X126371866Y-95831461D01*
X126371872Y-95831464D01*
X126371873Y-95831465D01*
X126490256Y-95880501D01*
X126490260Y-95880501D01*
X126490261Y-95880502D01*
X126615928Y-95905500D01*
X126615931Y-95905500D01*
X126744071Y-95905500D01*
X126828615Y-95888682D01*
X126869744Y-95880501D01*
X126988127Y-95831465D01*
X127094669Y-95760276D01*
X127185276Y-95669669D01*
X127256465Y-95563127D01*
X127305501Y-95444744D01*
X127307757Y-95433398D01*
X127340141Y-95371489D01*
X127400856Y-95336913D01*
X127470626Y-95340651D01*
X127527298Y-95381517D01*
X127543936Y-95410136D01*
X127590091Y-95521566D01*
X127590096Y-95521575D01*
X127661281Y-95628110D01*
X127661284Y-95628114D01*
X127751885Y-95718715D01*
X127751889Y-95718718D01*
X127858424Y-95789903D01*
X127858430Y-95789906D01*
X127858431Y-95789907D01*
X127976814Y-95838943D01*
X127976818Y-95838943D01*
X127976819Y-95838944D01*
X128102486Y-95863942D01*
X128102489Y-95863942D01*
X128230629Y-95863942D01*
X128315173Y-95847124D01*
X128356302Y-95838943D01*
X128474685Y-95789907D01*
X128581227Y-95718718D01*
X128592325Y-95707620D01*
X128604972Y-95694974D01*
X128666295Y-95661489D01*
X128735987Y-95666473D01*
X128780334Y-95694974D01*
X128792980Y-95707620D01*
X128792984Y-95707623D01*
X128899519Y-95778808D01*
X128899525Y-95778811D01*
X128899526Y-95778812D01*
X129017909Y-95827848D01*
X129017913Y-95827848D01*
X129017914Y-95827849D01*
X129143581Y-95852847D01*
X129143584Y-95852847D01*
X129271724Y-95852847D01*
X129356268Y-95836029D01*
X129397397Y-95827848D01*
X129515780Y-95778812D01*
X129622322Y-95707623D01*
X129712929Y-95617016D01*
X129784118Y-95510474D01*
X129833154Y-95392091D01*
X129847679Y-95319071D01*
X129858153Y-95266418D01*
X129858153Y-95138275D01*
X129833155Y-95012608D01*
X129833154Y-95012607D01*
X129833154Y-95012603D01*
X129784118Y-94894220D01*
X129784117Y-94894219D01*
X129784114Y-94894213D01*
X129712929Y-94787678D01*
X129712926Y-94787674D01*
X129619472Y-94694220D01*
X129585987Y-94632897D01*
X129583153Y-94606539D01*
X129583153Y-94282995D01*
X129602838Y-94215956D01*
X129621158Y-94195380D01*
X129620362Y-94194584D01*
X129715273Y-94099672D01*
X129715276Y-94099669D01*
X129786465Y-93993127D01*
X129835501Y-93874744D01*
X129853341Y-93785061D01*
X129860500Y-93749071D01*
X129860500Y-93620928D01*
X129835502Y-93495261D01*
X129835501Y-93495260D01*
X129835501Y-93495256D01*
X129786465Y-93376873D01*
X129786464Y-93376872D01*
X129786461Y-93376866D01*
X129715276Y-93270331D01*
X129715273Y-93270327D01*
X129624672Y-93179726D01*
X129624668Y-93179723D01*
X129518133Y-93108538D01*
X129518124Y-93108533D01*
X129399744Y-93059499D01*
X129399738Y-93059497D01*
X129274071Y-93034500D01*
X129274069Y-93034500D01*
X129145931Y-93034500D01*
X129145929Y-93034500D01*
X129020261Y-93059497D01*
X129020255Y-93059499D01*
X128901875Y-93108533D01*
X128901866Y-93108538D01*
X128795331Y-93179723D01*
X128795327Y-93179726D01*
X128704726Y-93270327D01*
X128704721Y-93270333D01*
X128669760Y-93322656D01*
X128616148Y-93367460D01*
X128546823Y-93376167D01*
X128483796Y-93346012D01*
X128463557Y-93322655D01*
X128428595Y-93270330D01*
X128337991Y-93179726D01*
X128337987Y-93179723D01*
X128231452Y-93108538D01*
X128231443Y-93108533D01*
X128113063Y-93059499D01*
X128113057Y-93059497D01*
X127987390Y-93034500D01*
X127987388Y-93034500D01*
X127859250Y-93034500D01*
X127859248Y-93034500D01*
X127733580Y-93059497D01*
X127733574Y-93059499D01*
X127615194Y-93108533D01*
X127615185Y-93108538D01*
X127508650Y-93179723D01*
X127508646Y-93179726D01*
X127418045Y-93270327D01*
X127418042Y-93270331D01*
X127346857Y-93376866D01*
X127346852Y-93376875D01*
X127310486Y-93464672D01*
X127297819Y-93495255D01*
X127295487Y-93500884D01*
X127294108Y-93500312D01*
X127259858Y-93552569D01*
X127196044Y-93581022D01*
X127126978Y-93570458D01*
X127074587Y-93524231D01*
X127055500Y-93458131D01*
X127055500Y-92885564D01*
X127053474Y-92878005D01*
X127053474Y-92878003D01*
X127053473Y-92878001D01*
X127030731Y-92793127D01*
X127030731Y-92793124D01*
X127030728Y-92793116D01*
X127029910Y-92790062D01*
X126980475Y-92704438D01*
X126916819Y-92640782D01*
X126883334Y-92579459D01*
X126880500Y-92553101D01*
X126880500Y-92420928D01*
X126855502Y-92295261D01*
X126855501Y-92295260D01*
X126855501Y-92295256D01*
X126806465Y-92176873D01*
X126806464Y-92176872D01*
X126806461Y-92176866D01*
X126735276Y-92070331D01*
X126735273Y-92070327D01*
X126644672Y-91979726D01*
X126644668Y-91979723D01*
X126538133Y-91908538D01*
X126538124Y-91908533D01*
X126419744Y-91859499D01*
X126419738Y-91859497D01*
X126294071Y-91834500D01*
X126294069Y-91834500D01*
X126266470Y-91834500D01*
X126199431Y-91814815D01*
X126153676Y-91762011D01*
X126143732Y-91692853D01*
X126172757Y-91629297D01*
X126178789Y-91622819D01*
X126212911Y-91588697D01*
X126260474Y-91541134D01*
X126260475Y-91541133D01*
X126309910Y-91455509D01*
X126326257Y-91394500D01*
X126335500Y-91360007D01*
X126335500Y-91261135D01*
X126335500Y-88930807D01*
X126355185Y-88863768D01*
X126371819Y-88843125D01*
X126374665Y-88840278D01*
X126374669Y-88840276D01*
X126465276Y-88749669D01*
X126536465Y-88643127D01*
X126585501Y-88524744D01*
X126607809Y-88412598D01*
X126610500Y-88399071D01*
X126610500Y-88270928D01*
X126584313Y-88139282D01*
X126585517Y-88139042D01*
X126584948Y-88075634D01*
X126622194Y-88016519D01*
X126685486Y-87986925D01*
X126704234Y-87985500D01*
X133333560Y-87985500D01*
X133400599Y-88005185D01*
X133421241Y-88021819D01*
X133423984Y-88024562D01*
X133493897Y-88094475D01*
X133571505Y-88139282D01*
X133579521Y-88143910D01*
X133627270Y-88156705D01*
X133627271Y-88156705D01*
X133637362Y-88159408D01*
X133675023Y-88169500D01*
X133675024Y-88169500D01*
X134981481Y-88169500D01*
X135048520Y-88189185D01*
X135069162Y-88205819D01*
X135666162Y-88802819D01*
X135699647Y-88864142D01*
X135694663Y-88933834D01*
X135652791Y-88989767D01*
X135587327Y-89014184D01*
X135578481Y-89014500D01*
X131250563Y-89014500D01*
X131224444Y-89021498D01*
X131224444Y-89021499D01*
X131155062Y-89040090D01*
X131155061Y-89040090D01*
X131155059Y-89040091D01*
X131069436Y-89089526D01*
X131069437Y-89089526D01*
X130610374Y-89548587D01*
X130549051Y-89582072D01*
X130479359Y-89577088D01*
X130471922Y-89574036D01*
X130462440Y-89569781D01*
X130438127Y-89553535D01*
X130319744Y-89504499D01*
X130314774Y-89503510D01*
X130303993Y-89498672D01*
X130283200Y-89480892D01*
X130260322Y-89465896D01*
X130257031Y-89458515D01*
X130250890Y-89453264D01*
X130243011Y-89427066D01*
X130231872Y-89402081D01*
X130232966Y-89393669D01*
X130230767Y-89386355D01*
X130236544Y-89366189D01*
X130240202Y-89338091D01*
X130256501Y-89298744D01*
X130277552Y-89192917D01*
X130281500Y-89173071D01*
X130281500Y-89044928D01*
X130256502Y-88919261D01*
X130256501Y-88919260D01*
X130256501Y-88919256D01*
X130207465Y-88800873D01*
X130207464Y-88800872D01*
X130207461Y-88800866D01*
X130136276Y-88694331D01*
X130136273Y-88694327D01*
X130045672Y-88603726D01*
X130045668Y-88603723D01*
X129939133Y-88532538D01*
X129939124Y-88532533D01*
X129820744Y-88483499D01*
X129820738Y-88483497D01*
X129695071Y-88458500D01*
X129695069Y-88458500D01*
X129566931Y-88458500D01*
X129566929Y-88458500D01*
X129441261Y-88483497D01*
X129441255Y-88483499D01*
X129322875Y-88532533D01*
X129322866Y-88532538D01*
X129216331Y-88603723D01*
X129216327Y-88603726D01*
X129125726Y-88694327D01*
X129125723Y-88694331D01*
X129054538Y-88800866D01*
X129054533Y-88800875D01*
X129005499Y-88919255D01*
X129005497Y-88919261D01*
X128980500Y-89044928D01*
X128980500Y-89177099D01*
X128960815Y-89244138D01*
X128944181Y-89264780D01*
X128198842Y-90010119D01*
X128137519Y-90043604D01*
X128086968Y-90044055D01*
X128064070Y-90039500D01*
X128064069Y-90039500D01*
X127935931Y-90039500D01*
X127935929Y-90039500D01*
X127810261Y-90064497D01*
X127810255Y-90064499D01*
X127691875Y-90113533D01*
X127691866Y-90113538D01*
X127585331Y-90184723D01*
X127585327Y-90184726D01*
X127494726Y-90275327D01*
X127494723Y-90275331D01*
X127423538Y-90381866D01*
X127423533Y-90381875D01*
X127374499Y-90500255D01*
X127374497Y-90500261D01*
X127349500Y-90625928D01*
X127349500Y-90625931D01*
X127349500Y-90754069D01*
X127349500Y-90754071D01*
X127349499Y-90754071D01*
X127374497Y-90879738D01*
X127374499Y-90879744D01*
X127423533Y-90998124D01*
X127423538Y-90998133D01*
X127494723Y-91104668D01*
X127494726Y-91104672D01*
X127585327Y-91195273D01*
X127585331Y-91195276D01*
X127691866Y-91266461D01*
X127691875Y-91266466D01*
X127708055Y-91273168D01*
X127810256Y-91315501D01*
X127810260Y-91315501D01*
X127810261Y-91315502D01*
X127935928Y-91340500D01*
X127935931Y-91340500D01*
X128064071Y-91340500D01*
X128148615Y-91323682D01*
X128189744Y-91315501D01*
X128308127Y-91266465D01*
X128414669Y-91195276D01*
X128505276Y-91104669D01*
X128576465Y-90998127D01*
X128625501Y-90879744D01*
X128639474Y-90809499D01*
X128650500Y-90754071D01*
X128650500Y-90671899D01*
X128670185Y-90604860D01*
X128686819Y-90584218D01*
X129267819Y-90003218D01*
X129329142Y-89969733D01*
X129398834Y-89974717D01*
X129454767Y-90016589D01*
X129479184Y-90082053D01*
X129479500Y-90090899D01*
X129479500Y-90194069D01*
X129479500Y-90194071D01*
X129479499Y-90194071D01*
X129504497Y-90319738D01*
X129504499Y-90319744D01*
X129553533Y-90438124D01*
X129553538Y-90438133D01*
X129624723Y-90544668D01*
X129624726Y-90544672D01*
X129715327Y-90635273D01*
X129715331Y-90635276D01*
X129821866Y-90706461D01*
X129821875Y-90706466D01*
X129848692Y-90717574D01*
X129940256Y-90755501D01*
X129940260Y-90755501D01*
X129940261Y-90755502D01*
X130065928Y-90780500D01*
X130065931Y-90780500D01*
X130194071Y-90780500D01*
X130278615Y-90763682D01*
X130319744Y-90755501D01*
X130438127Y-90706465D01*
X130544669Y-90635276D01*
X130635276Y-90544669D01*
X130647547Y-90526302D01*
X130697994Y-90484139D01*
X130697899Y-90483974D01*
X130698850Y-90483424D01*
X130701158Y-90481496D01*
X130703205Y-90480627D01*
X130704928Y-90479912D01*
X130704938Y-90479910D01*
X130790562Y-90430475D01*
X130860475Y-90360562D01*
X131419218Y-89801819D01*
X131480541Y-89768334D01*
X131506899Y-89765500D01*
X141771123Y-89765500D01*
X141838162Y-89785185D01*
X141883917Y-89837989D01*
X141893861Y-89907147D01*
X141874224Y-89958392D01*
X141858539Y-89981864D01*
X141858533Y-89981875D01*
X141809499Y-90100255D01*
X141809497Y-90100261D01*
X141784500Y-90225928D01*
X141784500Y-90225931D01*
X141784500Y-90354069D01*
X141784500Y-90354071D01*
X141784499Y-90354071D01*
X141809497Y-90479738D01*
X141809499Y-90479744D01*
X141858533Y-90598124D01*
X141858538Y-90598133D01*
X141929723Y-90704668D01*
X141929726Y-90704672D01*
X141956873Y-90731819D01*
X141990358Y-90793142D01*
X141985374Y-90862834D01*
X141943502Y-90918767D01*
X141878038Y-90943184D01*
X141869192Y-90943500D01*
X140931203Y-90943500D01*
X140901762Y-90934855D01*
X140871776Y-90928332D01*
X140866760Y-90924577D01*
X140864164Y-90923815D01*
X140843522Y-90907181D01*
X140820819Y-90884478D01*
X140787334Y-90823155D01*
X140784500Y-90796797D01*
X140784500Y-90664624D01*
X140759502Y-90538957D01*
X140759501Y-90538956D01*
X140759501Y-90538952D01*
X140710465Y-90420569D01*
X140710464Y-90420568D01*
X140710461Y-90420562D01*
X140639276Y-90314027D01*
X140639273Y-90314023D01*
X140548672Y-90223422D01*
X140548668Y-90223419D01*
X140442133Y-90152234D01*
X140442124Y-90152229D01*
X140323744Y-90103195D01*
X140323738Y-90103193D01*
X140198071Y-90078196D01*
X140198069Y-90078196D01*
X140069931Y-90078196D01*
X140069929Y-90078196D01*
X139944261Y-90103193D01*
X139944255Y-90103195D01*
X139825875Y-90152229D01*
X139825866Y-90152234D01*
X139719331Y-90223419D01*
X139719327Y-90223422D01*
X139628726Y-90314023D01*
X139628723Y-90314027D01*
X139557538Y-90420562D01*
X139557533Y-90420571D01*
X139508499Y-90538951D01*
X139508497Y-90538957D01*
X139483500Y-90664624D01*
X139483500Y-90664627D01*
X139483500Y-90792765D01*
X139483500Y-90792767D01*
X139483499Y-90792767D01*
X139508497Y-90918434D01*
X139508499Y-90918440D01*
X139557533Y-91036820D01*
X139557540Y-91036832D01*
X139562068Y-91043609D01*
X139582945Y-91110287D01*
X139564459Y-91177666D01*
X139512480Y-91224356D01*
X139443510Y-91235531D01*
X139390074Y-91215600D01*
X139369691Y-91201980D01*
X139369682Y-91201975D01*
X139251302Y-91152941D01*
X139251296Y-91152939D01*
X139125629Y-91127942D01*
X139125627Y-91127942D01*
X138997489Y-91127942D01*
X138997487Y-91127942D01*
X138871819Y-91152939D01*
X138871813Y-91152941D01*
X138753433Y-91201975D01*
X138753424Y-91201980D01*
X138646889Y-91273165D01*
X138646885Y-91273168D01*
X138556284Y-91363769D01*
X138556281Y-91363773D01*
X138485096Y-91470308D01*
X138485091Y-91470317D01*
X138436057Y-91588697D01*
X138436055Y-91588703D01*
X138411058Y-91714370D01*
X138411058Y-91714373D01*
X138411058Y-91842511D01*
X138411058Y-91842513D01*
X138411057Y-91842513D01*
X138436055Y-91968180D01*
X138436057Y-91968186D01*
X138485091Y-92086566D01*
X138485096Y-92086575D01*
X138556281Y-92193110D01*
X138556284Y-92193114D01*
X138646885Y-92283715D01*
X138646889Y-92283718D01*
X138753424Y-92354903D01*
X138753430Y-92354906D01*
X138753431Y-92354907D01*
X138871814Y-92403943D01*
X138938888Y-92417285D01*
X139000799Y-92449669D01*
X139035373Y-92510385D01*
X139031634Y-92580154D01*
X139002378Y-92626583D01*
X133610782Y-98018181D01*
X133549459Y-98051666D01*
X133523101Y-98054500D01*
X130010564Y-98054500D01*
X129962812Y-98067295D01*
X129962811Y-98067294D01*
X129915063Y-98080089D01*
X129915062Y-98080089D01*
X129829435Y-98129527D01*
X129515781Y-98443181D01*
X129454458Y-98476666D01*
X129428100Y-98479500D01*
X129295929Y-98479500D01*
X129170261Y-98504497D01*
X129170255Y-98504499D01*
X129051875Y-98553533D01*
X129051866Y-98553538D01*
X128945331Y-98624723D01*
X128945327Y-98624726D01*
X128854726Y-98715327D01*
X128854723Y-98715331D01*
X128783538Y-98821866D01*
X128783533Y-98821875D01*
X128734499Y-98940255D01*
X128734497Y-98940260D01*
X128726957Y-98978168D01*
X128694571Y-99040079D01*
X128633855Y-99074652D01*
X128605265Y-99077975D01*
X115583925Y-99070075D01*
X115516897Y-99050350D01*
X115471174Y-98997518D01*
X115460000Y-98946075D01*
X115460000Y-89259956D01*
X115479685Y-89192917D01*
X115530199Y-89148236D01*
X115662991Y-89084287D01*
X115662991Y-89084286D01*
X115662997Y-89084284D01*
X115891289Y-88940838D01*
X116102085Y-88772734D01*
X116292734Y-88582085D01*
X116460838Y-88371289D01*
X116604284Y-88142997D01*
X116721267Y-87900079D01*
X116810316Y-87645591D01*
X116870312Y-87382732D01*
X116900500Y-87114809D01*
X116900500Y-86845191D01*
X116870312Y-86577268D01*
X116810316Y-86314409D01*
X116721267Y-86059921D01*
X116607391Y-85823454D01*
X116604285Y-85817005D01*
X116599712Y-85809727D01*
X116460838Y-85588711D01*
X116292734Y-85377915D01*
X116102085Y-85187266D01*
X115891289Y-85019162D01*
X115788737Y-84954724D01*
X115663001Y-84875718D01*
X115530198Y-84811763D01*
X115478338Y-84764940D01*
X115460000Y-84700043D01*
X115460000Y-76953714D01*
X115479685Y-76886675D01*
X115532489Y-76840920D01*
X115583709Y-76829714D01*
X169195217Y-76706186D01*
X169262299Y-76725715D01*
G37*
G04 #@! TD.AperFunction*
G04 #@! TA.AperFunction,Conductor*
G36*
X160146520Y-97870815D02*
G01*
X160170929Y-97889776D01*
X162898181Y-100617028D01*
X162931666Y-100678351D01*
X162934500Y-100704709D01*
X162934500Y-102379042D01*
X162914815Y-102446081D01*
X162862011Y-102491836D01*
X162810126Y-102503041D01*
X158729126Y-102490721D01*
X158662146Y-102470835D01*
X158616551Y-102417893D01*
X158605500Y-102366722D01*
X158605500Y-98179345D01*
X158625185Y-98112306D01*
X158677989Y-98066551D01*
X158747147Y-98056607D01*
X158810703Y-98085632D01*
X158817181Y-98091664D01*
X158891541Y-98166024D01*
X158891545Y-98166027D01*
X159006269Y-98242684D01*
X159006282Y-98242691D01*
X159133754Y-98295491D01*
X159133759Y-98295493D01*
X159133763Y-98295493D01*
X159133764Y-98295494D01*
X159269091Y-98322413D01*
X159269094Y-98322413D01*
X159407082Y-98322413D01*
X159498128Y-98304302D01*
X159542415Y-98295493D01*
X159669898Y-98242688D01*
X159784629Y-98166027D01*
X159882201Y-98068455D01*
X159958862Y-97953724D01*
X159968687Y-97930003D01*
X160012527Y-97875602D01*
X160078821Y-97853536D01*
X160146520Y-97870815D01*
G37*
G04 #@! TD.AperFunction*
G04 #@! TA.AperFunction,Conductor*
G36*
X147978920Y-90236185D02*
G01*
X147999562Y-90252819D01*
X148396259Y-90649516D01*
X148409009Y-90672867D01*
X148424892Y-90694220D01*
X148425497Y-90703061D01*
X148429744Y-90710839D01*
X148427845Y-90737379D01*
X148429663Y-90763927D01*
X148425392Y-90771691D01*
X148424760Y-90780531D01*
X148408814Y-90801831D01*
X148395990Y-90825147D01*
X148385542Y-90832917D01*
X148382888Y-90836464D01*
X148373868Y-90841600D01*
X148367671Y-90846211D01*
X148360960Y-90849848D01*
X148360063Y-90850089D01*
X148353085Y-90854117D01*
X148351612Y-90854916D01*
X148319022Y-90861900D01*
X148286616Y-90869761D01*
X148284983Y-90869195D01*
X148283293Y-90869558D01*
X148268332Y-90867520D01*
X148253916Y-90864653D01*
X148125778Y-90864653D01*
X148125776Y-90864653D01*
X148000108Y-90889650D01*
X148000102Y-90889652D01*
X147881722Y-90938686D01*
X147881713Y-90938691D01*
X147775178Y-91009876D01*
X147775174Y-91009879D01*
X147684573Y-91100480D01*
X147684570Y-91100484D01*
X147613385Y-91207019D01*
X147613380Y-91207028D01*
X147564346Y-91325408D01*
X147564344Y-91325414D01*
X147539347Y-91451081D01*
X147539347Y-91451084D01*
X147539347Y-91579222D01*
X147539347Y-91579224D01*
X147539346Y-91579224D01*
X147564344Y-91704891D01*
X147564346Y-91704897D01*
X147613380Y-91823277D01*
X147613385Y-91823286D01*
X147684570Y-91929821D01*
X147684573Y-91929825D01*
X147775174Y-92020426D01*
X147775178Y-92020429D01*
X147881713Y-92091614D01*
X147881719Y-92091617D01*
X147881720Y-92091618D01*
X148000103Y-92140654D01*
X148000107Y-92140654D01*
X148000108Y-92140655D01*
X148125775Y-92165653D01*
X148125778Y-92165653D01*
X148253918Y-92165653D01*
X148338462Y-92148835D01*
X148379591Y-92140654D01*
X148497974Y-92091618D01*
X148604516Y-92020429D01*
X148695123Y-91929822D01*
X148766312Y-91823280D01*
X148815348Y-91704897D01*
X148821234Y-91675309D01*
X148853619Y-91613398D01*
X148914335Y-91578823D01*
X148942851Y-91575500D01*
X154111861Y-91575500D01*
X154178900Y-91595185D01*
X154199542Y-91611819D01*
X157168181Y-94580458D01*
X157201666Y-94641781D01*
X157204500Y-94668139D01*
X157204500Y-95279827D01*
X157184815Y-95346866D01*
X157164222Y-95370000D01*
X157164638Y-95370416D01*
X157069726Y-95465327D01*
X157069723Y-95465331D01*
X156998538Y-95571866D01*
X156998533Y-95571875D01*
X156949499Y-95690255D01*
X156949497Y-95690261D01*
X156923712Y-95819888D01*
X156891327Y-95881799D01*
X156830610Y-95916373D01*
X156760841Y-95912632D01*
X156714414Y-95883377D01*
X153613491Y-92782454D01*
X153589802Y-92746999D01*
X153589338Y-92747248D01*
X153586813Y-92742524D01*
X153586607Y-92742216D01*
X153586465Y-92741873D01*
X153586461Y-92741867D01*
X153515279Y-92635335D01*
X153515273Y-92635327D01*
X153424672Y-92544726D01*
X153424668Y-92544723D01*
X153318133Y-92473538D01*
X153318124Y-92473533D01*
X153199744Y-92424499D01*
X153199738Y-92424497D01*
X153074071Y-92399500D01*
X153074069Y-92399500D01*
X152945931Y-92399500D01*
X152945929Y-92399500D01*
X152820261Y-92424497D01*
X152820255Y-92424499D01*
X152701875Y-92473533D01*
X152701866Y-92473538D01*
X152595331Y-92544723D01*
X152595327Y-92544726D01*
X152504726Y-92635327D01*
X152504723Y-92635331D01*
X152433538Y-92741866D01*
X152433533Y-92741875D01*
X152384499Y-92860255D01*
X152384497Y-92860261D01*
X152359500Y-92985928D01*
X152359500Y-92985931D01*
X152359500Y-93114069D01*
X152359500Y-93114071D01*
X152359499Y-93114071D01*
X152384497Y-93239738D01*
X152384499Y-93239744D01*
X152433533Y-93358124D01*
X152433538Y-93358133D01*
X152504723Y-93464668D01*
X152504726Y-93464672D01*
X152595327Y-93555273D01*
X152595331Y-93555276D01*
X152701866Y-93626461D01*
X152701872Y-93626464D01*
X152701873Y-93626465D01*
X152820256Y-93675501D01*
X152820260Y-93675501D01*
X152820261Y-93675502D01*
X152945928Y-93700500D01*
X152945931Y-93700500D01*
X153074071Y-93700500D01*
X153158615Y-93683682D01*
X153199744Y-93675501D01*
X153296240Y-93635531D01*
X153365710Y-93628062D01*
X153428189Y-93659337D01*
X153431374Y-93662411D01*
X157818181Y-98049218D01*
X157851666Y-98110541D01*
X157854500Y-98136899D01*
X157854500Y-102363706D01*
X157834815Y-102430745D01*
X157782011Y-102476500D01*
X157730126Y-102487705D01*
X156189126Y-102483053D01*
X156122146Y-102463167D01*
X156076551Y-102410225D01*
X156065500Y-102359054D01*
X156065500Y-101720567D01*
X156065500Y-101720565D01*
X156039910Y-101625062D01*
X155990475Y-101539438D01*
X155920562Y-101469525D01*
X145469563Y-91018526D01*
X145469562Y-91018525D01*
X145383940Y-90969091D01*
X145383939Y-90969090D01*
X145314563Y-90950501D01*
X145288436Y-90943500D01*
X145288435Y-90943500D01*
X145288434Y-90943500D01*
X143000808Y-90943500D01*
X142933769Y-90923815D01*
X142888014Y-90871011D01*
X142878070Y-90801853D01*
X142907095Y-90738297D01*
X142913127Y-90731819D01*
X142940273Y-90704672D01*
X142940276Y-90704669D01*
X143011465Y-90598127D01*
X143060501Y-90479744D01*
X143068780Y-90438124D01*
X143085500Y-90354071D01*
X143085500Y-90340500D01*
X143105185Y-90273461D01*
X143157989Y-90227706D01*
X143209500Y-90216500D01*
X147911881Y-90216500D01*
X147978920Y-90236185D01*
G37*
G04 #@! TD.AperFunction*
G04 #@! TA.AperFunction,Conductor*
G36*
X148956608Y-96245740D02*
G01*
X148962565Y-96244967D01*
X148989070Y-96257512D01*
X149016643Y-96267511D01*
X149024564Y-96274312D01*
X149025718Y-96274858D01*
X149026314Y-96275814D01*
X149030923Y-96279771D01*
X149784179Y-97033027D01*
X152738181Y-99987028D01*
X152771666Y-100048351D01*
X152774500Y-100074709D01*
X152774500Y-102348370D01*
X152754815Y-102415409D01*
X152702011Y-102461164D01*
X152650126Y-102472369D01*
X146077482Y-102452528D01*
X146010502Y-102432642D01*
X145964907Y-102379700D01*
X145955172Y-102310512D01*
X145984389Y-102247044D01*
X146025748Y-102217315D01*
X146025410Y-102216682D01*
X146030169Y-102214138D01*
X146030409Y-102213966D01*
X146030775Y-102213814D01*
X146030774Y-102213814D01*
X146030780Y-102213812D01*
X146137322Y-102142623D01*
X146227929Y-102052016D01*
X146299118Y-101945474D01*
X146348154Y-101827091D01*
X146362334Y-101755807D01*
X146373153Y-101701418D01*
X146373153Y-101573275D01*
X146348155Y-101447608D01*
X146348154Y-101447607D01*
X146348154Y-101447603D01*
X146299118Y-101329220D01*
X146299117Y-101329219D01*
X146299114Y-101329213D01*
X146227929Y-101222678D01*
X146227926Y-101222674D01*
X146137325Y-101132073D01*
X146137321Y-101132070D01*
X146030786Y-101060885D01*
X146030777Y-101060880D01*
X145912397Y-101011846D01*
X145912391Y-101011844D01*
X145786724Y-100986847D01*
X145786722Y-100986847D01*
X145658584Y-100986847D01*
X145658582Y-100986847D01*
X145532914Y-101011844D01*
X145532908Y-101011846D01*
X145414528Y-101060880D01*
X145414519Y-101060885D01*
X145307984Y-101132070D01*
X145307980Y-101132073D01*
X145217379Y-101222674D01*
X145217376Y-101222678D01*
X145146191Y-101329213D01*
X145146186Y-101329222D01*
X145097152Y-101447602D01*
X145097150Y-101447608D01*
X145072153Y-101573275D01*
X145072153Y-101573278D01*
X145072153Y-101701416D01*
X145072153Y-101701418D01*
X145072152Y-101701418D01*
X145097150Y-101827085D01*
X145097152Y-101827091D01*
X145117603Y-101876465D01*
X145145061Y-101942752D01*
X145154500Y-101990205D01*
X145154500Y-102325366D01*
X145134815Y-102392405D01*
X145082011Y-102438160D01*
X145030126Y-102449365D01*
X143182203Y-102443787D01*
X143115223Y-102423901D01*
X143069628Y-102370959D01*
X143059893Y-102301771D01*
X143089110Y-102238303D01*
X143094881Y-102232121D01*
X143179895Y-102147108D01*
X143251084Y-102040566D01*
X143300120Y-101922183D01*
X143316806Y-101838298D01*
X143325119Y-101796510D01*
X143325119Y-101668367D01*
X143300121Y-101542700D01*
X143300120Y-101542699D01*
X143300120Y-101542695D01*
X143269155Y-101467941D01*
X143261687Y-101398474D01*
X143292962Y-101335995D01*
X143296006Y-101332839D01*
X145347029Y-99281819D01*
X145408352Y-99248334D01*
X145434710Y-99245500D01*
X147599435Y-99245500D01*
X147599436Y-99245500D01*
X147647186Y-99232705D01*
X147694938Y-99219910D01*
X147780562Y-99170475D01*
X147850475Y-99100562D01*
X148714693Y-98236342D01*
X148776014Y-98202859D01*
X148845705Y-98207843D01*
X148849777Y-98209444D01*
X148898197Y-98229501D01*
X148898201Y-98229501D01*
X148898202Y-98229502D01*
X149023869Y-98254500D01*
X149023872Y-98254500D01*
X149152012Y-98254500D01*
X149243284Y-98236344D01*
X149277685Y-98229501D01*
X149396068Y-98180465D01*
X149502610Y-98109276D01*
X149593217Y-98018669D01*
X149664406Y-97912127D01*
X149713442Y-97793744D01*
X149730058Y-97710213D01*
X149738441Y-97668071D01*
X149738441Y-97539928D01*
X149713443Y-97414261D01*
X149713442Y-97414260D01*
X149713442Y-97414256D01*
X149664406Y-97295873D01*
X149664405Y-97295872D01*
X149664402Y-97295866D01*
X149600180Y-97199752D01*
X149593217Y-97189331D01*
X149502610Y-97098724D01*
X149492188Y-97091760D01*
X149492187Y-97091759D01*
X149396074Y-97027538D01*
X149396065Y-97027533D01*
X149277685Y-96978499D01*
X149277679Y-96978497D01*
X149152012Y-96953500D01*
X149152010Y-96953500D01*
X149046621Y-96953500D01*
X148979582Y-96933815D01*
X148933827Y-96881011D01*
X148925004Y-96853693D01*
X148916383Y-96810355D01*
X148916382Y-96810353D01*
X148916382Y-96810351D01*
X148867346Y-96691968D01*
X148867345Y-96691967D01*
X148867342Y-96691961D01*
X148796157Y-96585426D01*
X148796154Y-96585422D01*
X148779992Y-96569260D01*
X148764898Y-96541618D01*
X148748229Y-96514884D01*
X148748279Y-96511183D01*
X148746507Y-96507937D01*
X148748754Y-96476516D01*
X148749185Y-96445021D01*
X148751328Y-96440516D01*
X148751491Y-96438245D01*
X148764284Y-96413120D01*
X148764321Y-96413063D01*
X148834002Y-96308779D01*
X148835052Y-96306242D01*
X148839853Y-96298993D01*
X148862276Y-96280093D01*
X148882824Y-96259167D01*
X148888682Y-96257836D01*
X148893277Y-96253964D01*
X148922358Y-96250187D01*
X148950959Y-96243692D01*
X148956608Y-96245740D01*
G37*
G04 #@! TD.AperFunction*
G04 #@! TA.AperFunction,Conductor*
G36*
X140999857Y-92616185D02*
G01*
X141045612Y-92668989D01*
X141055556Y-92738147D01*
X141035920Y-92789391D01*
X141007538Y-92831866D01*
X141007533Y-92831875D01*
X140958499Y-92950255D01*
X140958497Y-92950261D01*
X140933500Y-93075928D01*
X140933500Y-93075931D01*
X140933500Y-93204069D01*
X140933500Y-93204071D01*
X140933499Y-93204071D01*
X140958497Y-93329738D01*
X140958499Y-93329744D01*
X141007533Y-93448124D01*
X141007538Y-93448133D01*
X141078723Y-93554668D01*
X141078726Y-93554672D01*
X141169327Y-93645273D01*
X141169331Y-93645276D01*
X141275866Y-93716461D01*
X141275872Y-93716464D01*
X141275873Y-93716465D01*
X141394256Y-93765501D01*
X141394260Y-93765501D01*
X141394261Y-93765502D01*
X141519928Y-93790500D01*
X141519931Y-93790500D01*
X141648071Y-93790500D01*
X141732615Y-93773682D01*
X141773744Y-93765501D01*
X141892127Y-93716465D01*
X141998669Y-93645276D01*
X142023017Y-93620928D01*
X142092127Y-93551819D01*
X142153450Y-93518334D01*
X142179808Y-93515500D01*
X142906381Y-93515500D01*
X142973420Y-93535185D01*
X142994061Y-93551818D01*
X143518717Y-94076475D01*
X143534762Y-94085738D01*
X143534764Y-94085740D01*
X143534765Y-94085740D01*
X143604342Y-94125910D01*
X143604346Y-94125911D01*
X143652091Y-94138705D01*
X143652092Y-94138705D01*
X143662183Y-94141408D01*
X143699844Y-94151500D01*
X143699845Y-94151500D01*
X144266032Y-94151500D01*
X144289213Y-94154551D01*
X144289228Y-94154439D01*
X144297282Y-94155499D01*
X144297284Y-94155500D01*
X144297285Y-94155500D01*
X146217481Y-94155500D01*
X146284520Y-94175185D01*
X146305162Y-94191819D01*
X147659512Y-95546169D01*
X147692997Y-95607492D01*
X147688013Y-95677184D01*
X147681198Y-95692287D01*
X147681075Y-95692516D01*
X147632036Y-95810907D01*
X147632034Y-95810913D01*
X147607037Y-95936580D01*
X147607037Y-95936583D01*
X147607037Y-96064721D01*
X147607037Y-96064723D01*
X147607036Y-96064723D01*
X147632034Y-96190390D01*
X147632036Y-96190396D01*
X147681070Y-96308776D01*
X147681075Y-96308785D01*
X147752260Y-96415320D01*
X147752262Y-96415323D01*
X147768423Y-96431483D01*
X147801910Y-96492805D01*
X147796927Y-96562497D01*
X147783846Y-96588056D01*
X147714422Y-96691956D01*
X147714414Y-96691970D01*
X147665380Y-96810350D01*
X147665378Y-96810356D01*
X147640381Y-96936023D01*
X147640381Y-96936026D01*
X147640381Y-97064164D01*
X147640381Y-97064166D01*
X147640380Y-97064166D01*
X147665378Y-97189833D01*
X147665380Y-97189839D01*
X147714414Y-97308219D01*
X147714418Y-97308226D01*
X147749409Y-97360594D01*
X147770286Y-97427271D01*
X147751801Y-97494651D01*
X147733987Y-97517165D01*
X147243972Y-98007181D01*
X147182649Y-98040666D01*
X147156291Y-98043500D01*
X144991564Y-98043500D01*
X144943812Y-98056295D01*
X144943811Y-98056294D01*
X144896066Y-98069088D01*
X144896059Y-98069091D01*
X144877011Y-98080089D01*
X144853250Y-98093807D01*
X144842546Y-98099986D01*
X144810440Y-98118522D01*
X144810435Y-98118526D01*
X142770160Y-100158801D01*
X142754666Y-100171942D01*
X142749731Y-100175475D01*
X142734958Y-100184005D01*
X142734957Y-100184006D01*
X142727750Y-100191212D01*
X142727747Y-100191215D01*
X142410748Y-100508214D01*
X142349425Y-100541699D01*
X142279733Y-100536715D01*
X142254176Y-100523635D01*
X142209133Y-100493538D01*
X142209124Y-100493533D01*
X142090744Y-100444499D01*
X142090738Y-100444497D01*
X141965071Y-100419500D01*
X141965069Y-100419500D01*
X141836931Y-100419500D01*
X141836929Y-100419500D01*
X141711261Y-100444497D01*
X141711255Y-100444499D01*
X141592875Y-100493533D01*
X141592866Y-100493538D01*
X141486331Y-100564723D01*
X141486327Y-100564726D01*
X141395726Y-100655327D01*
X141395723Y-100655331D01*
X141324538Y-100761866D01*
X141324535Y-100761872D01*
X141285918Y-100855101D01*
X141242076Y-100909504D01*
X141175782Y-100931568D01*
X141108083Y-100914288D01*
X141060473Y-100863151D01*
X141056796Y-100855099D01*
X141051930Y-100843352D01*
X141047937Y-100833711D01*
X141026468Y-100781878D01*
X141026461Y-100781866D01*
X140955276Y-100675331D01*
X140955273Y-100675327D01*
X140864672Y-100584726D01*
X140864668Y-100584723D01*
X140758133Y-100513538D01*
X140758124Y-100513533D01*
X140639744Y-100464499D01*
X140639738Y-100464497D01*
X140514071Y-100439500D01*
X140514069Y-100439500D01*
X140385931Y-100439500D01*
X140385929Y-100439500D01*
X140260261Y-100464497D01*
X140260255Y-100464499D01*
X140141875Y-100513533D01*
X140141866Y-100513538D01*
X140035331Y-100584723D01*
X140035327Y-100584726D01*
X139944726Y-100675327D01*
X139944723Y-100675331D01*
X139873538Y-100781866D01*
X139873533Y-100781875D01*
X139824499Y-100900255D01*
X139824497Y-100900261D01*
X139799500Y-101025928D01*
X139799500Y-101025931D01*
X139799500Y-101154069D01*
X139799500Y-101154071D01*
X139799499Y-101154071D01*
X139824497Y-101279738D01*
X139824499Y-101279744D01*
X139873533Y-101398124D01*
X139873538Y-101398133D01*
X139944722Y-101504667D01*
X139944723Y-101504668D01*
X139944724Y-101504669D01*
X140035331Y-101595276D01*
X140035333Y-101595277D01*
X140038181Y-101598125D01*
X140071666Y-101659448D01*
X140074500Y-101685807D01*
X140074500Y-102310031D01*
X140054815Y-102377070D01*
X140002011Y-102422825D01*
X139950126Y-102434030D01*
X138200775Y-102428749D01*
X138133795Y-102408863D01*
X138113468Y-102392431D01*
X134560563Y-98839526D01*
X134560562Y-98839525D01*
X134474938Y-98790090D01*
X134427186Y-98777295D01*
X134379436Y-98764500D01*
X134379435Y-98764500D01*
X134221378Y-98764500D01*
X134216880Y-98764172D01*
X134188216Y-98753434D01*
X134158860Y-98744815D01*
X134155811Y-98741296D01*
X134151450Y-98739663D01*
X134133141Y-98715134D01*
X134113105Y-98692011D01*
X134112442Y-98687402D01*
X134109657Y-98683671D01*
X134107516Y-98653145D01*
X134103161Y-98622853D01*
X134105095Y-98618616D01*
X134104770Y-98613972D01*
X134119471Y-98587137D01*
X134132186Y-98559297D01*
X134138218Y-98552819D01*
X140058218Y-92632819D01*
X140119541Y-92599334D01*
X140145899Y-92596500D01*
X140932818Y-92596500D01*
X140999857Y-92616185D01*
G37*
G04 #@! TD.AperFunction*
G04 #@! TA.AperFunction,Conductor*
G36*
X162399495Y-87062185D02*
G01*
X162420137Y-87078819D01*
X162513611Y-87172293D01*
X162513615Y-87172296D01*
X162620150Y-87243481D01*
X162620159Y-87243486D01*
X162626294Y-87246027D01*
X162738540Y-87292521D01*
X162738544Y-87292521D01*
X162738545Y-87292522D01*
X162864212Y-87317520D01*
X162864215Y-87317520D01*
X162992355Y-87317520D01*
X163076899Y-87300702D01*
X163118028Y-87292521D01*
X163236411Y-87243485D01*
X163342953Y-87172296D01*
X163342957Y-87172291D01*
X163347663Y-87168431D01*
X163349305Y-87170432D01*
X163400741Y-87142347D01*
X163470433Y-87147331D01*
X163526366Y-87189203D01*
X163550783Y-87254667D01*
X163551099Y-87263513D01*
X163551099Y-88492934D01*
X163552147Y-88508924D01*
X163552147Y-89640173D01*
X163532462Y-89707212D01*
X163515828Y-89727854D01*
X163422373Y-89821308D01*
X163422370Y-89821312D01*
X163351185Y-89927847D01*
X163351180Y-89927856D01*
X163302146Y-90046236D01*
X163302144Y-90046242D01*
X163277147Y-90171909D01*
X163277147Y-90171912D01*
X163277147Y-90300050D01*
X163277147Y-90300052D01*
X163277146Y-90300052D01*
X163302144Y-90425719D01*
X163302146Y-90425725D01*
X163351180Y-90544105D01*
X163351185Y-90544114D01*
X163422370Y-90650649D01*
X163422373Y-90650653D01*
X163512974Y-90741254D01*
X163512978Y-90741257D01*
X163619513Y-90812442D01*
X163619519Y-90812445D01*
X163619520Y-90812446D01*
X163737903Y-90861482D01*
X163737907Y-90861482D01*
X163737908Y-90861483D01*
X163863575Y-90886481D01*
X163863578Y-90886481D01*
X163991718Y-90886481D01*
X164092340Y-90866465D01*
X164117391Y-90861482D01*
X164235774Y-90812446D01*
X164342316Y-90741257D01*
X164432923Y-90650650D01*
X164504112Y-90544108D01*
X164553148Y-90425725D01*
X164561872Y-90381866D01*
X164567883Y-90351651D01*
X164600268Y-90289740D01*
X164660984Y-90255166D01*
X164730754Y-90258907D01*
X164787425Y-90299773D01*
X164813007Y-90364791D01*
X164813500Y-90375843D01*
X164813500Y-91374101D01*
X164793815Y-91441140D01*
X164777181Y-91461782D01*
X162749635Y-93489327D01*
X162688312Y-93522812D01*
X162618620Y-93517828D01*
X162579905Y-93492947D01*
X162579379Y-93493589D01*
X162574668Y-93489723D01*
X162468133Y-93418538D01*
X162468124Y-93418533D01*
X162349744Y-93369499D01*
X162349738Y-93369497D01*
X162224071Y-93344500D01*
X162224069Y-93344500D01*
X162095931Y-93344500D01*
X162089839Y-93344500D01*
X162089839Y-93342829D01*
X162029064Y-93331288D01*
X161978366Y-93283210D01*
X161963967Y-93245109D01*
X161962420Y-93237336D01*
X161962419Y-93237329D01*
X161913383Y-93118946D01*
X161913382Y-93118945D01*
X161913379Y-93118939D01*
X161842194Y-93012404D01*
X161842191Y-93012400D01*
X161748737Y-92918946D01*
X161715252Y-92857623D01*
X161712418Y-92831265D01*
X161712418Y-90217485D01*
X161712418Y-90217483D01*
X161686828Y-90121980D01*
X161637393Y-90036356D01*
X161567480Y-89966443D01*
X159814322Y-88213285D01*
X159780837Y-88151962D01*
X159779291Y-88125161D01*
X159778047Y-88125161D01*
X159778047Y-87990928D01*
X159753049Y-87865261D01*
X159753048Y-87865260D01*
X159753048Y-87865256D01*
X159704012Y-87746873D01*
X159704011Y-87746872D01*
X159704008Y-87746866D01*
X159632823Y-87640331D01*
X159632820Y-87640327D01*
X159542219Y-87549726D01*
X159542215Y-87549723D01*
X159435680Y-87478538D01*
X159435671Y-87478533D01*
X159317291Y-87429499D01*
X159317285Y-87429497D01*
X159191618Y-87404500D01*
X159191616Y-87404500D01*
X159063478Y-87404500D01*
X159063476Y-87404500D01*
X158937808Y-87429497D01*
X158937802Y-87429499D01*
X158819422Y-87478533D01*
X158819413Y-87478538D01*
X158712878Y-87549723D01*
X158712874Y-87549726D01*
X158622273Y-87640327D01*
X158622270Y-87640331D01*
X158551085Y-87746866D01*
X158551080Y-87746875D01*
X158502046Y-87865255D01*
X158502044Y-87865261D01*
X158477047Y-87990928D01*
X158477047Y-87990931D01*
X158477047Y-88119069D01*
X158477047Y-88119071D01*
X158477046Y-88119071D01*
X158502044Y-88244738D01*
X158502046Y-88244744D01*
X158551080Y-88363124D01*
X158551085Y-88363133D01*
X158622270Y-88469668D01*
X158622273Y-88469672D01*
X158712874Y-88560273D01*
X158712878Y-88560276D01*
X158819413Y-88631461D01*
X158819419Y-88631464D01*
X158819420Y-88631465D01*
X158937803Y-88680501D01*
X158937807Y-88680501D01*
X158937808Y-88680502D01*
X159063475Y-88705500D01*
X159193101Y-88705500D01*
X159260140Y-88725185D01*
X159280782Y-88741819D01*
X160925099Y-90386136D01*
X160958584Y-90447459D01*
X160961418Y-90473817D01*
X160961418Y-92831265D01*
X160941733Y-92898304D01*
X160925099Y-92918946D01*
X160831644Y-93012400D01*
X160831641Y-93012404D01*
X160760456Y-93118939D01*
X160760451Y-93118948D01*
X160757467Y-93126154D01*
X160713624Y-93180556D01*
X160647330Y-93202619D01*
X160579631Y-93185338D01*
X160555226Y-93166379D01*
X159909326Y-92520479D01*
X159904373Y-92515526D01*
X159904372Y-92515525D01*
X159899773Y-92512870D01*
X159892533Y-92507103D01*
X159890531Y-92504255D01*
X159882109Y-92497792D01*
X159655819Y-92271501D01*
X159622334Y-92210178D01*
X159619500Y-92183820D01*
X159619500Y-90874566D01*
X159619500Y-90874565D01*
X159619500Y-90874564D01*
X159593911Y-90779063D01*
X159551997Y-90706465D01*
X159544477Y-90693440D01*
X159544473Y-90693435D01*
X157832979Y-88981941D01*
X156105217Y-87254180D01*
X156071733Y-87192858D01*
X156076717Y-87123166D01*
X156118589Y-87067233D01*
X156184053Y-87042816D01*
X156192899Y-87042500D01*
X162332456Y-87042500D01*
X162399495Y-87062185D01*
G37*
G04 #@! TD.AperFunction*
M02*
