G04 #@! TF.GenerationSoftware,KiCad,Pcbnew,9.0.7*
G04 #@! TF.CreationDate,2026-04-24T14:05:45+02:00*
G04 #@! TF.ProjectId,modest_mapper,6d6f6465-7374-45f6-9d61-707065722e6b,rev?*
G04 #@! TF.SameCoordinates,Original*
G04 #@! TF.FileFunction,Legend,Bot*
G04 #@! TF.FilePolarity,Positive*
%FSLAX46Y46*%
G04 Gerber Fmt 4.6, Leading zero omitted, Abs format (unit mm)*
G04 Created by KiCad (PCBNEW 9.0.7) date 2026-04-24 14:05:45*
%MOMM*%
%LPD*%
G01*
G04 APERTURE LIST*
%ADD10C,0.140000*%
%ADD11C,0.200000*%
%ADD12C,0.160000*%
%ADD13C,0.000000*%
G04 APERTURE END LIST*
D10*
X111014815Y-103298771D02*
X110481481Y-103298771D01*
X110557672Y-103298771D02*
X110519577Y-103332105D01*
X110519577Y-103332105D02*
X110481481Y-103398771D01*
X110481481Y-103398771D02*
X110481481Y-103498771D01*
X110481481Y-103498771D02*
X110519577Y-103565438D01*
X110519577Y-103565438D02*
X110595767Y-103598771D01*
X110595767Y-103598771D02*
X111014815Y-103598771D01*
X110595767Y-103598771D02*
X110519577Y-103632105D01*
X110519577Y-103632105D02*
X110481481Y-103698771D01*
X110481481Y-103698771D02*
X110481481Y-103798771D01*
X110481481Y-103798771D02*
X110519577Y-103865438D01*
X110519577Y-103865438D02*
X110595767Y-103898771D01*
X110595767Y-103898771D02*
X111014815Y-103898771D01*
X111014815Y-104332104D02*
X110976720Y-104265438D01*
X110976720Y-104265438D02*
X110938624Y-104232104D01*
X110938624Y-104232104D02*
X110862434Y-104198771D01*
X110862434Y-104198771D02*
X110633862Y-104198771D01*
X110633862Y-104198771D02*
X110557672Y-104232104D01*
X110557672Y-104232104D02*
X110519577Y-104265438D01*
X110519577Y-104265438D02*
X110481481Y-104332104D01*
X110481481Y-104332104D02*
X110481481Y-104432104D01*
X110481481Y-104432104D02*
X110519577Y-104498771D01*
X110519577Y-104498771D02*
X110557672Y-104532104D01*
X110557672Y-104532104D02*
X110633862Y-104565438D01*
X110633862Y-104565438D02*
X110862434Y-104565438D01*
X110862434Y-104565438D02*
X110938624Y-104532104D01*
X110938624Y-104532104D02*
X110976720Y-104498771D01*
X110976720Y-104498771D02*
X111014815Y-104432104D01*
X111014815Y-104432104D02*
X111014815Y-104332104D01*
X111014815Y-105165437D02*
X110214815Y-105165437D01*
X110976720Y-105165437D02*
X111014815Y-105098771D01*
X111014815Y-105098771D02*
X111014815Y-104965437D01*
X111014815Y-104965437D02*
X110976720Y-104898771D01*
X110976720Y-104898771D02*
X110938624Y-104865437D01*
X110938624Y-104865437D02*
X110862434Y-104832104D01*
X110862434Y-104832104D02*
X110633862Y-104832104D01*
X110633862Y-104832104D02*
X110557672Y-104865437D01*
X110557672Y-104865437D02*
X110519577Y-104898771D01*
X110519577Y-104898771D02*
X110481481Y-104965437D01*
X110481481Y-104965437D02*
X110481481Y-105098771D01*
X110481481Y-105098771D02*
X110519577Y-105165437D01*
X110976720Y-105765437D02*
X111014815Y-105698770D01*
X111014815Y-105698770D02*
X111014815Y-105565437D01*
X111014815Y-105565437D02*
X110976720Y-105498770D01*
X110976720Y-105498770D02*
X110900529Y-105465437D01*
X110900529Y-105465437D02*
X110595767Y-105465437D01*
X110595767Y-105465437D02*
X110519577Y-105498770D01*
X110519577Y-105498770D02*
X110481481Y-105565437D01*
X110481481Y-105565437D02*
X110481481Y-105698770D01*
X110481481Y-105698770D02*
X110519577Y-105765437D01*
X110519577Y-105765437D02*
X110595767Y-105798770D01*
X110595767Y-105798770D02*
X110671958Y-105798770D01*
X110671958Y-105798770D02*
X110748148Y-105465437D01*
X110976720Y-106065437D02*
X111014815Y-106132104D01*
X111014815Y-106132104D02*
X111014815Y-106265437D01*
X111014815Y-106265437D02*
X110976720Y-106332104D01*
X110976720Y-106332104D02*
X110900529Y-106365437D01*
X110900529Y-106365437D02*
X110862434Y-106365437D01*
X110862434Y-106365437D02*
X110786243Y-106332104D01*
X110786243Y-106332104D02*
X110748148Y-106265437D01*
X110748148Y-106265437D02*
X110748148Y-106165437D01*
X110748148Y-106165437D02*
X110710053Y-106098770D01*
X110710053Y-106098770D02*
X110633862Y-106065437D01*
X110633862Y-106065437D02*
X110595767Y-106065437D01*
X110595767Y-106065437D02*
X110519577Y-106098770D01*
X110519577Y-106098770D02*
X110481481Y-106165437D01*
X110481481Y-106165437D02*
X110481481Y-106265437D01*
X110481481Y-106265437D02*
X110519577Y-106332104D01*
X110481481Y-106565437D02*
X110481481Y-106832104D01*
X110214815Y-106665437D02*
X110900529Y-106665437D01*
X110900529Y-106665437D02*
X110976720Y-106698771D01*
X110976720Y-106698771D02*
X111014815Y-106765437D01*
X111014815Y-106765437D02*
X111014815Y-106832104D01*
X111014815Y-107065437D02*
X110481481Y-107065437D01*
X110557672Y-107065437D02*
X110519577Y-107098771D01*
X110519577Y-107098771D02*
X110481481Y-107165437D01*
X110481481Y-107165437D02*
X110481481Y-107265437D01*
X110481481Y-107265437D02*
X110519577Y-107332104D01*
X110519577Y-107332104D02*
X110595767Y-107365437D01*
X110595767Y-107365437D02*
X111014815Y-107365437D01*
X110595767Y-107365437D02*
X110519577Y-107398771D01*
X110519577Y-107398771D02*
X110481481Y-107465437D01*
X110481481Y-107465437D02*
X110481481Y-107565437D01*
X110481481Y-107565437D02*
X110519577Y-107632104D01*
X110519577Y-107632104D02*
X110595767Y-107665437D01*
X110595767Y-107665437D02*
X111014815Y-107665437D01*
X111014815Y-108298770D02*
X110595767Y-108298770D01*
X110595767Y-108298770D02*
X110519577Y-108265437D01*
X110519577Y-108265437D02*
X110481481Y-108198770D01*
X110481481Y-108198770D02*
X110481481Y-108065437D01*
X110481481Y-108065437D02*
X110519577Y-107998770D01*
X110976720Y-108298770D02*
X111014815Y-108232104D01*
X111014815Y-108232104D02*
X111014815Y-108065437D01*
X111014815Y-108065437D02*
X110976720Y-107998770D01*
X110976720Y-107998770D02*
X110900529Y-107965437D01*
X110900529Y-107965437D02*
X110824339Y-107965437D01*
X110824339Y-107965437D02*
X110748148Y-107998770D01*
X110748148Y-107998770D02*
X110710053Y-108065437D01*
X110710053Y-108065437D02*
X110710053Y-108232104D01*
X110710053Y-108232104D02*
X110671958Y-108298770D01*
X110481481Y-108632103D02*
X111281481Y-108632103D01*
X110519577Y-108632103D02*
X110481481Y-108698770D01*
X110481481Y-108698770D02*
X110481481Y-108832103D01*
X110481481Y-108832103D02*
X110519577Y-108898770D01*
X110519577Y-108898770D02*
X110557672Y-108932103D01*
X110557672Y-108932103D02*
X110633862Y-108965437D01*
X110633862Y-108965437D02*
X110862434Y-108965437D01*
X110862434Y-108965437D02*
X110938624Y-108932103D01*
X110938624Y-108932103D02*
X110976720Y-108898770D01*
X110976720Y-108898770D02*
X111014815Y-108832103D01*
X111014815Y-108832103D02*
X111014815Y-108698770D01*
X111014815Y-108698770D02*
X110976720Y-108632103D01*
X110481481Y-109265436D02*
X111281481Y-109265436D01*
X110519577Y-109265436D02*
X110481481Y-109332103D01*
X110481481Y-109332103D02*
X110481481Y-109465436D01*
X110481481Y-109465436D02*
X110519577Y-109532103D01*
X110519577Y-109532103D02*
X110557672Y-109565436D01*
X110557672Y-109565436D02*
X110633862Y-109598770D01*
X110633862Y-109598770D02*
X110862434Y-109598770D01*
X110862434Y-109598770D02*
X110938624Y-109565436D01*
X110938624Y-109565436D02*
X110976720Y-109532103D01*
X110976720Y-109532103D02*
X111014815Y-109465436D01*
X111014815Y-109465436D02*
X111014815Y-109332103D01*
X111014815Y-109332103D02*
X110976720Y-109265436D01*
X110976720Y-110165436D02*
X111014815Y-110098769D01*
X111014815Y-110098769D02*
X111014815Y-109965436D01*
X111014815Y-109965436D02*
X110976720Y-109898769D01*
X110976720Y-109898769D02*
X110900529Y-109865436D01*
X110900529Y-109865436D02*
X110595767Y-109865436D01*
X110595767Y-109865436D02*
X110519577Y-109898769D01*
X110519577Y-109898769D02*
X110481481Y-109965436D01*
X110481481Y-109965436D02*
X110481481Y-110098769D01*
X110481481Y-110098769D02*
X110519577Y-110165436D01*
X110519577Y-110165436D02*
X110595767Y-110198769D01*
X110595767Y-110198769D02*
X110671958Y-110198769D01*
X110671958Y-110198769D02*
X110748148Y-109865436D01*
X111014815Y-110498769D02*
X110481481Y-110498769D01*
X110633862Y-110498769D02*
X110557672Y-110532103D01*
X110557672Y-110532103D02*
X110519577Y-110565436D01*
X110519577Y-110565436D02*
X110481481Y-110632103D01*
X110481481Y-110632103D02*
X110481481Y-110698769D01*
D11*
X168633183Y-75090720D02*
X168252231Y-75090720D01*
X168490326Y-74757387D02*
X168490326Y-75614529D01*
X168490326Y-75614529D02*
X168442707Y-75709768D01*
X168442707Y-75709768D02*
X168347469Y-75757387D01*
X168347469Y-75757387D02*
X168252231Y-75757387D01*
X167918897Y-75757387D02*
X167918897Y-74757387D01*
X167490326Y-75757387D02*
X167490326Y-75233577D01*
X167490326Y-75233577D02*
X167537945Y-75138339D01*
X167537945Y-75138339D02*
X167633183Y-75090720D01*
X167633183Y-75090720D02*
X167776040Y-75090720D01*
X167776040Y-75090720D02*
X167871278Y-75138339D01*
X167871278Y-75138339D02*
X167918897Y-75185958D01*
X166633183Y-75709768D02*
X166728421Y-75757387D01*
X166728421Y-75757387D02*
X166918897Y-75757387D01*
X166918897Y-75757387D02*
X167014135Y-75709768D01*
X167014135Y-75709768D02*
X167061754Y-75614529D01*
X167061754Y-75614529D02*
X167061754Y-75233577D01*
X167061754Y-75233577D02*
X167014135Y-75138339D01*
X167014135Y-75138339D02*
X166918897Y-75090720D01*
X166918897Y-75090720D02*
X166728421Y-75090720D01*
X166728421Y-75090720D02*
X166633183Y-75138339D01*
X166633183Y-75138339D02*
X166585564Y-75233577D01*
X166585564Y-75233577D02*
X166585564Y-75328815D01*
X166585564Y-75328815D02*
X167061754Y-75424053D01*
X165347468Y-74757387D02*
X165442706Y-74947863D01*
X164918897Y-75757387D02*
X164918897Y-74757387D01*
X164918897Y-74757387D02*
X164585564Y-75471672D01*
X164585564Y-75471672D02*
X164252231Y-74757387D01*
X164252231Y-74757387D02*
X164252231Y-75757387D01*
X163633183Y-75757387D02*
X163728421Y-75709768D01*
X163728421Y-75709768D02*
X163776040Y-75662148D01*
X163776040Y-75662148D02*
X163823659Y-75566910D01*
X163823659Y-75566910D02*
X163823659Y-75281196D01*
X163823659Y-75281196D02*
X163776040Y-75185958D01*
X163776040Y-75185958D02*
X163728421Y-75138339D01*
X163728421Y-75138339D02*
X163633183Y-75090720D01*
X163633183Y-75090720D02*
X163490326Y-75090720D01*
X163490326Y-75090720D02*
X163395088Y-75138339D01*
X163395088Y-75138339D02*
X163347469Y-75185958D01*
X163347469Y-75185958D02*
X163299850Y-75281196D01*
X163299850Y-75281196D02*
X163299850Y-75566910D01*
X163299850Y-75566910D02*
X163347469Y-75662148D01*
X163347469Y-75662148D02*
X163395088Y-75709768D01*
X163395088Y-75709768D02*
X163490326Y-75757387D01*
X163490326Y-75757387D02*
X163633183Y-75757387D01*
X162442707Y-75757387D02*
X162442707Y-74757387D01*
X162442707Y-75709768D02*
X162537945Y-75757387D01*
X162537945Y-75757387D02*
X162728421Y-75757387D01*
X162728421Y-75757387D02*
X162823659Y-75709768D01*
X162823659Y-75709768D02*
X162871278Y-75662148D01*
X162871278Y-75662148D02*
X162918897Y-75566910D01*
X162918897Y-75566910D02*
X162918897Y-75281196D01*
X162918897Y-75281196D02*
X162871278Y-75185958D01*
X162871278Y-75185958D02*
X162823659Y-75138339D01*
X162823659Y-75138339D02*
X162728421Y-75090720D01*
X162728421Y-75090720D02*
X162537945Y-75090720D01*
X162537945Y-75090720D02*
X162442707Y-75138339D01*
X161585564Y-75709768D02*
X161680802Y-75757387D01*
X161680802Y-75757387D02*
X161871278Y-75757387D01*
X161871278Y-75757387D02*
X161966516Y-75709768D01*
X161966516Y-75709768D02*
X162014135Y-75614529D01*
X162014135Y-75614529D02*
X162014135Y-75233577D01*
X162014135Y-75233577D02*
X161966516Y-75138339D01*
X161966516Y-75138339D02*
X161871278Y-75090720D01*
X161871278Y-75090720D02*
X161680802Y-75090720D01*
X161680802Y-75090720D02*
X161585564Y-75138339D01*
X161585564Y-75138339D02*
X161537945Y-75233577D01*
X161537945Y-75233577D02*
X161537945Y-75328815D01*
X161537945Y-75328815D02*
X162014135Y-75424053D01*
X161156992Y-75709768D02*
X161061754Y-75757387D01*
X161061754Y-75757387D02*
X160871278Y-75757387D01*
X160871278Y-75757387D02*
X160776040Y-75709768D01*
X160776040Y-75709768D02*
X160728421Y-75614529D01*
X160728421Y-75614529D02*
X160728421Y-75566910D01*
X160728421Y-75566910D02*
X160776040Y-75471672D01*
X160776040Y-75471672D02*
X160871278Y-75424053D01*
X160871278Y-75424053D02*
X161014135Y-75424053D01*
X161014135Y-75424053D02*
X161109373Y-75376434D01*
X161109373Y-75376434D02*
X161156992Y-75281196D01*
X161156992Y-75281196D02*
X161156992Y-75233577D01*
X161156992Y-75233577D02*
X161109373Y-75138339D01*
X161109373Y-75138339D02*
X161014135Y-75090720D01*
X161014135Y-75090720D02*
X160871278Y-75090720D01*
X160871278Y-75090720D02*
X160776040Y-75138339D01*
X160442706Y-75090720D02*
X160061754Y-75090720D01*
X160299849Y-74757387D02*
X160299849Y-75614529D01*
X160299849Y-75614529D02*
X160252230Y-75709768D01*
X160252230Y-75709768D02*
X160156992Y-75757387D01*
X160156992Y-75757387D02*
X160061754Y-75757387D01*
X159728420Y-75757387D02*
X159728420Y-74757387D01*
X159728420Y-74757387D02*
X159395087Y-75471672D01*
X159395087Y-75471672D02*
X159061754Y-74757387D01*
X159061754Y-74757387D02*
X159061754Y-75757387D01*
X158156992Y-75757387D02*
X158156992Y-75233577D01*
X158156992Y-75233577D02*
X158204611Y-75138339D01*
X158204611Y-75138339D02*
X158299849Y-75090720D01*
X158299849Y-75090720D02*
X158490325Y-75090720D01*
X158490325Y-75090720D02*
X158585563Y-75138339D01*
X158156992Y-75709768D02*
X158252230Y-75757387D01*
X158252230Y-75757387D02*
X158490325Y-75757387D01*
X158490325Y-75757387D02*
X158585563Y-75709768D01*
X158585563Y-75709768D02*
X158633182Y-75614529D01*
X158633182Y-75614529D02*
X158633182Y-75519291D01*
X158633182Y-75519291D02*
X158585563Y-75424053D01*
X158585563Y-75424053D02*
X158490325Y-75376434D01*
X158490325Y-75376434D02*
X158252230Y-75376434D01*
X158252230Y-75376434D02*
X158156992Y-75328815D01*
X157680801Y-75090720D02*
X157680801Y-76090720D01*
X157680801Y-75138339D02*
X157585563Y-75090720D01*
X157585563Y-75090720D02*
X157395087Y-75090720D01*
X157395087Y-75090720D02*
X157299849Y-75138339D01*
X157299849Y-75138339D02*
X157252230Y-75185958D01*
X157252230Y-75185958D02*
X157204611Y-75281196D01*
X157204611Y-75281196D02*
X157204611Y-75566910D01*
X157204611Y-75566910D02*
X157252230Y-75662148D01*
X157252230Y-75662148D02*
X157299849Y-75709768D01*
X157299849Y-75709768D02*
X157395087Y-75757387D01*
X157395087Y-75757387D02*
X157585563Y-75757387D01*
X157585563Y-75757387D02*
X157680801Y-75709768D01*
X156776039Y-75090720D02*
X156776039Y-76090720D01*
X156776039Y-75138339D02*
X156680801Y-75090720D01*
X156680801Y-75090720D02*
X156490325Y-75090720D01*
X156490325Y-75090720D02*
X156395087Y-75138339D01*
X156395087Y-75138339D02*
X156347468Y-75185958D01*
X156347468Y-75185958D02*
X156299849Y-75281196D01*
X156299849Y-75281196D02*
X156299849Y-75566910D01*
X156299849Y-75566910D02*
X156347468Y-75662148D01*
X156347468Y-75662148D02*
X156395087Y-75709768D01*
X156395087Y-75709768D02*
X156490325Y-75757387D01*
X156490325Y-75757387D02*
X156680801Y-75757387D01*
X156680801Y-75757387D02*
X156776039Y-75709768D01*
X155490325Y-75709768D02*
X155585563Y-75757387D01*
X155585563Y-75757387D02*
X155776039Y-75757387D01*
X155776039Y-75757387D02*
X155871277Y-75709768D01*
X155871277Y-75709768D02*
X155918896Y-75614529D01*
X155918896Y-75614529D02*
X155918896Y-75233577D01*
X155918896Y-75233577D02*
X155871277Y-75138339D01*
X155871277Y-75138339D02*
X155776039Y-75090720D01*
X155776039Y-75090720D02*
X155585563Y-75090720D01*
X155585563Y-75090720D02*
X155490325Y-75138339D01*
X155490325Y-75138339D02*
X155442706Y-75233577D01*
X155442706Y-75233577D02*
X155442706Y-75328815D01*
X155442706Y-75328815D02*
X155918896Y-75424053D01*
X155014134Y-75757387D02*
X155014134Y-75090720D01*
X155014134Y-75281196D02*
X154966515Y-75185958D01*
X154966515Y-75185958D02*
X154918896Y-75138339D01*
X154918896Y-75138339D02*
X154823658Y-75090720D01*
X154823658Y-75090720D02*
X154728420Y-75090720D01*
X154347467Y-74757387D02*
X154442705Y-74947863D01*
X153156991Y-75757387D02*
X153156991Y-74757387D01*
X153156991Y-75138339D02*
X153061753Y-75090720D01*
X153061753Y-75090720D02*
X152871277Y-75090720D01*
X152871277Y-75090720D02*
X152776039Y-75138339D01*
X152776039Y-75138339D02*
X152728420Y-75185958D01*
X152728420Y-75185958D02*
X152680801Y-75281196D01*
X152680801Y-75281196D02*
X152680801Y-75566910D01*
X152680801Y-75566910D02*
X152728420Y-75662148D01*
X152728420Y-75662148D02*
X152776039Y-75709768D01*
X152776039Y-75709768D02*
X152871277Y-75757387D01*
X152871277Y-75757387D02*
X153061753Y-75757387D01*
X153061753Y-75757387D02*
X153156991Y-75709768D01*
X152347467Y-75090720D02*
X152109372Y-75757387D01*
X151871277Y-75090720D02*
X152109372Y-75757387D01*
X152109372Y-75757387D02*
X152204610Y-75995482D01*
X152204610Y-75995482D02*
X152252229Y-76043101D01*
X152252229Y-76043101D02*
X152347467Y-76090720D01*
X150776038Y-75709768D02*
X150680800Y-75757387D01*
X150680800Y-75757387D02*
X150490324Y-75757387D01*
X150490324Y-75757387D02*
X150395086Y-75709768D01*
X150395086Y-75709768D02*
X150347467Y-75614529D01*
X150347467Y-75614529D02*
X150347467Y-75566910D01*
X150347467Y-75566910D02*
X150395086Y-75471672D01*
X150395086Y-75471672D02*
X150490324Y-75424053D01*
X150490324Y-75424053D02*
X150633181Y-75424053D01*
X150633181Y-75424053D02*
X150728419Y-75376434D01*
X150728419Y-75376434D02*
X150776038Y-75281196D01*
X150776038Y-75281196D02*
X150776038Y-75233577D01*
X150776038Y-75233577D02*
X150728419Y-75138339D01*
X150728419Y-75138339D02*
X150633181Y-75090720D01*
X150633181Y-75090720D02*
X150490324Y-75090720D01*
X150490324Y-75090720D02*
X150395086Y-75138339D01*
X150014133Y-75090720D02*
X149776038Y-75757387D01*
X149776038Y-75757387D02*
X149537943Y-75090720D01*
X148776038Y-75709768D02*
X148871276Y-75757387D01*
X148871276Y-75757387D02*
X149061752Y-75757387D01*
X149061752Y-75757387D02*
X149156990Y-75709768D01*
X149156990Y-75709768D02*
X149204609Y-75614529D01*
X149204609Y-75614529D02*
X149204609Y-75233577D01*
X149204609Y-75233577D02*
X149156990Y-75138339D01*
X149156990Y-75138339D02*
X149061752Y-75090720D01*
X149061752Y-75090720D02*
X148871276Y-75090720D01*
X148871276Y-75090720D02*
X148776038Y-75138339D01*
X148776038Y-75138339D02*
X148728419Y-75233577D01*
X148728419Y-75233577D02*
X148728419Y-75328815D01*
X148728419Y-75328815D02*
X149204609Y-75424053D01*
X148299847Y-75757387D02*
X148299847Y-75090720D01*
X148299847Y-75281196D02*
X148252228Y-75185958D01*
X148252228Y-75185958D02*
X148204609Y-75138339D01*
X148204609Y-75138339D02*
X148109371Y-75090720D01*
X148109371Y-75090720D02*
X148014133Y-75090720D01*
X147776037Y-75757387D02*
X147252228Y-75090720D01*
X147776037Y-75090720D02*
X147252228Y-75757387D01*
X168204612Y-77748283D02*
X168252231Y-77700664D01*
X168252231Y-77700664D02*
X168347469Y-77557807D01*
X168347469Y-77557807D02*
X168395088Y-77462569D01*
X168395088Y-77462569D02*
X168442707Y-77319712D01*
X168442707Y-77319712D02*
X168490326Y-77081616D01*
X168490326Y-77081616D02*
X168490326Y-76891140D01*
X168490326Y-76891140D02*
X168442707Y-76653045D01*
X168442707Y-76653045D02*
X168395088Y-76510188D01*
X168395088Y-76510188D02*
X168347469Y-76414950D01*
X168347469Y-76414950D02*
X168252231Y-76272092D01*
X168252231Y-76272092D02*
X168204612Y-76224473D01*
X167823659Y-77367331D02*
X167823659Y-76367331D01*
X167823659Y-76748283D02*
X167728421Y-76700664D01*
X167728421Y-76700664D02*
X167537945Y-76700664D01*
X167537945Y-76700664D02*
X167442707Y-76748283D01*
X167442707Y-76748283D02*
X167395088Y-76795902D01*
X167395088Y-76795902D02*
X167347469Y-76891140D01*
X167347469Y-76891140D02*
X167347469Y-77176854D01*
X167347469Y-77176854D02*
X167395088Y-77272092D01*
X167395088Y-77272092D02*
X167442707Y-77319712D01*
X167442707Y-77319712D02*
X167537945Y-77367331D01*
X167537945Y-77367331D02*
X167728421Y-77367331D01*
X167728421Y-77367331D02*
X167823659Y-77319712D01*
X166490326Y-77367331D02*
X166490326Y-76843521D01*
X166490326Y-76843521D02*
X166537945Y-76748283D01*
X166537945Y-76748283D02*
X166633183Y-76700664D01*
X166633183Y-76700664D02*
X166823659Y-76700664D01*
X166823659Y-76700664D02*
X166918897Y-76748283D01*
X166490326Y-77319712D02*
X166585564Y-77367331D01*
X166585564Y-77367331D02*
X166823659Y-77367331D01*
X166823659Y-77367331D02*
X166918897Y-77319712D01*
X166918897Y-77319712D02*
X166966516Y-77224473D01*
X166966516Y-77224473D02*
X166966516Y-77129235D01*
X166966516Y-77129235D02*
X166918897Y-77033997D01*
X166918897Y-77033997D02*
X166823659Y-76986378D01*
X166823659Y-76986378D02*
X166585564Y-76986378D01*
X166585564Y-76986378D02*
X166490326Y-76938759D01*
X166061754Y-77319712D02*
X165966516Y-77367331D01*
X165966516Y-77367331D02*
X165776040Y-77367331D01*
X165776040Y-77367331D02*
X165680802Y-77319712D01*
X165680802Y-77319712D02*
X165633183Y-77224473D01*
X165633183Y-77224473D02*
X165633183Y-77176854D01*
X165633183Y-77176854D02*
X165680802Y-77081616D01*
X165680802Y-77081616D02*
X165776040Y-77033997D01*
X165776040Y-77033997D02*
X165918897Y-77033997D01*
X165918897Y-77033997D02*
X166014135Y-76986378D01*
X166014135Y-76986378D02*
X166061754Y-76891140D01*
X166061754Y-76891140D02*
X166061754Y-76843521D01*
X166061754Y-76843521D02*
X166014135Y-76748283D01*
X166014135Y-76748283D02*
X165918897Y-76700664D01*
X165918897Y-76700664D02*
X165776040Y-76700664D01*
X165776040Y-76700664D02*
X165680802Y-76748283D01*
X164823659Y-77319712D02*
X164918897Y-77367331D01*
X164918897Y-77367331D02*
X165109373Y-77367331D01*
X165109373Y-77367331D02*
X165204611Y-77319712D01*
X165204611Y-77319712D02*
X165252230Y-77224473D01*
X165252230Y-77224473D02*
X165252230Y-76843521D01*
X165252230Y-76843521D02*
X165204611Y-76748283D01*
X165204611Y-76748283D02*
X165109373Y-76700664D01*
X165109373Y-76700664D02*
X164918897Y-76700664D01*
X164918897Y-76700664D02*
X164823659Y-76748283D01*
X164823659Y-76748283D02*
X164776040Y-76843521D01*
X164776040Y-76843521D02*
X164776040Y-76938759D01*
X164776040Y-76938759D02*
X165252230Y-77033997D01*
X163918897Y-77367331D02*
X163918897Y-76367331D01*
X163918897Y-77319712D02*
X164014135Y-77367331D01*
X164014135Y-77367331D02*
X164204611Y-77367331D01*
X164204611Y-77367331D02*
X164299849Y-77319712D01*
X164299849Y-77319712D02*
X164347468Y-77272092D01*
X164347468Y-77272092D02*
X164395087Y-77176854D01*
X164395087Y-77176854D02*
X164395087Y-76891140D01*
X164395087Y-76891140D02*
X164347468Y-76795902D01*
X164347468Y-76795902D02*
X164299849Y-76748283D01*
X164299849Y-76748283D02*
X164204611Y-76700664D01*
X164204611Y-76700664D02*
X164014135Y-76700664D01*
X164014135Y-76700664D02*
X163918897Y-76748283D01*
X162537944Y-77367331D02*
X162633182Y-77319712D01*
X162633182Y-77319712D02*
X162680801Y-77272092D01*
X162680801Y-77272092D02*
X162728420Y-77176854D01*
X162728420Y-77176854D02*
X162728420Y-76891140D01*
X162728420Y-76891140D02*
X162680801Y-76795902D01*
X162680801Y-76795902D02*
X162633182Y-76748283D01*
X162633182Y-76748283D02*
X162537944Y-76700664D01*
X162537944Y-76700664D02*
X162395087Y-76700664D01*
X162395087Y-76700664D02*
X162299849Y-76748283D01*
X162299849Y-76748283D02*
X162252230Y-76795902D01*
X162252230Y-76795902D02*
X162204611Y-76891140D01*
X162204611Y-76891140D02*
X162204611Y-77176854D01*
X162204611Y-77176854D02*
X162252230Y-77272092D01*
X162252230Y-77272092D02*
X162299849Y-77319712D01*
X162299849Y-77319712D02*
X162395087Y-77367331D01*
X162395087Y-77367331D02*
X162537944Y-77367331D01*
X161776039Y-76700664D02*
X161776039Y-77367331D01*
X161776039Y-76795902D02*
X161728420Y-76748283D01*
X161728420Y-76748283D02*
X161633182Y-76700664D01*
X161633182Y-76700664D02*
X161490325Y-76700664D01*
X161490325Y-76700664D02*
X161395087Y-76748283D01*
X161395087Y-76748283D02*
X161347468Y-76843521D01*
X161347468Y-76843521D02*
X161347468Y-77367331D01*
X160252229Y-76700664D02*
X159871277Y-76700664D01*
X160109372Y-76367331D02*
X160109372Y-77224473D01*
X160109372Y-77224473D02*
X160061753Y-77319712D01*
X160061753Y-77319712D02*
X159966515Y-77367331D01*
X159966515Y-77367331D02*
X159871277Y-77367331D01*
X159537943Y-77367331D02*
X159537943Y-76367331D01*
X159109372Y-77367331D02*
X159109372Y-76843521D01*
X159109372Y-76843521D02*
X159156991Y-76748283D01*
X159156991Y-76748283D02*
X159252229Y-76700664D01*
X159252229Y-76700664D02*
X159395086Y-76700664D01*
X159395086Y-76700664D02*
X159490324Y-76748283D01*
X159490324Y-76748283D02*
X159537943Y-76795902D01*
X158252229Y-77319712D02*
X158347467Y-77367331D01*
X158347467Y-77367331D02*
X158537943Y-77367331D01*
X158537943Y-77367331D02*
X158633181Y-77319712D01*
X158633181Y-77319712D02*
X158680800Y-77224473D01*
X158680800Y-77224473D02*
X158680800Y-76843521D01*
X158680800Y-76843521D02*
X158633181Y-76748283D01*
X158633181Y-76748283D02*
X158537943Y-76700664D01*
X158537943Y-76700664D02*
X158347467Y-76700664D01*
X158347467Y-76700664D02*
X158252229Y-76748283D01*
X158252229Y-76748283D02*
X158204610Y-76843521D01*
X158204610Y-76843521D02*
X158204610Y-76938759D01*
X158204610Y-76938759D02*
X158680800Y-77033997D01*
X156966514Y-76367331D02*
X157061752Y-76557807D01*
X156204610Y-76843521D02*
X156537943Y-76843521D01*
X156537943Y-77367331D02*
X156537943Y-76367331D01*
X156537943Y-76367331D02*
X156061753Y-76367331D01*
X155680800Y-77367331D02*
X155680800Y-76700664D01*
X155680800Y-76891140D02*
X155633181Y-76795902D01*
X155633181Y-76795902D02*
X155585562Y-76748283D01*
X155585562Y-76748283D02*
X155490324Y-76700664D01*
X155490324Y-76700664D02*
X155395086Y-76700664D01*
X154633181Y-76700664D02*
X154633181Y-77367331D01*
X155061752Y-76700664D02*
X155061752Y-77224473D01*
X155061752Y-77224473D02*
X155014133Y-77319712D01*
X155014133Y-77319712D02*
X154918895Y-77367331D01*
X154918895Y-77367331D02*
X154776038Y-77367331D01*
X154776038Y-77367331D02*
X154680800Y-77319712D01*
X154680800Y-77319712D02*
X154633181Y-77272092D01*
X153728419Y-76700664D02*
X153728419Y-77510188D01*
X153728419Y-77510188D02*
X153776038Y-77605426D01*
X153776038Y-77605426D02*
X153823657Y-77653045D01*
X153823657Y-77653045D02*
X153918895Y-77700664D01*
X153918895Y-77700664D02*
X154061752Y-77700664D01*
X154061752Y-77700664D02*
X154156990Y-77653045D01*
X153728419Y-77319712D02*
X153823657Y-77367331D01*
X153823657Y-77367331D02*
X154014133Y-77367331D01*
X154014133Y-77367331D02*
X154109371Y-77319712D01*
X154109371Y-77319712D02*
X154156990Y-77272092D01*
X154156990Y-77272092D02*
X154204609Y-77176854D01*
X154204609Y-77176854D02*
X154204609Y-76891140D01*
X154204609Y-76891140D02*
X154156990Y-76795902D01*
X154156990Y-76795902D02*
X154109371Y-76748283D01*
X154109371Y-76748283D02*
X154014133Y-76700664D01*
X154014133Y-76700664D02*
X153823657Y-76700664D01*
X153823657Y-76700664D02*
X153728419Y-76748283D01*
X152823657Y-77367331D02*
X152823657Y-76843521D01*
X152823657Y-76843521D02*
X152871276Y-76748283D01*
X152871276Y-76748283D02*
X152966514Y-76700664D01*
X152966514Y-76700664D02*
X153156990Y-76700664D01*
X153156990Y-76700664D02*
X153252228Y-76748283D01*
X152823657Y-77319712D02*
X152918895Y-77367331D01*
X152918895Y-77367331D02*
X153156990Y-77367331D01*
X153156990Y-77367331D02*
X153252228Y-77319712D01*
X153252228Y-77319712D02*
X153299847Y-77224473D01*
X153299847Y-77224473D02*
X153299847Y-77129235D01*
X153299847Y-77129235D02*
X153252228Y-77033997D01*
X153252228Y-77033997D02*
X153156990Y-76986378D01*
X153156990Y-76986378D02*
X152918895Y-76986378D01*
X152918895Y-76986378D02*
X152823657Y-76938759D01*
X152204609Y-77367331D02*
X152299847Y-77319712D01*
X152299847Y-77319712D02*
X152347466Y-77224473D01*
X152347466Y-77224473D02*
X152347466Y-76367331D01*
X151823656Y-77367331D02*
X151823656Y-76367331D01*
X151823656Y-76367331D02*
X151490323Y-77081616D01*
X151490323Y-77081616D02*
X151156990Y-76367331D01*
X151156990Y-76367331D02*
X151156990Y-77367331D01*
X150252228Y-77367331D02*
X150252228Y-76843521D01*
X150252228Y-76843521D02*
X150299847Y-76748283D01*
X150299847Y-76748283D02*
X150395085Y-76700664D01*
X150395085Y-76700664D02*
X150585561Y-76700664D01*
X150585561Y-76700664D02*
X150680799Y-76748283D01*
X150252228Y-77319712D02*
X150347466Y-77367331D01*
X150347466Y-77367331D02*
X150585561Y-77367331D01*
X150585561Y-77367331D02*
X150680799Y-77319712D01*
X150680799Y-77319712D02*
X150728418Y-77224473D01*
X150728418Y-77224473D02*
X150728418Y-77129235D01*
X150728418Y-77129235D02*
X150680799Y-77033997D01*
X150680799Y-77033997D02*
X150585561Y-76986378D01*
X150585561Y-76986378D02*
X150347466Y-76986378D01*
X150347466Y-76986378D02*
X150252228Y-76938759D01*
X149776037Y-76700664D02*
X149776037Y-77700664D01*
X149776037Y-76748283D02*
X149680799Y-76700664D01*
X149680799Y-76700664D02*
X149490323Y-76700664D01*
X149490323Y-76700664D02*
X149395085Y-76748283D01*
X149395085Y-76748283D02*
X149347466Y-76795902D01*
X149347466Y-76795902D02*
X149299847Y-76891140D01*
X149299847Y-76891140D02*
X149299847Y-77176854D01*
X149299847Y-77176854D02*
X149347466Y-77272092D01*
X149347466Y-77272092D02*
X149395085Y-77319712D01*
X149395085Y-77319712D02*
X149490323Y-77367331D01*
X149490323Y-77367331D02*
X149680799Y-77367331D01*
X149680799Y-77367331D02*
X149776037Y-77319712D01*
X148871275Y-76700664D02*
X148871275Y-77700664D01*
X148871275Y-76748283D02*
X148776037Y-76700664D01*
X148776037Y-76700664D02*
X148585561Y-76700664D01*
X148585561Y-76700664D02*
X148490323Y-76748283D01*
X148490323Y-76748283D02*
X148442704Y-76795902D01*
X148442704Y-76795902D02*
X148395085Y-76891140D01*
X148395085Y-76891140D02*
X148395085Y-77176854D01*
X148395085Y-77176854D02*
X148442704Y-77272092D01*
X148442704Y-77272092D02*
X148490323Y-77319712D01*
X148490323Y-77319712D02*
X148585561Y-77367331D01*
X148585561Y-77367331D02*
X148776037Y-77367331D01*
X148776037Y-77367331D02*
X148871275Y-77319712D01*
X147585561Y-77319712D02*
X147680799Y-77367331D01*
X147680799Y-77367331D02*
X147871275Y-77367331D01*
X147871275Y-77367331D02*
X147966513Y-77319712D01*
X147966513Y-77319712D02*
X148014132Y-77224473D01*
X148014132Y-77224473D02*
X148014132Y-76843521D01*
X148014132Y-76843521D02*
X147966513Y-76748283D01*
X147966513Y-76748283D02*
X147871275Y-76700664D01*
X147871275Y-76700664D02*
X147680799Y-76700664D01*
X147680799Y-76700664D02*
X147585561Y-76748283D01*
X147585561Y-76748283D02*
X147537942Y-76843521D01*
X147537942Y-76843521D02*
X147537942Y-76938759D01*
X147537942Y-76938759D02*
X148014132Y-77033997D01*
X147109370Y-77367331D02*
X147109370Y-76700664D01*
X147109370Y-76891140D02*
X147061751Y-76795902D01*
X147061751Y-76795902D02*
X147014132Y-76748283D01*
X147014132Y-76748283D02*
X146918894Y-76700664D01*
X146918894Y-76700664D02*
X146823656Y-76700664D01*
X146442703Y-76367331D02*
X146537941Y-76557807D01*
X145252227Y-77367331D02*
X145252227Y-76367331D01*
X145252227Y-76748283D02*
X145156989Y-76700664D01*
X145156989Y-76700664D02*
X144966513Y-76700664D01*
X144966513Y-76700664D02*
X144871275Y-76748283D01*
X144871275Y-76748283D02*
X144823656Y-76795902D01*
X144823656Y-76795902D02*
X144776037Y-76891140D01*
X144776037Y-76891140D02*
X144776037Y-77176854D01*
X144776037Y-77176854D02*
X144823656Y-77272092D01*
X144823656Y-77272092D02*
X144871275Y-77319712D01*
X144871275Y-77319712D02*
X144966513Y-77367331D01*
X144966513Y-77367331D02*
X145156989Y-77367331D01*
X145156989Y-77367331D02*
X145252227Y-77319712D01*
X144442703Y-76700664D02*
X144204608Y-77367331D01*
X143966513Y-76700664D02*
X144204608Y-77367331D01*
X144204608Y-77367331D02*
X144299846Y-77605426D01*
X144299846Y-77605426D02*
X144347465Y-77653045D01*
X144347465Y-77653045D02*
X144442703Y-77700664D01*
X149776035Y-78977275D02*
X149776035Y-77977275D01*
X149776035Y-78929656D02*
X149871273Y-78977275D01*
X149871273Y-78977275D02*
X150061749Y-78977275D01*
X150061749Y-78977275D02*
X150156987Y-78929656D01*
X150156987Y-78929656D02*
X150204606Y-78882036D01*
X150204606Y-78882036D02*
X150252225Y-78786798D01*
X150252225Y-78786798D02*
X150252225Y-78501084D01*
X150252225Y-78501084D02*
X150204606Y-78405846D01*
X150204606Y-78405846D02*
X150156987Y-78358227D01*
X150156987Y-78358227D02*
X150061749Y-78310608D01*
X150061749Y-78310608D02*
X149871273Y-78310608D01*
X149871273Y-78310608D02*
X149776035Y-78358227D01*
X149156987Y-78977275D02*
X149252225Y-78929656D01*
X149252225Y-78929656D02*
X149299844Y-78882036D01*
X149299844Y-78882036D02*
X149347463Y-78786798D01*
X149347463Y-78786798D02*
X149347463Y-78501084D01*
X149347463Y-78501084D02*
X149299844Y-78405846D01*
X149299844Y-78405846D02*
X149252225Y-78358227D01*
X149252225Y-78358227D02*
X149156987Y-78310608D01*
X149156987Y-78310608D02*
X149014130Y-78310608D01*
X149014130Y-78310608D02*
X148918892Y-78358227D01*
X148918892Y-78358227D02*
X148871273Y-78405846D01*
X148871273Y-78405846D02*
X148823654Y-78501084D01*
X148823654Y-78501084D02*
X148823654Y-78786798D01*
X148823654Y-78786798D02*
X148871273Y-78882036D01*
X148871273Y-78882036D02*
X148918892Y-78929656D01*
X148918892Y-78929656D02*
X149014130Y-78977275D01*
X149014130Y-78977275D02*
X149156987Y-78977275D01*
X148395082Y-78977275D02*
X148395082Y-78310608D01*
X148395082Y-78501084D02*
X148347463Y-78405846D01*
X148347463Y-78405846D02*
X148299844Y-78358227D01*
X148299844Y-78358227D02*
X148204606Y-78310608D01*
X148204606Y-78310608D02*
X148109368Y-78310608D01*
X147347463Y-78977275D02*
X147347463Y-78453465D01*
X147347463Y-78453465D02*
X147395082Y-78358227D01*
X147395082Y-78358227D02*
X147490320Y-78310608D01*
X147490320Y-78310608D02*
X147680796Y-78310608D01*
X147680796Y-78310608D02*
X147776034Y-78358227D01*
X147347463Y-78929656D02*
X147442701Y-78977275D01*
X147442701Y-78977275D02*
X147680796Y-78977275D01*
X147680796Y-78977275D02*
X147776034Y-78929656D01*
X147776034Y-78929656D02*
X147823653Y-78834417D01*
X147823653Y-78834417D02*
X147823653Y-78739179D01*
X147823653Y-78739179D02*
X147776034Y-78643941D01*
X147776034Y-78643941D02*
X147680796Y-78596322D01*
X147680796Y-78596322D02*
X147442701Y-78596322D01*
X147442701Y-78596322D02*
X147347463Y-78548703D01*
X146442701Y-78310608D02*
X146442701Y-79120132D01*
X146442701Y-79120132D02*
X146490320Y-79215370D01*
X146490320Y-79215370D02*
X146537939Y-79262989D01*
X146537939Y-79262989D02*
X146633177Y-79310608D01*
X146633177Y-79310608D02*
X146776034Y-79310608D01*
X146776034Y-79310608D02*
X146871272Y-79262989D01*
X146442701Y-78929656D02*
X146537939Y-78977275D01*
X146537939Y-78977275D02*
X146728415Y-78977275D01*
X146728415Y-78977275D02*
X146823653Y-78929656D01*
X146823653Y-78929656D02*
X146871272Y-78882036D01*
X146871272Y-78882036D02*
X146918891Y-78786798D01*
X146918891Y-78786798D02*
X146918891Y-78501084D01*
X146918891Y-78501084D02*
X146871272Y-78405846D01*
X146871272Y-78405846D02*
X146823653Y-78358227D01*
X146823653Y-78358227D02*
X146728415Y-78310608D01*
X146728415Y-78310608D02*
X146537939Y-78310608D01*
X146537939Y-78310608D02*
X146442701Y-78358227D01*
X145537939Y-78977275D02*
X145537939Y-78453465D01*
X145537939Y-78453465D02*
X145585558Y-78358227D01*
X145585558Y-78358227D02*
X145680796Y-78310608D01*
X145680796Y-78310608D02*
X145871272Y-78310608D01*
X145871272Y-78310608D02*
X145966510Y-78358227D01*
X145537939Y-78929656D02*
X145633177Y-78977275D01*
X145633177Y-78977275D02*
X145871272Y-78977275D01*
X145871272Y-78977275D02*
X145966510Y-78929656D01*
X145966510Y-78929656D02*
X146014129Y-78834417D01*
X146014129Y-78834417D02*
X146014129Y-78739179D01*
X146014129Y-78739179D02*
X145966510Y-78643941D01*
X145966510Y-78643941D02*
X145871272Y-78596322D01*
X145871272Y-78596322D02*
X145633177Y-78596322D01*
X145633177Y-78596322D02*
X145537939Y-78548703D01*
X145109367Y-78929656D02*
X145014129Y-78977275D01*
X145014129Y-78977275D02*
X144823653Y-78977275D01*
X144823653Y-78977275D02*
X144728415Y-78929656D01*
X144728415Y-78929656D02*
X144680796Y-78834417D01*
X144680796Y-78834417D02*
X144680796Y-78786798D01*
X144680796Y-78786798D02*
X144728415Y-78691560D01*
X144728415Y-78691560D02*
X144823653Y-78643941D01*
X144823653Y-78643941D02*
X144966510Y-78643941D01*
X144966510Y-78643941D02*
X145061748Y-78596322D01*
X145061748Y-78596322D02*
X145109367Y-78501084D01*
X145109367Y-78501084D02*
X145109367Y-78453465D01*
X145109367Y-78453465D02*
X145061748Y-78358227D01*
X145061748Y-78358227D02*
X144966510Y-78310608D01*
X144966510Y-78310608D02*
X144823653Y-78310608D01*
X144823653Y-78310608D02*
X144728415Y-78358227D01*
X143823653Y-78310608D02*
X143823653Y-78977275D01*
X144252224Y-78310608D02*
X144252224Y-78834417D01*
X144252224Y-78834417D02*
X144204605Y-78929656D01*
X144204605Y-78929656D02*
X144109367Y-78977275D01*
X144109367Y-78977275D02*
X143966510Y-78977275D01*
X143966510Y-78977275D02*
X143871272Y-78929656D01*
X143871272Y-78929656D02*
X143823653Y-78882036D01*
X143442700Y-79358227D02*
X143395081Y-79310608D01*
X143395081Y-79310608D02*
X143299843Y-79167751D01*
X143299843Y-79167751D02*
X143252224Y-79072513D01*
X143252224Y-79072513D02*
X143204605Y-78929656D01*
X143204605Y-78929656D02*
X143156986Y-78691560D01*
X143156986Y-78691560D02*
X143156986Y-78501084D01*
X143156986Y-78501084D02*
X143204605Y-78262989D01*
X143204605Y-78262989D02*
X143252224Y-78120132D01*
X143252224Y-78120132D02*
X143299843Y-78024894D01*
X143299843Y-78024894D02*
X143395081Y-77882036D01*
X143395081Y-77882036D02*
X143442700Y-77834417D01*
X168537945Y-79682457D02*
X168490326Y-79634838D01*
X168490326Y-79634838D02*
X168395088Y-79587219D01*
X168395088Y-79587219D02*
X168156993Y-79587219D01*
X168156993Y-79587219D02*
X168061755Y-79634838D01*
X168061755Y-79634838D02*
X168014136Y-79682457D01*
X168014136Y-79682457D02*
X167966517Y-79777695D01*
X167966517Y-79777695D02*
X167966517Y-79872933D01*
X167966517Y-79872933D02*
X168014136Y-80015790D01*
X168014136Y-80015790D02*
X168585564Y-80587219D01*
X168585564Y-80587219D02*
X167966517Y-80587219D01*
X167347469Y-79587219D02*
X167252231Y-79587219D01*
X167252231Y-79587219D02*
X167156993Y-79634838D01*
X167156993Y-79634838D02*
X167109374Y-79682457D01*
X167109374Y-79682457D02*
X167061755Y-79777695D01*
X167061755Y-79777695D02*
X167014136Y-79968171D01*
X167014136Y-79968171D02*
X167014136Y-80206266D01*
X167014136Y-80206266D02*
X167061755Y-80396742D01*
X167061755Y-80396742D02*
X167109374Y-80491980D01*
X167109374Y-80491980D02*
X167156993Y-80539600D01*
X167156993Y-80539600D02*
X167252231Y-80587219D01*
X167252231Y-80587219D02*
X167347469Y-80587219D01*
X167347469Y-80587219D02*
X167442707Y-80539600D01*
X167442707Y-80539600D02*
X167490326Y-80491980D01*
X167490326Y-80491980D02*
X167537945Y-80396742D01*
X167537945Y-80396742D02*
X167585564Y-80206266D01*
X167585564Y-80206266D02*
X167585564Y-79968171D01*
X167585564Y-79968171D02*
X167537945Y-79777695D01*
X167537945Y-79777695D02*
X167490326Y-79682457D01*
X167490326Y-79682457D02*
X167442707Y-79634838D01*
X167442707Y-79634838D02*
X167347469Y-79587219D01*
X166633183Y-79682457D02*
X166585564Y-79634838D01*
X166585564Y-79634838D02*
X166490326Y-79587219D01*
X166490326Y-79587219D02*
X166252231Y-79587219D01*
X166252231Y-79587219D02*
X166156993Y-79634838D01*
X166156993Y-79634838D02*
X166109374Y-79682457D01*
X166109374Y-79682457D02*
X166061755Y-79777695D01*
X166061755Y-79777695D02*
X166061755Y-79872933D01*
X166061755Y-79872933D02*
X166109374Y-80015790D01*
X166109374Y-80015790D02*
X166680802Y-80587219D01*
X166680802Y-80587219D02*
X166061755Y-80587219D01*
X165204612Y-79587219D02*
X165395088Y-79587219D01*
X165395088Y-79587219D02*
X165490326Y-79634838D01*
X165490326Y-79634838D02*
X165537945Y-79682457D01*
X165537945Y-79682457D02*
X165633183Y-79825314D01*
X165633183Y-79825314D02*
X165680802Y-80015790D01*
X165680802Y-80015790D02*
X165680802Y-80396742D01*
X165680802Y-80396742D02*
X165633183Y-80491980D01*
X165633183Y-80491980D02*
X165585564Y-80539600D01*
X165585564Y-80539600D02*
X165490326Y-80587219D01*
X165490326Y-80587219D02*
X165299850Y-80587219D01*
X165299850Y-80587219D02*
X165204612Y-80539600D01*
X165204612Y-80539600D02*
X165156993Y-80491980D01*
X165156993Y-80491980D02*
X165109374Y-80396742D01*
X165109374Y-80396742D02*
X165109374Y-80158647D01*
X165109374Y-80158647D02*
X165156993Y-80063409D01*
X165156993Y-80063409D02*
X165204612Y-80015790D01*
X165204612Y-80015790D02*
X165299850Y-79968171D01*
X165299850Y-79968171D02*
X165490326Y-79968171D01*
X165490326Y-79968171D02*
X165585564Y-80015790D01*
X165585564Y-80015790D02*
X165633183Y-80063409D01*
X165633183Y-80063409D02*
X165680802Y-80158647D01*
X163966516Y-80539600D02*
X163823659Y-80587219D01*
X163823659Y-80587219D02*
X163585564Y-80587219D01*
X163585564Y-80587219D02*
X163490326Y-80539600D01*
X163490326Y-80539600D02*
X163442707Y-80491980D01*
X163442707Y-80491980D02*
X163395088Y-80396742D01*
X163395088Y-80396742D02*
X163395088Y-80301504D01*
X163395088Y-80301504D02*
X163442707Y-80206266D01*
X163442707Y-80206266D02*
X163490326Y-80158647D01*
X163490326Y-80158647D02*
X163585564Y-80111028D01*
X163585564Y-80111028D02*
X163776040Y-80063409D01*
X163776040Y-80063409D02*
X163871278Y-80015790D01*
X163871278Y-80015790D02*
X163918897Y-79968171D01*
X163918897Y-79968171D02*
X163966516Y-79872933D01*
X163966516Y-79872933D02*
X163966516Y-79777695D01*
X163966516Y-79777695D02*
X163918897Y-79682457D01*
X163918897Y-79682457D02*
X163871278Y-79634838D01*
X163871278Y-79634838D02*
X163776040Y-79587219D01*
X163776040Y-79587219D02*
X163537945Y-79587219D01*
X163537945Y-79587219D02*
X163395088Y-79634838D01*
X162966516Y-80587219D02*
X162966516Y-79587219D01*
X162966516Y-79587219D02*
X162633183Y-80301504D01*
X162633183Y-80301504D02*
X162299850Y-79587219D01*
X162299850Y-79587219D02*
X162299850Y-80587219D01*
X161871278Y-80539600D02*
X161728421Y-80587219D01*
X161728421Y-80587219D02*
X161490326Y-80587219D01*
X161490326Y-80587219D02*
X161395088Y-80539600D01*
X161395088Y-80539600D02*
X161347469Y-80491980D01*
X161347469Y-80491980D02*
X161299850Y-80396742D01*
X161299850Y-80396742D02*
X161299850Y-80301504D01*
X161299850Y-80301504D02*
X161347469Y-80206266D01*
X161347469Y-80206266D02*
X161395088Y-80158647D01*
X161395088Y-80158647D02*
X161490326Y-80111028D01*
X161490326Y-80111028D02*
X161680802Y-80063409D01*
X161680802Y-80063409D02*
X161776040Y-80015790D01*
X161776040Y-80015790D02*
X161823659Y-79968171D01*
X161823659Y-79968171D02*
X161871278Y-79872933D01*
X161871278Y-79872933D02*
X161871278Y-79777695D01*
X161871278Y-79777695D02*
X161823659Y-79682457D01*
X161823659Y-79682457D02*
X161776040Y-79634838D01*
X161776040Y-79634838D02*
X161680802Y-79587219D01*
X161680802Y-79587219D02*
X161442707Y-79587219D01*
X161442707Y-79587219D02*
X161299850Y-79634838D01*
X160871278Y-80587219D02*
X160871278Y-79587219D01*
X160871278Y-79587219D02*
X160490326Y-79587219D01*
X160490326Y-79587219D02*
X160395088Y-79634838D01*
X160395088Y-79634838D02*
X160347469Y-79682457D01*
X160347469Y-79682457D02*
X160299850Y-79777695D01*
X160299850Y-79777695D02*
X160299850Y-79920552D01*
X160299850Y-79920552D02*
X160347469Y-80015790D01*
X160347469Y-80015790D02*
X160395088Y-80063409D01*
X160395088Y-80063409D02*
X160490326Y-80111028D01*
X160490326Y-80111028D02*
X160871278Y-80111028D01*
X159728421Y-80587219D02*
X159823659Y-80539600D01*
X159823659Y-80539600D02*
X159871278Y-80491980D01*
X159871278Y-80491980D02*
X159918897Y-80396742D01*
X159918897Y-80396742D02*
X159918897Y-80111028D01*
X159918897Y-80111028D02*
X159871278Y-80015790D01*
X159871278Y-80015790D02*
X159823659Y-79968171D01*
X159823659Y-79968171D02*
X159728421Y-79920552D01*
X159728421Y-79920552D02*
X159585564Y-79920552D01*
X159585564Y-79920552D02*
X159490326Y-79968171D01*
X159490326Y-79968171D02*
X159442707Y-80015790D01*
X159442707Y-80015790D02*
X159395088Y-80111028D01*
X159395088Y-80111028D02*
X159395088Y-80396742D01*
X159395088Y-80396742D02*
X159442707Y-80491980D01*
X159442707Y-80491980D02*
X159490326Y-80539600D01*
X159490326Y-80539600D02*
X159585564Y-80587219D01*
X159585564Y-80587219D02*
X159728421Y-80587219D01*
X159061754Y-79920552D02*
X158871278Y-80587219D01*
X158871278Y-80587219D02*
X158680802Y-80111028D01*
X158680802Y-80111028D02*
X158490326Y-80587219D01*
X158490326Y-80587219D02*
X158299850Y-79920552D01*
X157537945Y-80539600D02*
X157633183Y-80587219D01*
X157633183Y-80587219D02*
X157823659Y-80587219D01*
X157823659Y-80587219D02*
X157918897Y-80539600D01*
X157918897Y-80539600D02*
X157966516Y-80444361D01*
X157966516Y-80444361D02*
X157966516Y-80063409D01*
X157966516Y-80063409D02*
X157918897Y-79968171D01*
X157918897Y-79968171D02*
X157823659Y-79920552D01*
X157823659Y-79920552D02*
X157633183Y-79920552D01*
X157633183Y-79920552D02*
X157537945Y-79968171D01*
X157537945Y-79968171D02*
X157490326Y-80063409D01*
X157490326Y-80063409D02*
X157490326Y-80158647D01*
X157490326Y-80158647D02*
X157966516Y-80253885D01*
X157061754Y-80587219D02*
X157061754Y-79920552D01*
X157061754Y-80111028D02*
X157014135Y-80015790D01*
X157014135Y-80015790D02*
X156966516Y-79968171D01*
X156966516Y-79968171D02*
X156871278Y-79920552D01*
X156871278Y-79920552D02*
X156776040Y-79920552D01*
X156442706Y-80491980D02*
X156395087Y-80539600D01*
X156395087Y-80539600D02*
X156442706Y-80587219D01*
X156442706Y-80587219D02*
X156490325Y-80539600D01*
X156490325Y-80539600D02*
X156442706Y-80491980D01*
X156442706Y-80491980D02*
X156442706Y-80587219D01*
X156442706Y-80206266D02*
X156490325Y-79634838D01*
X156490325Y-79634838D02*
X156442706Y-79587219D01*
X156442706Y-79587219D02*
X156395087Y-79634838D01*
X156395087Y-79634838D02*
X156442706Y-80206266D01*
X156442706Y-80206266D02*
X156442706Y-79587219D01*
D12*
X115445213Y-76543775D02*
X115902356Y-76543775D01*
X115673784Y-76543775D02*
X115673784Y-75743775D01*
X115673784Y-75743775D02*
X115749975Y-75858060D01*
X115749975Y-75858060D02*
X115826165Y-75934251D01*
X115826165Y-75934251D02*
X115902356Y-75972346D01*
X115102355Y-76467584D02*
X115064260Y-76505680D01*
X115064260Y-76505680D02*
X115102355Y-76543775D01*
X115102355Y-76543775D02*
X115140451Y-76505680D01*
X115140451Y-76505680D02*
X115102355Y-76467584D01*
X115102355Y-76467584D02*
X115102355Y-76543775D01*
X114569022Y-75743775D02*
X114492832Y-75743775D01*
X114492832Y-75743775D02*
X114416641Y-75781870D01*
X114416641Y-75781870D02*
X114378546Y-75819965D01*
X114378546Y-75819965D02*
X114340451Y-75896156D01*
X114340451Y-75896156D02*
X114302356Y-76048537D01*
X114302356Y-76048537D02*
X114302356Y-76239013D01*
X114302356Y-76239013D02*
X114340451Y-76391394D01*
X114340451Y-76391394D02*
X114378546Y-76467584D01*
X114378546Y-76467584D02*
X114416641Y-76505680D01*
X114416641Y-76505680D02*
X114492832Y-76543775D01*
X114492832Y-76543775D02*
X114569022Y-76543775D01*
X114569022Y-76543775D02*
X114645213Y-76505680D01*
X114645213Y-76505680D02*
X114683308Y-76467584D01*
X114683308Y-76467584D02*
X114721403Y-76391394D01*
X114721403Y-76391394D02*
X114759499Y-76239013D01*
X114759499Y-76239013D02*
X114759499Y-76048537D01*
X114759499Y-76048537D02*
X114721403Y-75896156D01*
X114721403Y-75896156D02*
X114683308Y-75819965D01*
X114683308Y-75819965D02*
X114645213Y-75781870D01*
X114645213Y-75781870D02*
X114569022Y-75743775D01*
D13*
G36*
X123871488Y-93757233D02*
G01*
X123829013Y-93799567D01*
X123786539Y-93757233D01*
X123829013Y-93714900D01*
X123871488Y-93757233D01*
G37*
G36*
X125485535Y-99429900D02*
G01*
X125443060Y-99472233D01*
X125400585Y-99429900D01*
X125443060Y-99387567D01*
X125485535Y-99429900D01*
G37*
G36*
X123418423Y-97553122D02*
G01*
X123431713Y-97578588D01*
X123361789Y-97609567D01*
X123316817Y-97603456D01*
X123305156Y-97553122D01*
X123317607Y-97542989D01*
X123418423Y-97553122D01*
G37*
G36*
X127071265Y-97045122D02*
G01*
X127084556Y-97070588D01*
X127014632Y-97101567D01*
X126969660Y-97095456D01*
X126957999Y-97045122D01*
X126970450Y-97034989D01*
X127071265Y-97045122D01*
G37*
G36*
X128219858Y-99329730D02*
G01*
X128259178Y-99360205D01*
X128168534Y-99380882D01*
X128082373Y-99374896D01*
X128057037Y-99336414D01*
X128087092Y-99319636D01*
X128219858Y-99329730D01*
G37*
G36*
X131595217Y-95443511D02*
G01*
X131589210Y-95529385D01*
X131550599Y-95554636D01*
X131533766Y-95524682D01*
X131543893Y-95392358D01*
X131574470Y-95353169D01*
X131595217Y-95443511D01*
G37*
G36*
X131765116Y-95189511D02*
G01*
X131759110Y-95275385D01*
X131720499Y-95300636D01*
X131703665Y-95270682D01*
X131713792Y-95138358D01*
X131744370Y-95099169D01*
X131765116Y-95189511D01*
G37*
G36*
X124067792Y-93734317D02*
G01*
X124192073Y-93835235D01*
X124272388Y-93920863D01*
X124278912Y-93948034D01*
X124151439Y-93875733D01*
X124036499Y-93790133D01*
X124004799Y-93723145D01*
X124067792Y-93734317D01*
G37*
G36*
X129095415Y-95123429D02*
G01*
X129152655Y-95158326D01*
X129174495Y-95249153D01*
X129126395Y-95285880D01*
X129022499Y-95259238D01*
X128968478Y-95151894D01*
X128986208Y-95119540D01*
X129095415Y-95123429D01*
G37*
G36*
X120620989Y-98056811D02*
G01*
X120680142Y-98071843D01*
X120623765Y-98087015D01*
X120431020Y-98093351D01*
X120273358Y-98090579D01*
X120162057Y-98077797D01*
X120196240Y-98057967D01*
X120369760Y-98042883D01*
X120620989Y-98056811D01*
G37*
G36*
X121628931Y-98629463D02*
G01*
X121705268Y-98710233D01*
X121718541Y-98743030D01*
X121667806Y-98794900D01*
X121643148Y-98791646D01*
X121577843Y-98710233D01*
X121578817Y-98691072D01*
X121615304Y-98625567D01*
X121628931Y-98629463D01*
G37*
G36*
X122066304Y-98905870D02*
G01*
X122090407Y-98913786D01*
X122072193Y-98935763D01*
X121917642Y-98944590D01*
X121860005Y-98943771D01*
X121742541Y-98930411D01*
X121768980Y-98905870D01*
X121850852Y-98892703D01*
X122066304Y-98905870D01*
G37*
G36*
X127286640Y-98134965D02*
G01*
X127311957Y-98202233D01*
X127254261Y-98249118D01*
X127089555Y-98286900D01*
X126997474Y-98269501D01*
X126972157Y-98202233D01*
X127029853Y-98155348D01*
X127194559Y-98117567D01*
X127286640Y-98134965D01*
G37*
G36*
X131432024Y-94603900D02*
G01*
X131475472Y-94826203D01*
X131498455Y-95069567D01*
X131500038Y-95281233D01*
X131432024Y-95069567D01*
X131388175Y-94870474D01*
X131365592Y-94603900D01*
X131367175Y-94349900D01*
X131432024Y-94603900D01*
G37*
G36*
X131601923Y-94519233D02*
G01*
X131640396Y-94635513D01*
X131672435Y-94857900D01*
X131670085Y-94916655D01*
X131650671Y-94944584D01*
X131601923Y-94815567D01*
X131550011Y-94618851D01*
X131532159Y-94478700D01*
X131549463Y-94433749D01*
X131601923Y-94519233D01*
G37*
G36*
X126101290Y-85784797D02*
G01*
X126197137Y-85911023D01*
X126150666Y-86116067D01*
X126134118Y-86143707D01*
X125990838Y-86247307D01*
X125824191Y-86246357D01*
X125709665Y-86137233D01*
X125684959Y-85990720D01*
X125763744Y-85822542D01*
X125954769Y-85756233D01*
X126101290Y-85784797D01*
G37*
G36*
X130629441Y-85789094D02*
G01*
X130735512Y-85931681D01*
X130721705Y-86137233D01*
X130693653Y-86186579D01*
X130555256Y-86259189D01*
X130393827Y-86226465D01*
X130285442Y-86095657D01*
X130261337Y-85973849D01*
X130317928Y-85812259D01*
X130505255Y-85756233D01*
X130629441Y-85789094D01*
G37*
G36*
X133461537Y-97887755D02*
G01*
X133348396Y-97983655D01*
X133122599Y-98078988D01*
X132753747Y-98105646D01*
X132323997Y-98093725D01*
X132748746Y-98034610D01*
X132888646Y-98013203D01*
X133159871Y-97961382D01*
X133343395Y-97912619D01*
X133441104Y-97877960D01*
X133461537Y-97887755D01*
G37*
G36*
X124518965Y-94532947D02*
G01*
X124523212Y-94773233D01*
X124523065Y-94839503D01*
X124517591Y-95059958D01*
X124505798Y-95150978D01*
X124489776Y-95092622D01*
X124488605Y-95082888D01*
X124475498Y-94798949D01*
X124489091Y-94499955D01*
X124493321Y-94464339D01*
X124508308Y-94424425D01*
X124518965Y-94532947D01*
G37*
G36*
X129193940Y-94353811D02*
G01*
X129267213Y-94479324D01*
X129240482Y-94600914D01*
X129218784Y-94614774D01*
X129154130Y-94566331D01*
X129139284Y-94538549D01*
X129046173Y-94523702D01*
X129006423Y-94529479D01*
X128968478Y-94439563D01*
X128983242Y-94375914D01*
X129086814Y-94307567D01*
X129193940Y-94353811D01*
G37*
G36*
X121801922Y-94478636D02*
G01*
X121777457Y-94668383D01*
X121727524Y-94933999D01*
X121676311Y-95149445D01*
X121625171Y-95304458D01*
X121593462Y-95327935D01*
X121589908Y-95258611D01*
X121612342Y-95077561D01*
X121656482Y-94848929D01*
X121710268Y-94626425D01*
X121761640Y-94463758D01*
X121798538Y-94414637D01*
X121801922Y-94478636D01*
G37*
G36*
X121987654Y-94530552D02*
G01*
X121988314Y-94674774D01*
X121960117Y-94900233D01*
X121942992Y-94992062D01*
X121898774Y-95162901D01*
X121863916Y-95213575D01*
X121856594Y-95193673D01*
X121856623Y-95049854D01*
X121883662Y-94824033D01*
X121900493Y-94729884D01*
X121944073Y-94559809D01*
X121979864Y-94510692D01*
X121987654Y-94530552D01*
G37*
G36*
X125329514Y-94413380D02*
G01*
X125380396Y-94554402D01*
X125400585Y-94815567D01*
X125397584Y-94967888D01*
X125381445Y-95162702D01*
X125356008Y-95238900D01*
X125350517Y-95238385D01*
X125278705Y-95154523D01*
X125215581Y-94973447D01*
X125178574Y-94761754D01*
X125185118Y-94586038D01*
X125193792Y-94553671D01*
X125262469Y-94407977D01*
X125329514Y-94413380D01*
G37*
G36*
X125156049Y-97500467D02*
G01*
X125697910Y-97555470D01*
X126632358Y-97670146D01*
X125060786Y-97661023D01*
X125009553Y-97660713D01*
X124546083Y-97656607D01*
X124171891Y-97650945D01*
X123907133Y-97644223D01*
X123771964Y-97636939D01*
X123786539Y-97629590D01*
X123817179Y-97627016D01*
X124117102Y-97585902D01*
X124423662Y-97524038D01*
X124464398Y-97514996D01*
X124753331Y-97487184D01*
X125156049Y-97500467D01*
G37*
G36*
X125656849Y-97885835D02*
G01*
X125787107Y-97940015D01*
X125857827Y-97988180D01*
X126037709Y-98059443D01*
X126072562Y-98070793D01*
X126037164Y-98082283D01*
X125867809Y-98073696D01*
X125820965Y-98069826D01*
X125548263Y-98050121D01*
X125336873Y-98038935D01*
X125217901Y-98016656D01*
X125145736Y-97948233D01*
X125156564Y-97923595D01*
X125273028Y-97878503D01*
X125462640Y-97865624D01*
X125656849Y-97885835D01*
G37*
G36*
X124957827Y-98221980D02*
G01*
X125253639Y-98235079D01*
X125512649Y-98257037D01*
X125697910Y-98287679D01*
X125751090Y-98306111D01*
X125718706Y-98331744D01*
X125516951Y-98346519D01*
X125145736Y-98350445D01*
X124957838Y-98348075D01*
X124604930Y-98333971D01*
X124325926Y-98310260D01*
X124168813Y-98280383D01*
X124145466Y-98261710D01*
X124219031Y-98237606D01*
X124403577Y-98223068D01*
X124662157Y-98217918D01*
X124957827Y-98221980D01*
G37*
G36*
X121181077Y-96001825D02*
G01*
X121182399Y-96064956D01*
X121082952Y-96196857D01*
X120936750Y-96410570D01*
X120914318Y-96661620D01*
X121059317Y-96911112D01*
X121372923Y-97162964D01*
X121448109Y-97214057D01*
X121440375Y-97229407D01*
X121287442Y-97180802D01*
X121121451Y-97105847D01*
X120895439Y-96889662D01*
X120815996Y-96591239D01*
X120829638Y-96471616D01*
X120912881Y-96251343D01*
X121039700Y-96073820D01*
X121172719Y-96000900D01*
X121181077Y-96001825D01*
G37*
G36*
X129455502Y-97870031D02*
G01*
X129456609Y-97904598D01*
X129355934Y-97990099D01*
X129134596Y-98149363D01*
X129132265Y-98151010D01*
X128956536Y-98258213D01*
X128771838Y-98320375D01*
X128524652Y-98348795D01*
X128161455Y-98354768D01*
X127481856Y-98352471D01*
X128210028Y-98256185D01*
X128540659Y-98203928D01*
X128894378Y-98114528D01*
X129086832Y-98011733D01*
X129208322Y-97919895D01*
X129370979Y-97863567D01*
X129371497Y-97863567D01*
X129455502Y-97870031D01*
G37*
G36*
X132173397Y-96028056D02*
G01*
X132300411Y-96165512D01*
X132406808Y-96361658D01*
X132451422Y-96551233D01*
X132390445Y-96784340D01*
X132221109Y-97026676D01*
X131996345Y-97186946D01*
X131917505Y-97217892D01*
X131789900Y-97256357D01*
X131807838Y-97214876D01*
X131969594Y-97087006D01*
X132038205Y-97033042D01*
X132260512Y-96773517D01*
X132313972Y-96508127D01*
X132198066Y-96238806D01*
X132171607Y-96201780D01*
X132093305Y-96058804D01*
X132104262Y-96000900D01*
X132173397Y-96028056D01*
G37*
G36*
X127764115Y-90962329D02*
G01*
X127766216Y-90964479D01*
X127772160Y-91033253D01*
X127650385Y-91114599D01*
X127381990Y-91221328D01*
X127352884Y-91231225D01*
X127029628Y-91299436D01*
X126661468Y-91320683D01*
X126291023Y-91299567D01*
X125960912Y-91240691D01*
X125713754Y-91148657D01*
X125592168Y-91028066D01*
X125602991Y-90982265D01*
X125718398Y-90983668D01*
X125967634Y-91049124D01*
X126333082Y-91136802D01*
X126851323Y-91160361D01*
X127357002Y-91046996D01*
X127466055Y-91011252D01*
X127665436Y-90962041D01*
X127764115Y-90962329D01*
G37*
G36*
X130601860Y-99153996D02*
G01*
X131002311Y-99162610D01*
X131315111Y-99179774D01*
X131499245Y-99205506D01*
X131507376Y-99208479D01*
X131461467Y-99225020D01*
X131271342Y-99239373D01*
X130958943Y-99250696D01*
X130546214Y-99258148D01*
X130055098Y-99260888D01*
X129945413Y-99260808D01*
X129471822Y-99257547D01*
X129121408Y-99249931D01*
X128905848Y-99238523D01*
X128836821Y-99223885D01*
X128926003Y-99206577D01*
X128943858Y-99204705D01*
X129284758Y-99179287D01*
X129702068Y-99162352D01*
X130154774Y-99153916D01*
X130601860Y-99153996D01*
G37*
G36*
X123199137Y-97654448D02*
G01*
X123418442Y-97710012D01*
X123769821Y-97759739D01*
X124132005Y-97778900D01*
X124398005Y-97786370D01*
X124667982Y-97827772D01*
X124786724Y-97908711D01*
X124763462Y-98032900D01*
X124735015Y-98055873D01*
X124573787Y-98100031D01*
X124333699Y-98117567D01*
X124223990Y-98113893D01*
X124032304Y-98083672D01*
X123956438Y-98032900D01*
X123902283Y-97976880D01*
X123741335Y-97948233D01*
X123533825Y-97919874D01*
X123269615Y-97838194D01*
X123035969Y-97729569D01*
X122901503Y-97620754D01*
X122898514Y-97598160D01*
X122991573Y-97594951D01*
X123199137Y-97654448D01*
G37*
G36*
X123004412Y-99154734D02*
G01*
X123465099Y-99169722D01*
X123915855Y-99193266D01*
X124320666Y-99224185D01*
X124643522Y-99261300D01*
X124848411Y-99303431D01*
X124912194Y-99324703D01*
X125012628Y-99363573D01*
X124966728Y-99368887D01*
X124763462Y-99346203D01*
X124662961Y-99337565D01*
X124379573Y-99324089D01*
X123986416Y-99312895D01*
X123521288Y-99304959D01*
X123021990Y-99301257D01*
X122859410Y-99300664D01*
X122374314Y-99295348D01*
X122039532Y-99284141D01*
X121839764Y-99265830D01*
X121759707Y-99239201D01*
X121784061Y-99203040D01*
X121922876Y-99172898D01*
X122197289Y-99155142D01*
X122569805Y-99149480D01*
X123004412Y-99154734D01*
G37*
G36*
X118687737Y-96318268D02*
G01*
X118675620Y-96483047D01*
X118617835Y-96740849D01*
X118517912Y-97064265D01*
X118346275Y-97561474D01*
X118655288Y-97268020D01*
X118964301Y-96974567D01*
X118834526Y-97228567D01*
X118735919Y-97383904D01*
X118543044Y-97631516D01*
X118316305Y-97884733D01*
X118116405Y-98081490D01*
X117945287Y-98230077D01*
X117851281Y-98286900D01*
X117847279Y-98285997D01*
X117854273Y-98204219D01*
X117928640Y-98015830D01*
X118056098Y-97757733D01*
X118194637Y-97472107D01*
X118343062Y-97109505D01*
X118440121Y-96805233D01*
X118480410Y-96652985D01*
X118555033Y-96425536D01*
X118616149Y-96301466D01*
X118650658Y-96273922D01*
X118687737Y-96318268D01*
G37*
G36*
X123999521Y-94029364D02*
G01*
X124224189Y-94166476D01*
X124344727Y-94399400D01*
X124379887Y-94758114D01*
X124372215Y-95022993D01*
X124331149Y-95229375D01*
X124231038Y-95374642D01*
X124046178Y-95517261D01*
X123922018Y-95594426D01*
X123808613Y-95609413D01*
X123685141Y-95520398D01*
X123556227Y-95368945D01*
X123552194Y-95269727D01*
X123680351Y-95252631D01*
X123826268Y-95256301D01*
X123954786Y-95175143D01*
X124021989Y-94974623D01*
X124041388Y-94631499D01*
X124041388Y-94118758D01*
X123832002Y-94255496D01*
X123658261Y-94353355D01*
X123499677Y-94380640D01*
X123446739Y-94275600D01*
X123508997Y-94116006D01*
X123682128Y-94007504D01*
X123906920Y-94001906D01*
X123999521Y-94029364D01*
G37*
G36*
X134303629Y-95422539D02*
G01*
X134369452Y-95614386D01*
X134446708Y-95891361D01*
X134523118Y-96176547D01*
X134650704Y-96620655D01*
X134773095Y-97016900D01*
X134952211Y-97567233D01*
X134999664Y-97178915D01*
X135007981Y-97122277D01*
X135076228Y-96855757D01*
X135178124Y-96602725D01*
X135290195Y-96413791D01*
X135388966Y-96339567D01*
X135383602Y-96391629D01*
X135302058Y-96527739D01*
X135288031Y-96549179D01*
X135197249Y-96821883D01*
X135175519Y-97196422D01*
X135221822Y-97625539D01*
X135335140Y-98061979D01*
X135411789Y-98314372D01*
X135436532Y-98488343D01*
X135401028Y-98539048D01*
X135317434Y-98479877D01*
X135197903Y-98324217D01*
X135054591Y-98085458D01*
X134899653Y-97776989D01*
X134745243Y-97412197D01*
X134645922Y-97127585D01*
X134537781Y-96767122D01*
X134435540Y-96383246D01*
X134347939Y-96013033D01*
X134283716Y-95693555D01*
X134251609Y-95461887D01*
X134260358Y-95355104D01*
X134262464Y-95353879D01*
X134303629Y-95422539D01*
G37*
G36*
X129633101Y-94501126D02*
G01*
X129648077Y-94916415D01*
X129644461Y-95195131D01*
X129626038Y-95427783D01*
X129586713Y-95545167D01*
X129520652Y-95577567D01*
X129509047Y-95577031D01*
X129420859Y-95500406D01*
X129393228Y-95281233D01*
X129393148Y-95248828D01*
X129375806Y-95068470D01*
X129292144Y-94997360D01*
X129090469Y-94984900D01*
X129057839Y-94984971D01*
X128875091Y-95000377D01*
X128809542Y-95074202D01*
X128814382Y-95251674D01*
X128805521Y-95449462D01*
X128734866Y-95555063D01*
X128712283Y-95557578D01*
X128663283Y-95491716D01*
X128636692Y-95300012D01*
X128628679Y-94961040D01*
X128631548Y-94739772D01*
X128648843Y-94528971D01*
X128798579Y-94528971D01*
X128811866Y-94643175D01*
X128894290Y-94714553D01*
X129095903Y-94730900D01*
X129183637Y-94730143D01*
X129328649Y-94705433D01*
X129384226Y-94609069D01*
X129393228Y-94392233D01*
X129390984Y-94316293D01*
X129360354Y-94128671D01*
X129305289Y-94053567D01*
X129239950Y-94062071D01*
X129037678Y-94166478D01*
X128869087Y-94342253D01*
X128798579Y-94528971D01*
X128648843Y-94528971D01*
X128654850Y-94455757D01*
X128710664Y-94259891D01*
X128809777Y-94100941D01*
X128872519Y-94026842D01*
X129027742Y-93918389D01*
X129213289Y-93924823D01*
X129299628Y-93949572D01*
X129472480Y-94048729D01*
X129579103Y-94222238D01*
X129612017Y-94392233D01*
X129633101Y-94501126D01*
G37*
G36*
X117668622Y-88001289D02*
G01*
X117673234Y-88182024D01*
X117653154Y-88487489D01*
X117605227Y-88908210D01*
X117547607Y-89529905D01*
X117520068Y-90329932D01*
X117527281Y-91259567D01*
X117535186Y-91558509D01*
X117551689Y-92035548D01*
X117573297Y-92396192D01*
X117604555Y-92675513D01*
X117650012Y-92908579D01*
X117714214Y-93130463D01*
X117801707Y-93376233D01*
X117837070Y-93475176D01*
X118003844Y-94122293D01*
X118084395Y-94804024D01*
X118075027Y-95462562D01*
X117972044Y-96040101D01*
X117913673Y-96262954D01*
X117874524Y-96474823D01*
X117878384Y-96575328D01*
X117898086Y-96579723D01*
X118013442Y-96520490D01*
X118180736Y-96381054D01*
X118248866Y-96318856D01*
X118381142Y-96220032D01*
X118432810Y-96217893D01*
X118421550Y-96269956D01*
X118305169Y-96455153D01*
X118087220Y-96684012D01*
X117798170Y-96922696D01*
X117676011Y-97009763D01*
X117508544Y-97115849D01*
X117430870Y-97145305D01*
X117429275Y-97142890D01*
X117450529Y-97047600D01*
X117529609Y-96872847D01*
X117759299Y-96271023D01*
X117885442Y-95573683D01*
X117905733Y-94824287D01*
X117819071Y-94063978D01*
X117624354Y-93333900D01*
X117586422Y-93226273D01*
X117513584Y-93005132D01*
X117460515Y-92801972D01*
X117423974Y-92585575D01*
X117400720Y-92324722D01*
X117387514Y-91988194D01*
X117381115Y-91544770D01*
X117378283Y-90963233D01*
X117383055Y-90244099D01*
X117403965Y-89554828D01*
X117440175Y-88986827D01*
X117490573Y-88563877D01*
X117538168Y-88302183D01*
X117597935Y-88051895D01*
X117642470Y-87954755D01*
X117668622Y-88001289D01*
G37*
G36*
X135934520Y-96958105D02*
G01*
X135942240Y-96974567D01*
X136189976Y-97502867D01*
X136222862Y-97559135D01*
X136320023Y-97736134D01*
X136359114Y-97826073D01*
X136342749Y-97859037D01*
X136232318Y-97829733D01*
X136009268Y-97687103D01*
X136008836Y-97686797D01*
X135780272Y-97468959D01*
X135596223Y-97192867D01*
X135505125Y-96974567D01*
X135679515Y-96974567D01*
X135721990Y-97016900D01*
X135764465Y-96974567D01*
X135721990Y-96932233D01*
X135679515Y-96974567D01*
X135505125Y-96974567D01*
X135475363Y-96903248D01*
X135460572Y-96805233D01*
X135594565Y-96805233D01*
X135637040Y-96847567D01*
X135679515Y-96805233D01*
X135637040Y-96762900D01*
X135594565Y-96805233D01*
X135460572Y-96805233D01*
X135436367Y-96644827D01*
X135497909Y-96462333D01*
X135498643Y-96461494D01*
X135523617Y-96338557D01*
X135518508Y-96096713D01*
X135484254Y-95782694D01*
X135459358Y-95585964D01*
X135443997Y-95345206D01*
X135450725Y-95090914D01*
X135483054Y-94792861D01*
X135544496Y-94420825D01*
X135638562Y-93944579D01*
X135768763Y-93333900D01*
X135818478Y-92938069D01*
X135807237Y-92344872D01*
X135718158Y-91681977D01*
X135555141Y-90992150D01*
X135535583Y-90923779D01*
X135393251Y-90385951D01*
X135288200Y-89913455D01*
X135224490Y-89530134D01*
X135206183Y-89259834D01*
X135237342Y-89126400D01*
X135271422Y-89122508D01*
X135326704Y-89240381D01*
X135374028Y-89497413D01*
X135404306Y-89679706D01*
X135479224Y-90032827D01*
X135580504Y-90451222D01*
X135695055Y-90878567D01*
X135889546Y-91720833D01*
X135971071Y-92521853D01*
X135932091Y-93297930D01*
X135773752Y-94095900D01*
X135697552Y-94402686D01*
X135628119Y-94782686D01*
X135605613Y-95134229D01*
X135621807Y-95535233D01*
X135630557Y-95639137D01*
X135741758Y-96315081D01*
X135888693Y-96805233D01*
X135934520Y-96958105D01*
G37*
G36*
X126004323Y-97101567D02*
G01*
X126094355Y-97115415D01*
X126165134Y-97181809D01*
X126130236Y-97215274D01*
X125968363Y-97261980D01*
X125719147Y-97293147D01*
X125547253Y-97306212D01*
X125341146Y-97325728D01*
X125251923Y-97339905D01*
X125246604Y-97341121D01*
X125230686Y-97270900D01*
X125245062Y-97231951D01*
X125358110Y-97186233D01*
X125416730Y-97176681D01*
X125485535Y-97101567D01*
X125437511Y-97059233D01*
X125570485Y-97059233D01*
X125612960Y-97101567D01*
X125655435Y-97059233D01*
X125612960Y-97016900D01*
X125570485Y-97059233D01*
X125437511Y-97059233D01*
X125419130Y-97043030D01*
X125247676Y-97016900D01*
X125067282Y-96995294D01*
X124925395Y-96932760D01*
X124840015Y-96886820D01*
X124627286Y-96833655D01*
X124355974Y-96797098D01*
X124082258Y-96781865D01*
X123862316Y-96792675D01*
X123752324Y-96834245D01*
X123772577Y-96913579D01*
X123931726Y-96979490D01*
X124127091Y-97027791D01*
X124381187Y-97102288D01*
X124460073Y-97129789D01*
X124495085Y-97141995D01*
X124527003Y-97169835D01*
X124407438Y-97179549D01*
X124287494Y-97199894D01*
X124168813Y-97270900D01*
X124165728Y-97274816D01*
X124048130Y-97314780D01*
X123812251Y-97341664D01*
X123505438Y-97349836D01*
X123213385Y-97343735D01*
X123048498Y-97328307D01*
X123013901Y-97298905D01*
X123089209Y-97250672D01*
X123206328Y-97163474D01*
X123208449Y-97155255D01*
X123716615Y-97155255D01*
X123786539Y-97186233D01*
X123831511Y-97180123D01*
X123843172Y-97129789D01*
X123830721Y-97119656D01*
X123729905Y-97129789D01*
X123716615Y-97155255D01*
X123208449Y-97155255D01*
X123238406Y-97039199D01*
X123242301Y-96960254D01*
X123369875Y-96977124D01*
X123517676Y-96984484D01*
X123671482Y-96855661D01*
X123717611Y-96798899D01*
X123834959Y-96723384D01*
X124025989Y-96687401D01*
X124338516Y-96678233D01*
X124602079Y-96688429D01*
X124827137Y-96719028D01*
X124933361Y-96762900D01*
X124962641Y-96786258D01*
X125124852Y-96830150D01*
X125365790Y-96847567D01*
X125415207Y-96848088D01*
X125678464Y-96882809D01*
X125794614Y-96974567D01*
X125846042Y-97042636D01*
X125890619Y-97059233D01*
X126004323Y-97101567D01*
G37*
G36*
X127636655Y-76761872D02*
G01*
X128807288Y-76943087D01*
X129880101Y-77261126D01*
X130858830Y-77717584D01*
X131747208Y-78314053D01*
X132548969Y-79052130D01*
X132990388Y-79560197D01*
X133683404Y-80556344D01*
X134238140Y-81645179D01*
X134650107Y-82817200D01*
X134914820Y-84062900D01*
X134949248Y-84293640D01*
X135153316Y-85593003D01*
X135349993Y-86725130D01*
X135539622Y-87691671D01*
X135722545Y-88494272D01*
X135899105Y-89134582D01*
X136069646Y-89614249D01*
X136091242Y-89668732D01*
X136137810Y-89837086D01*
X136121298Y-89904900D01*
X136100726Y-89900332D01*
X135974515Y-89810100D01*
X135806235Y-89640018D01*
X135639271Y-89437193D01*
X135517006Y-89248733D01*
X135488627Y-89190982D01*
X135465446Y-89084086D01*
X135549102Y-89058233D01*
X135572719Y-89058654D01*
X135629589Y-89057176D01*
X135660100Y-89029898D01*
X135662095Y-88948933D01*
X135633420Y-88786393D01*
X135571919Y-88514390D01*
X135475438Y-88105037D01*
X135453836Y-88011830D01*
X135328861Y-87428289D01*
X135194431Y-86738436D01*
X135059709Y-85994329D01*
X134933857Y-85248026D01*
X134826036Y-84551585D01*
X134745409Y-83957066D01*
X134655629Y-83408281D01*
X134383044Y-82420137D01*
X133981663Y-81452705D01*
X133467728Y-80530270D01*
X132857484Y-79677119D01*
X132167174Y-78917538D01*
X131413043Y-78275814D01*
X130611335Y-77776231D01*
X129593354Y-77338298D01*
X128511457Y-77043289D01*
X127365459Y-76895682D01*
X126140886Y-76892618D01*
X125723571Y-76922722D01*
X124735286Y-77068373D01*
X123811286Y-77324315D01*
X122894565Y-77704811D01*
X122491400Y-77912880D01*
X121664417Y-78449211D01*
X120931502Y-79093455D01*
X120284323Y-79856247D01*
X119714543Y-80748218D01*
X119213830Y-81780003D01*
X118773849Y-82962233D01*
X118649861Y-83364584D01*
X118494405Y-83925952D01*
X118357092Y-84480460D01*
X118257691Y-84951900D01*
X118208365Y-85200904D01*
X118092955Y-85696757D01*
X117962350Y-86177418D01*
X117836424Y-86566704D01*
X117801212Y-86664868D01*
X117690651Y-87007879D01*
X117612726Y-87304016D01*
X117582499Y-87498037D01*
X117576435Y-87574517D01*
X117515265Y-87791975D01*
X117414307Y-87969073D01*
X117305876Y-88042233D01*
X117300887Y-88036907D01*
X117310129Y-87926696D01*
X117356913Y-87702770D01*
X117431027Y-87403244D01*
X117522256Y-87066231D01*
X117620388Y-86729844D01*
X117715208Y-86432196D01*
X117796502Y-86211400D01*
X117843229Y-86076149D01*
X117924755Y-85774844D01*
X118012264Y-85393058D01*
X118093417Y-84981887D01*
X118193444Y-84481090D01*
X118441230Y-83500102D01*
X118747882Y-82540649D01*
X119099682Y-81639670D01*
X119482912Y-80834102D01*
X119883854Y-80160884D01*
X120045868Y-79930903D01*
X120791977Y-79041666D01*
X121630696Y-78293623D01*
X122558772Y-77688321D01*
X123572951Y-77227309D01*
X124669982Y-76912136D01*
X125846610Y-76744350D01*
X127099582Y-76725502D01*
X127636655Y-76761872D01*
G37*
G36*
X131157609Y-86328493D02*
G01*
X131066089Y-86880603D01*
X130855179Y-87380676D01*
X130526405Y-87804450D01*
X130081293Y-88127665D01*
X129905401Y-88201426D01*
X129468013Y-88289886D01*
X128972885Y-88297714D01*
X128480579Y-88226407D01*
X128051656Y-88077463D01*
X127685657Y-87843192D01*
X127316513Y-87515895D01*
X127001705Y-87150600D01*
X126792344Y-86799189D01*
X126783391Y-86778604D01*
X126682614Y-86586431D01*
X126596927Y-86480239D01*
X126594319Y-86478955D01*
X126514516Y-86530258D01*
X126387885Y-86697515D01*
X126240610Y-86946465D01*
X126141424Y-87119798D01*
X125739351Y-87635226D01*
X125254612Y-88002780D01*
X124686401Y-88222952D01*
X124033915Y-88296233D01*
X123515337Y-88248900D01*
X122985701Y-88069934D01*
X122564002Y-87763325D01*
X122255846Y-87335032D01*
X122066840Y-86791015D01*
X122008616Y-86198528D01*
X122073923Y-86198528D01*
X122142867Y-86752403D01*
X122323138Y-87234733D01*
X122381291Y-87331463D01*
X122635643Y-87654802D01*
X122921156Y-87910690D01*
X122996212Y-87959064D01*
X123429377Y-88136379D01*
X123933095Y-88214968D01*
X124448388Y-88190461D01*
X124916273Y-88058490D01*
X125006578Y-88016211D01*
X125522192Y-87676254D01*
X125962927Y-87218962D01*
X126285817Y-86687353D01*
X126406312Y-86436939D01*
X126511373Y-86250872D01*
X126573409Y-86179884D01*
X126606759Y-86208320D01*
X126693562Y-86354089D01*
X126797935Y-86582051D01*
X126994773Y-86944369D01*
X127335354Y-87373250D01*
X127741728Y-87747293D01*
X128161455Y-88011523D01*
X128282056Y-88064106D01*
X128676928Y-88176252D01*
X129138378Y-88208812D01*
X129463579Y-88193463D01*
X129878766Y-88099375D01*
X130231335Y-87897139D01*
X130578518Y-87561009D01*
X130753576Y-87329155D01*
X130986986Y-86817461D01*
X131079822Y-86242985D01*
X131029605Y-85630520D01*
X130833861Y-85004858D01*
X130750462Y-84834920D01*
X130431185Y-84384947D01*
X130012797Y-83988102D01*
X129533374Y-83671309D01*
X129030993Y-83461489D01*
X128543729Y-83385567D01*
X128383097Y-83393280D01*
X127863584Y-83519922D01*
X127386341Y-83782094D01*
X126989908Y-84154021D01*
X126712825Y-84609933D01*
X126572623Y-84945300D01*
X126450581Y-84656015D01*
X126415987Y-84577273D01*
X126110832Y-84079553D01*
X125714522Y-83724531D01*
X125223956Y-83510122D01*
X124636037Y-83434237D01*
X124218516Y-83465295D01*
X123634223Y-83643353D01*
X123111556Y-83972059D01*
X122662123Y-84443392D01*
X122297537Y-85049334D01*
X122272681Y-85103912D01*
X122116971Y-85630049D01*
X122073923Y-86198528D01*
X122008616Y-86198528D01*
X122002592Y-86137233D01*
X122003072Y-86083464D01*
X122086326Y-85436599D01*
X122299476Y-84847318D01*
X122623529Y-84331582D01*
X123039492Y-83905349D01*
X123528371Y-83584582D01*
X124071172Y-83385239D01*
X124648903Y-83323282D01*
X125242568Y-83414670D01*
X125649060Y-83579666D01*
X126040550Y-83873188D01*
X126387625Y-84306238D01*
X126567641Y-84579646D01*
X126873906Y-84154769D01*
X127117927Y-83860323D01*
X127498512Y-83564059D01*
X127947811Y-83399438D01*
X128501254Y-83348915D01*
X128669845Y-83353386D01*
X129302855Y-83461308D01*
X129854465Y-83716016D01*
X130333337Y-84121161D01*
X130700565Y-84602539D01*
X130976373Y-85165200D01*
X131128212Y-85748605D01*
X131153274Y-86242985D01*
X131157609Y-86328493D01*
G37*
G36*
X133949232Y-86748070D02*
G01*
X133777237Y-87131823D01*
X133747443Y-87178434D01*
X133602812Y-87482864D01*
X133511611Y-87798165D01*
X133507364Y-87821897D01*
X133381237Y-88170015D01*
X133122647Y-88506261D01*
X133019029Y-88615710D01*
X132740359Y-88919306D01*
X132486416Y-89206400D01*
X132451185Y-89246925D01*
X132251927Y-89446601D01*
X132078851Y-89541896D01*
X131875180Y-89566233D01*
X131741073Y-89580982D01*
X131414536Y-89681602D01*
X131032465Y-89862663D01*
X130703278Y-90026198D01*
X130239970Y-90175793D01*
X129829772Y-90186428D01*
X129444058Y-90057000D01*
X129054201Y-89786404D01*
X128901487Y-89665727D01*
X128555352Y-89447476D01*
X128245099Y-89320738D01*
X128185084Y-89306632D01*
X127882456Y-89257044D01*
X127569571Y-89232865D01*
X127290955Y-89234305D01*
X127091134Y-89261576D01*
X127014632Y-89314890D01*
X127015445Y-89336412D01*
X127034421Y-89381802D01*
X127101297Y-89421683D01*
X127245690Y-89466018D01*
X127497216Y-89524775D01*
X127885493Y-89607919D01*
X128038894Y-89641962D01*
X128381904Y-89740419D01*
X128630750Y-89860470D01*
X128841178Y-90026533D01*
X128891520Y-90074622D01*
X129051785Y-90260602D01*
X129122510Y-90451045D01*
X129133564Y-90643830D01*
X129138378Y-90727787D01*
X129101247Y-91042632D01*
X128968834Y-91459811D01*
X128768499Y-91844105D01*
X128529856Y-92127400D01*
X128490914Y-92155764D01*
X128235881Y-92246581D01*
X127900891Y-92273961D01*
X127549741Y-92237447D01*
X127246230Y-92136583D01*
X127216221Y-92121880D01*
X126891317Y-92024586D01*
X126520530Y-91993367D01*
X126171165Y-92028535D01*
X125910526Y-92130401D01*
X125641186Y-92237343D01*
X125243052Y-92275567D01*
X125084830Y-92273221D01*
X124857051Y-92243153D01*
X124687136Y-92154288D01*
X124500690Y-91976676D01*
X124304519Y-91724495D01*
X124107020Y-91258160D01*
X124058145Y-90835409D01*
X124147207Y-90835409D01*
X124244716Y-91308622D01*
X124416019Y-91692701D01*
X124688892Y-92003945D01*
X125028158Y-92166829D01*
X125419230Y-92174866D01*
X125847522Y-92021567D01*
X126160701Y-91905458D01*
X126589883Y-91852233D01*
X126952956Y-91890379D01*
X127332244Y-92021567D01*
X127620305Y-92142708D01*
X128017084Y-92187699D01*
X128365204Y-92073003D01*
X128655494Y-91802426D01*
X128878782Y-91379774D01*
X129008760Y-90970546D01*
X129046370Y-90643830D01*
X128981611Y-90385438D01*
X128812555Y-90159804D01*
X128807969Y-90155281D01*
X128541607Y-89970382D01*
X128173301Y-89808789D01*
X127769410Y-89694346D01*
X127396296Y-89650900D01*
X127201963Y-89619086D01*
X126929682Y-89439233D01*
X126911653Y-89420382D01*
X126761671Y-89283596D01*
X126664402Y-89227567D01*
X126652856Y-89229675D01*
X126536462Y-89300066D01*
X126369481Y-89439233D01*
X126271451Y-89519982D01*
X126047796Y-89622634D01*
X125740657Y-89650900D01*
X125541819Y-89658337D01*
X124983550Y-89776888D01*
X124490920Y-90045206D01*
X124365467Y-90155294D01*
X124186776Y-90454466D01*
X124147207Y-90835409D01*
X124058145Y-90835409D01*
X124041862Y-90694563D01*
X124074473Y-90433153D01*
X124251405Y-90091640D01*
X124580731Y-89821745D01*
X125061036Y-89624495D01*
X125690901Y-89500914D01*
X125748111Y-89493487D01*
X126063782Y-89431132D01*
X126219798Y-89360846D01*
X126214934Y-89295146D01*
X126047965Y-89246547D01*
X125717665Y-89227567D01*
X125690983Y-89227620D01*
X125241052Y-89253482D01*
X124867124Y-89341435D01*
X124506551Y-89513244D01*
X124096683Y-89790670D01*
X123823152Y-89983395D01*
X123608723Y-90096802D01*
X123401316Y-90147351D01*
X123138877Y-90158900D01*
X123096356Y-90158572D01*
X122783899Y-90128539D01*
X122470218Y-90036237D01*
X122087542Y-89862567D01*
X122049658Y-89843798D01*
X121731352Y-89703246D01*
X121446086Y-89603899D01*
X121251621Y-89566233D01*
X120978901Y-89505251D01*
X120682570Y-89291047D01*
X120429150Y-88938767D01*
X120391299Y-88873186D01*
X120263886Y-88703087D01*
X120162637Y-88634900D01*
X120134934Y-88630559D01*
X119994814Y-88525879D01*
X119841024Y-88315671D01*
X119702593Y-88045688D01*
X119608553Y-87761681D01*
X119590266Y-87688116D01*
X119506565Y-87443464D01*
X119417444Y-87281484D01*
X119352830Y-87191265D01*
X119224068Y-86894290D01*
X119151136Y-86555671D01*
X119155347Y-86338264D01*
X119292692Y-86338264D01*
X119323412Y-86755900D01*
X119496572Y-87145178D01*
X119545897Y-87222714D01*
X119662575Y-87459077D01*
X119709470Y-87643826D01*
X119758396Y-87889262D01*
X119944932Y-88241634D01*
X120257474Y-88623897D01*
X120331047Y-88701310D01*
X120580668Y-88966747D01*
X120802860Y-89206400D01*
X120828218Y-89233517D01*
X121069394Y-89424042D01*
X121318580Y-89481567D01*
X121343036Y-89482657D01*
X121563824Y-89532058D01*
X121865711Y-89640299D01*
X122190855Y-89787116D01*
X122409191Y-89889929D01*
X122863971Y-90041613D01*
X123256840Y-90062081D01*
X123621699Y-89949751D01*
X123992453Y-89703040D01*
X124159151Y-89570070D01*
X124372258Y-89419819D01*
X124583163Y-89309600D01*
X124820544Y-89233291D01*
X125113079Y-89184773D01*
X125489447Y-89157926D01*
X125978325Y-89146628D01*
X126608392Y-89144759D01*
X126694266Y-89144912D01*
X127339920Y-89151701D01*
X127843481Y-89171830D01*
X128229687Y-89210299D01*
X128523275Y-89272111D01*
X128748982Y-89362266D01*
X128931545Y-89485766D01*
X129095703Y-89647610D01*
X129260574Y-89798955D01*
X129494996Y-89955901D01*
X129698727Y-90036558D01*
X130060394Y-90068574D01*
X130473300Y-89970769D01*
X130961757Y-89739557D01*
X131299215Y-89565139D01*
X131578535Y-89462952D01*
X131774555Y-89452478D01*
X131971935Y-89436408D01*
X132235086Y-89294024D01*
X132492849Y-89043236D01*
X132710302Y-88711691D01*
X132730382Y-88673580D01*
X132874230Y-88472704D01*
X132998160Y-88432870D01*
X133023152Y-88438281D01*
X133145337Y-88374356D01*
X133262742Y-88199088D01*
X133351032Y-87958553D01*
X133385870Y-87698827D01*
X133433841Y-87461452D01*
X133594864Y-87184130D01*
X133637440Y-87131143D01*
X133825173Y-86779407D01*
X133866411Y-86425721D01*
X133756106Y-86103907D01*
X133713751Y-86039442D01*
X133377226Y-85605557D01*
X132927066Y-85121238D01*
X132392738Y-84614682D01*
X131803708Y-84114090D01*
X131189445Y-83647661D01*
X130816482Y-83377656D01*
X130385303Y-83046874D01*
X130014898Y-82731099D01*
X129664554Y-82392739D01*
X129293557Y-81994202D01*
X128861194Y-81497894D01*
X128739429Y-81363988D01*
X128193970Y-80921225D01*
X127538055Y-80604561D01*
X126777038Y-80416774D01*
X126666728Y-80400203D01*
X126440819Y-80372383D01*
X126251514Y-80372086D01*
X126076521Y-80412585D01*
X125893549Y-80507151D01*
X125680306Y-80669058D01*
X125414500Y-80911577D01*
X125073841Y-81247983D01*
X124636037Y-81691547D01*
X124543592Y-81784960D01*
X123917327Y-82387898D01*
X123375277Y-82852601D01*
X122912128Y-83183669D01*
X122264892Y-83591785D01*
X121563865Y-84046665D01*
X120986155Y-84440121D01*
X120517386Y-84783317D01*
X120143180Y-85087419D01*
X119849161Y-85363589D01*
X119620953Y-85622994D01*
X119444177Y-85876798D01*
X119406549Y-85943956D01*
X119292692Y-86338264D01*
X119155347Y-86338264D01*
X119156782Y-86264191D01*
X119255926Y-86009777D01*
X119475804Y-85660272D01*
X119780383Y-85284264D01*
X120139700Y-84918257D01*
X120523790Y-84598758D01*
X120634429Y-84519135D01*
X120968272Y-84288898D01*
X121385447Y-84010573D01*
X121843485Y-83712294D01*
X122299917Y-83422194D01*
X122481917Y-83307502D01*
X122890649Y-83041445D01*
X123235174Y-82798199D01*
X123551412Y-82548344D01*
X123875283Y-82262461D01*
X124242705Y-81911130D01*
X124689599Y-81464930D01*
X125889984Y-80252900D01*
X126346121Y-80253905D01*
X126371732Y-80254057D01*
X127106832Y-80339918D01*
X127803663Y-80573562D01*
X128430576Y-80940760D01*
X128955919Y-81427280D01*
X129273273Y-81787736D01*
X129916451Y-82448748D01*
X130590063Y-83038629D01*
X131357715Y-83615323D01*
X131419155Y-83659002D01*
X131992972Y-84099244D01*
X132548166Y-84578912D01*
X133052560Y-85067064D01*
X133473981Y-85532758D01*
X133780252Y-85945051D01*
X133785584Y-85953518D01*
X133952018Y-86353707D01*
X133951509Y-86425721D01*
X133949232Y-86748070D01*
G37*
G36*
X125916059Y-93331303D02*
G01*
X126802258Y-93346004D01*
X127215213Y-93329052D01*
X127605912Y-93296346D01*
X127948116Y-93239129D01*
X128307858Y-93145844D01*
X128751165Y-93004937D01*
X128996099Y-92922003D01*
X129446526Y-92755686D01*
X129835392Y-92584430D01*
X130211442Y-92383259D01*
X130623423Y-92127201D01*
X131120080Y-91791281D01*
X131289114Y-91677964D01*
X131566964Y-91508449D01*
X131780021Y-91399986D01*
X131892208Y-91372159D01*
X131892862Y-91372422D01*
X131971910Y-91462211D01*
X132106369Y-91672684D01*
X132277587Y-91972717D01*
X132466913Y-92331186D01*
X132572762Y-92544891D01*
X132972088Y-93463741D01*
X133310981Y-94424444D01*
X133557772Y-95337563D01*
X133559999Y-95345802D01*
X133607378Y-95528857D01*
X133719895Y-95811743D01*
X133840110Y-95967621D01*
X133951349Y-95988544D01*
X134036938Y-95866565D01*
X134080203Y-95593736D01*
X134080516Y-95587410D01*
X134089746Y-95537003D01*
X134103112Y-95629523D01*
X134119430Y-95839833D01*
X134137517Y-96142794D01*
X134156190Y-96513270D01*
X134174266Y-96926123D01*
X134190561Y-97356217D01*
X134203893Y-97778414D01*
X134204022Y-97783897D01*
X134213077Y-98167576D01*
X134216932Y-98498567D01*
X134219225Y-99345233D01*
X133964206Y-98545774D01*
X133709186Y-97746315D01*
X133714215Y-97731570D01*
X133895569Y-97731570D01*
X133914760Y-97873859D01*
X133980519Y-97990567D01*
X133983433Y-97992236D01*
X134042461Y-97953153D01*
X134065468Y-97783897D01*
X134065435Y-97776604D01*
X134039718Y-97598585D01*
X133980519Y-97524900D01*
X133925287Y-97574861D01*
X133895569Y-97731570D01*
X133714215Y-97731570D01*
X133857201Y-97312316D01*
X133907476Y-97145258D01*
X133958857Y-96690115D01*
X133857406Y-96294976D01*
X133600039Y-95943422D01*
X133478032Y-95828259D01*
X133313673Y-95719487D01*
X133117605Y-95672528D01*
X132820953Y-95662550D01*
X132777850Y-95662849D01*
X132360358Y-95706635D01*
X132045857Y-95831883D01*
X132015381Y-95849708D01*
X131772098Y-95957052D01*
X131562212Y-96000900D01*
X131402759Y-96042135D01*
X131224466Y-96189072D01*
X131204989Y-96217370D01*
X131118359Y-96378290D01*
X131093640Y-96538494D01*
X131140944Y-96723511D01*
X131270382Y-96958866D01*
X131492065Y-97270087D01*
X131816105Y-97682702D01*
X131865520Y-97745198D01*
X131978378Y-97911928D01*
X132037703Y-98077405D01*
X132057613Y-98298371D01*
X132052228Y-98631564D01*
X132050367Y-98697221D01*
X132050817Y-98715230D01*
X132062794Y-99194816D01*
X132108899Y-99434074D01*
X132131401Y-99550843D01*
X132262028Y-99783608D01*
X132460514Y-99911412D01*
X132463269Y-99912374D01*
X132634987Y-99994752D01*
X132706271Y-100073182D01*
X132683391Y-100083437D01*
X132518677Y-100100658D01*
X132208698Y-100114498D01*
X131769608Y-100124637D01*
X131217561Y-100130757D01*
X130568711Y-100132541D01*
X129839214Y-100129669D01*
X126972157Y-100109772D01*
X129584365Y-100086112D01*
X130119245Y-100080731D01*
X130765767Y-100071839D01*
X131269204Y-100060937D01*
X131645454Y-100047176D01*
X131910417Y-100029706D01*
X132079991Y-100007678D01*
X132170077Y-99980243D01*
X132196572Y-99946551D01*
X132194247Y-99919960D01*
X132152765Y-99851242D01*
X132043618Y-99797761D01*
X131846360Y-99756122D01*
X131540548Y-99722928D01*
X131105735Y-99694782D01*
X130521477Y-99668289D01*
X130204422Y-99657687D01*
X129441747Y-99655475D01*
X128721363Y-99694053D01*
X127975663Y-99778312D01*
X127137042Y-99913143D01*
X126856484Y-99952640D01*
X126583882Y-99958179D01*
X126273564Y-99923328D01*
X125862795Y-99844717D01*
X125452300Y-99776052D01*
X124950603Y-99723180D01*
X124397529Y-99688637D01*
X123817616Y-99671700D01*
X123235406Y-99671649D01*
X122675438Y-99687763D01*
X122162253Y-99719321D01*
X121720390Y-99765602D01*
X121374391Y-99825886D01*
X121148796Y-99899451D01*
X121068144Y-99985576D01*
X121075342Y-99991689D01*
X121203570Y-100012274D01*
X121478304Y-100031848D01*
X121881446Y-100049715D01*
X122394900Y-100065179D01*
X123000567Y-100077544D01*
X123680351Y-100086112D01*
X126292559Y-100109772D01*
X123462963Y-100129669D01*
X123201847Y-100131396D01*
X122437149Y-100134498D01*
X121827551Y-100132688D01*
X121361692Y-100124894D01*
X121028215Y-100110044D01*
X120815759Y-100087066D01*
X120712966Y-100054888D01*
X120708476Y-100012440D01*
X120790931Y-99958647D01*
X120948971Y-99892440D01*
X121075672Y-99813178D01*
X121153094Y-99638096D01*
X121163059Y-99557256D01*
X121447073Y-99557256D01*
X121703595Y-99518436D01*
X121741420Y-99512857D01*
X122301766Y-99455811D01*
X122945538Y-99428631D01*
X123630713Y-99429681D01*
X124315271Y-99457328D01*
X124957190Y-99509935D01*
X125514448Y-99585867D01*
X125945023Y-99683489D01*
X125955858Y-99686795D01*
X126277643Y-99776191D01*
X126468959Y-99802577D01*
X126556671Y-99765056D01*
X126567644Y-99662733D01*
X126565294Y-99640519D01*
X126598502Y-99510998D01*
X126680812Y-99507096D01*
X126744454Y-99638213D01*
X126756000Y-99692359D01*
X126833428Y-99806021D01*
X126946005Y-99766409D01*
X127018262Y-99735826D01*
X127236283Y-99685040D01*
X127561279Y-99627257D01*
X127957866Y-99567697D01*
X128390659Y-99511577D01*
X128824274Y-99464117D01*
X129223328Y-99430535D01*
X129415235Y-99421172D01*
X129917418Y-99417209D01*
X130459607Y-99434321D01*
X130953789Y-99470475D01*
X131269536Y-99501063D01*
X131589568Y-99527981D01*
X131811289Y-99541704D01*
X131899406Y-99539651D01*
X131900847Y-99537243D01*
X131902235Y-99434074D01*
X131879537Y-99239400D01*
X131869977Y-99180886D01*
X131821412Y-99034378D01*
X131711538Y-98971608D01*
X131486094Y-98953088D01*
X131404939Y-98950332D01*
X131248892Y-98940238D01*
X131247613Y-98922523D01*
X131389549Y-98889588D01*
X131458703Y-98873107D01*
X131605814Y-98788884D01*
X131644398Y-98625567D01*
X131650740Y-98576103D01*
X131818423Y-98576103D01*
X131824360Y-98663502D01*
X131851780Y-98725047D01*
X131914423Y-98792158D01*
X131941723Y-98715230D01*
X131938703Y-98692234D01*
X131857746Y-98583833D01*
X131818423Y-98576103D01*
X131650740Y-98576103D01*
X131663433Y-98477110D01*
X131726888Y-98355003D01*
X131790995Y-98279097D01*
X131713150Y-98245000D01*
X131500694Y-98258834D01*
X131168422Y-98321486D01*
X130255848Y-98491026D01*
X129184099Y-98622833D01*
X128032655Y-98707337D01*
X126844479Y-98743275D01*
X125662537Y-98729386D01*
X124529794Y-98664408D01*
X123489214Y-98547077D01*
X123484656Y-98546408D01*
X122856205Y-98454481D01*
X122375696Y-98385554D01*
X122023172Y-98337564D01*
X121778676Y-98308445D01*
X121622253Y-98296133D01*
X121533947Y-98298563D01*
X121493800Y-98313669D01*
X121481857Y-98339389D01*
X121474803Y-98452253D01*
X121466508Y-98685145D01*
X121458947Y-98985578D01*
X121447073Y-99557256D01*
X121163059Y-99557256D01*
X121168919Y-99509711D01*
X121245157Y-99289652D01*
X121293539Y-99121037D01*
X121237439Y-98878112D01*
X121187815Y-98710667D01*
X121221246Y-98489155D01*
X121256677Y-98394668D01*
X121210007Y-98188952D01*
X121170733Y-98081824D01*
X121215558Y-97950498D01*
X121372390Y-97760091D01*
X121518437Y-97596051D01*
X121846562Y-97153030D01*
X122035023Y-96760555D01*
X122080246Y-96428038D01*
X121978653Y-96164890D01*
X121904736Y-96096692D01*
X121658779Y-95963085D01*
X121316392Y-95839471D01*
X120925507Y-95741744D01*
X120534055Y-95685801D01*
X120188740Y-95681203D01*
X119887656Y-95758737D01*
X119660719Y-95949289D01*
X119463807Y-96277242D01*
X119342298Y-96561055D01*
X119296370Y-96814738D01*
X119345432Y-97070208D01*
X119491148Y-97395619D01*
X119698099Y-97803036D01*
X119672771Y-97864295D01*
X119396784Y-98531801D01*
X119323456Y-98708711D01*
X119203817Y-98995170D01*
X119118925Y-99195477D01*
X119083646Y-99274376D01*
X119082787Y-99272616D01*
X119077689Y-99171216D01*
X119072403Y-98937117D01*
X119067509Y-98601332D01*
X119063580Y-98194876D01*
X119063183Y-98119557D01*
X119067150Y-97721485D01*
X119080383Y-97398107D01*
X119101043Y-97180957D01*
X119113296Y-97143900D01*
X119206757Y-97143900D01*
X119211470Y-97482567D01*
X119212473Y-97524126D01*
X119236224Y-97805552D01*
X119279713Y-98032900D01*
X119343244Y-98244567D01*
X119449322Y-98023675D01*
X119504554Y-97864295D01*
X119486260Y-97702207D01*
X119381078Y-97473342D01*
X119206757Y-97143900D01*
X119113296Y-97143900D01*
X119127293Y-97101567D01*
X119130523Y-97101301D01*
X119179170Y-97019835D01*
X119199248Y-96836874D01*
X119223322Y-96675337D01*
X119311881Y-96393172D01*
X119443192Y-96093729D01*
X119550928Y-95866082D01*
X119674855Y-95558875D01*
X119713701Y-95430927D01*
X119878846Y-95430927D01*
X119892934Y-95448777D01*
X120021528Y-95467067D01*
X120240769Y-95449183D01*
X120488677Y-95434516D01*
X120984080Y-95527429D01*
X121266715Y-95615039D01*
X121538018Y-95657216D01*
X121699741Y-95609939D01*
X121772741Y-95471733D01*
X121788106Y-95403666D01*
X121808467Y-95394319D01*
X121821124Y-95547341D01*
X121865334Y-95748846D01*
X121960243Y-95862232D01*
X121962213Y-95863002D01*
X122104722Y-95991507D01*
X122230796Y-96218528D01*
X122310770Y-96474762D01*
X122314976Y-96690908D01*
X122310726Y-96705477D01*
X122225368Y-96882516D01*
X122069081Y-97136323D01*
X121872244Y-97417073D01*
X121829610Y-97475082D01*
X121659857Y-97726059D01*
X121551642Y-97920048D01*
X121526775Y-98019042D01*
X121559173Y-98043963D01*
X121741260Y-98106228D01*
X122056448Y-98177258D01*
X122480012Y-98253412D01*
X122987227Y-98331046D01*
X123553369Y-98406518D01*
X124153714Y-98476185D01*
X124763536Y-98536404D01*
X125358110Y-98583533D01*
X125500163Y-98593363D01*
X125859443Y-98619659D01*
X126155443Y-98643270D01*
X126335034Y-98660036D01*
X126335524Y-98660093D01*
X126572750Y-98669022D01*
X126844733Y-98656244D01*
X126874553Y-98653481D01*
X127100495Y-98634024D01*
X127445318Y-98605629D01*
X127867668Y-98571666D01*
X128326193Y-98535504D01*
X128489183Y-98522369D01*
X129212411Y-98454596D01*
X129903933Y-98375270D01*
X130529238Y-98289051D01*
X131053815Y-98200601D01*
X131443153Y-98114580D01*
X131504750Y-98097743D01*
X131677490Y-98035621D01*
X131723738Y-97962036D01*
X131675657Y-97838846D01*
X131602046Y-97719100D01*
X131442515Y-97491838D01*
X131249827Y-97238673D01*
X131208187Y-97185066D01*
X130985589Y-96824804D01*
X130914596Y-96513821D01*
X130994776Y-96229044D01*
X131225698Y-95947397D01*
X131327798Y-95859801D01*
X131544898Y-95717659D01*
X131714159Y-95661001D01*
X131765141Y-95657511D01*
X131992472Y-95613444D01*
X132257778Y-95535278D01*
X132500727Y-95473025D01*
X133001089Y-95463352D01*
X133107726Y-95477148D01*
X133291737Y-95486346D01*
X133369708Y-95444638D01*
X133385870Y-95337563D01*
X133365822Y-95162916D01*
X133288962Y-94847456D01*
X133164999Y-94451409D01*
X133005141Y-94001580D01*
X132820593Y-93524771D01*
X132622562Y-93047782D01*
X132422255Y-92597417D01*
X132230877Y-92200477D01*
X132059637Y-91883765D01*
X131919739Y-91674083D01*
X131822390Y-91598233D01*
X131758212Y-91618870D01*
X131569289Y-91717924D01*
X131300910Y-91880243D01*
X130988631Y-92085067D01*
X130820555Y-92197028D01*
X130449442Y-92431263D01*
X130100959Y-92636069D01*
X129832863Y-92776873D01*
X129646863Y-92871014D01*
X129463981Y-92984809D01*
X129393228Y-93060403D01*
X129397905Y-93079986D01*
X129482447Y-93203857D01*
X129639565Y-93368309D01*
X129742733Y-93474778D01*
X129840657Y-93634261D01*
X129899324Y-93852765D01*
X129938942Y-94185444D01*
X129967311Y-94492239D01*
X130003223Y-94864805D01*
X130033057Y-95158327D01*
X130046416Y-95350332D01*
X130027492Y-95500678D01*
X130013635Y-95610768D01*
X129886300Y-95772240D01*
X129640273Y-95857297D01*
X129251416Y-95888487D01*
X128948998Y-95884891D01*
X128644327Y-95858786D01*
X128439417Y-95815489D01*
X128331870Y-95782709D01*
X128151182Y-95790471D01*
X127931732Y-95902040D01*
X127907254Y-95917546D01*
X127753378Y-96025603D01*
X127730572Y-96085357D01*
X127823669Y-96128601D01*
X127825063Y-96129038D01*
X128020716Y-96203717D01*
X128254719Y-96309025D01*
X128268976Y-96315820D01*
X128477493Y-96382549D01*
X128744682Y-96401713D01*
X129123854Y-96377513D01*
X129309507Y-96361204D01*
X129595920Y-96352992D01*
X129790459Y-96383517D01*
X129943801Y-96457736D01*
X130091976Y-96574152D01*
X130093991Y-96575735D01*
X130157776Y-96666291D01*
X130099139Y-96700149D01*
X129912073Y-96733657D01*
X129641136Y-96753694D01*
X129403148Y-96766958D01*
X129186058Y-96807641D01*
X129025301Y-96898076D01*
X128855939Y-97063921D01*
X128772158Y-97149156D01*
X128519197Y-97319276D01*
X128274179Y-97330369D01*
X128010850Y-97186233D01*
X127976542Y-97159584D01*
X127801403Y-97041508D01*
X127716449Y-97037503D01*
X127694231Y-97143900D01*
X127656806Y-97253641D01*
X127650337Y-97272611D01*
X127524331Y-97440233D01*
X127354432Y-97609567D01*
X127784038Y-97609567D01*
X127973411Y-97603483D01*
X128343222Y-97561799D01*
X128681475Y-97489927D01*
X128942065Y-97398899D01*
X129078887Y-97299747D01*
X129148762Y-97235477D01*
X129324371Y-97186233D01*
X129438208Y-97166670D01*
X129596237Y-97069388D01*
X129727186Y-96974350D01*
X129938999Y-96894731D01*
X130072465Y-96867707D01*
X130133723Y-96882188D01*
X130077260Y-96969243D01*
X129998550Y-97042162D01*
X129859139Y-97101567D01*
X129803464Y-97116147D01*
X129702307Y-97228567D01*
X129622287Y-97309712D01*
X129443382Y-97355567D01*
X129297796Y-97375007D01*
X129180853Y-97440233D01*
X129185803Y-97492307D01*
X129303264Y-97524900D01*
X129406922Y-97543734D01*
X129478177Y-97621075D01*
X129475060Y-97637810D01*
X129368840Y-97682751D01*
X129108316Y-97666723D01*
X128893761Y-97648307D01*
X128610372Y-97651117D01*
X128365917Y-97679421D01*
X128203984Y-97727517D01*
X128168155Y-97789705D01*
X128188899Y-97807340D01*
X128338521Y-97851276D01*
X128569980Y-97873734D01*
X128926003Y-97883902D01*
X128563984Y-97970637D01*
X128326847Y-98014839D01*
X128167178Y-97996268D01*
X128029969Y-97902237D01*
X127947089Y-97836126D01*
X127797294Y-97790427D01*
X127584965Y-97839039D01*
X127438359Y-97870357D01*
X127167980Y-97894995D01*
X126854383Y-97902558D01*
X126550673Y-97893492D01*
X126309957Y-97868244D01*
X126185340Y-97827261D01*
X126192846Y-97810786D01*
X126314232Y-97787886D01*
X126536674Y-97778900D01*
X126936530Y-97778900D01*
X126646013Y-97461400D01*
X126564619Y-97371825D01*
X126531246Y-97334400D01*
X126735866Y-97334400D01*
X126803066Y-97388390D01*
X126986387Y-97427844D01*
X127214455Y-97428115D01*
X127418144Y-97384160D01*
X127436073Y-97375503D01*
X127516541Y-97253641D01*
X127499171Y-97094613D01*
X127389959Y-96983625D01*
X127343577Y-96967540D01*
X127079213Y-96936609D01*
X126863586Y-97001503D01*
X126736026Y-97141131D01*
X126735866Y-97334400D01*
X126531246Y-97334400D01*
X126333949Y-97113149D01*
X126140153Y-96889900D01*
X125987611Y-96738948D01*
X125796874Y-96650474D01*
X125514036Y-96618103D01*
X125411973Y-96613298D01*
X125354586Y-96610212D01*
X126193610Y-96610212D01*
X126250918Y-96721568D01*
X126333044Y-96795147D01*
X126499571Y-96844488D01*
X126626409Y-96772493D01*
X126638598Y-96725751D01*
X126574468Y-96618114D01*
X126546764Y-96603160D01*
X126893156Y-96603160D01*
X126942305Y-96642954D01*
X127099582Y-96678233D01*
X127243644Y-96651447D01*
X127310872Y-96555429D01*
X127226071Y-96423459D01*
X127109259Y-96361611D01*
X127064590Y-96381900D01*
X126973093Y-96423459D01*
X126910075Y-96495379D01*
X126893156Y-96603160D01*
X126546764Y-96603160D01*
X126435019Y-96542842D01*
X126284073Y-96542763D01*
X126282878Y-96543221D01*
X126193610Y-96610212D01*
X125354586Y-96610212D01*
X125086691Y-96595806D01*
X124684374Y-96572215D01*
X124269267Y-96546235D01*
X123943343Y-96527067D01*
X123665431Y-96520256D01*
X123492097Y-96535697D01*
X123387621Y-96577231D01*
X123316283Y-96648699D01*
X123237294Y-96728669D01*
X123194591Y-96712522D01*
X123228009Y-96622294D01*
X123347241Y-96479689D01*
X123405852Y-96437554D01*
X123538298Y-96389120D01*
X123747371Y-96359117D01*
X124064108Y-96343836D01*
X124519549Y-96339567D01*
X124693629Y-96338758D01*
X125177178Y-96323883D01*
X125492167Y-96290281D01*
X125523385Y-96279116D01*
X125825335Y-96279116D01*
X125840711Y-96414935D01*
X125928981Y-96518450D01*
X126089145Y-96474577D01*
X126197966Y-96381900D01*
X126674833Y-96381900D01*
X126717308Y-96424233D01*
X126759783Y-96381900D01*
X126717308Y-96339567D01*
X126674833Y-96381900D01*
X126197966Y-96381900D01*
X126313796Y-96283254D01*
X126414016Y-96171266D01*
X126420626Y-96162285D01*
X126797329Y-96162285D01*
X126846466Y-96197143D01*
X126996666Y-96199448D01*
X127000287Y-96198563D01*
X127170514Y-96226032D01*
X127371515Y-96338859D01*
X127539150Y-96491208D01*
X127569991Y-96555429D01*
X127609281Y-96637244D01*
X127647597Y-96725751D01*
X127657000Y-96747472D01*
X127798083Y-96885099D01*
X127885424Y-96939180D01*
X128106513Y-97004555D01*
X128367457Y-96967555D01*
X128713629Y-96825213D01*
X128999025Y-96716520D01*
X129541022Y-96642267D01*
X129714064Y-96638209D01*
X129870521Y-96614613D01*
X129880821Y-96574152D01*
X129826942Y-96554611D01*
X129622376Y-96536201D01*
X129331648Y-96541719D01*
X129005971Y-96566609D01*
X128696555Y-96606318D01*
X128454613Y-96656289D01*
X128331355Y-96711969D01*
X128283932Y-96749401D01*
X128162125Y-96738287D01*
X127957755Y-96619797D01*
X127881624Y-96564908D01*
X127776028Y-96464172D01*
X127790191Y-96424233D01*
X127909029Y-96453375D01*
X128092488Y-96550736D01*
X128183273Y-96611053D01*
X128252974Y-96626666D01*
X128252429Y-96529569D01*
X128248977Y-96512025D01*
X128152303Y-96405634D01*
X127916074Y-96355376D01*
X127832653Y-96346048D01*
X127630860Y-96277883D01*
X127525425Y-96130767D01*
X127426356Y-95944952D01*
X127281022Y-95864649D01*
X127262412Y-95873900D01*
X127108778Y-95950272D01*
X126995056Y-96033026D01*
X126854268Y-96085567D01*
X126815702Y-96092319D01*
X126797329Y-96162285D01*
X126420626Y-96162285D01*
X126537160Y-96003939D01*
X126595674Y-95885188D01*
X126590636Y-95873900D01*
X126674833Y-95873900D01*
X126686159Y-95885188D01*
X126717308Y-95916233D01*
X126759783Y-95873900D01*
X126717308Y-95831567D01*
X126674833Y-95873900D01*
X126590636Y-95873900D01*
X126577360Y-95844153D01*
X126470021Y-95909977D01*
X126371855Y-95965577D01*
X126286132Y-95905869D01*
X126224297Y-95869320D01*
X126154405Y-95985014D01*
X126088568Y-96093211D01*
X125956020Y-96117431D01*
X125949678Y-96115090D01*
X125853261Y-96127840D01*
X125825335Y-96279116D01*
X125523385Y-96279116D01*
X125638445Y-96237966D01*
X125654972Y-96221080D01*
X125733614Y-96093299D01*
X125661618Y-96022635D01*
X125431850Y-96000900D01*
X125393127Y-95999609D01*
X125102731Y-95939725D01*
X124826435Y-95818030D01*
X124529555Y-95635159D01*
X124160744Y-95835960D01*
X123791933Y-96036760D01*
X123428199Y-95782663D01*
X123337372Y-95713972D01*
X123097228Y-95434620D01*
X123020230Y-95130025D01*
X123109720Y-94810389D01*
X123162844Y-94665742D01*
X123114810Y-94535543D01*
X123043412Y-94398573D01*
X123036720Y-94299676D01*
X123100836Y-94299676D01*
X123309430Y-94435897D01*
X123490965Y-94520779D01*
X123673518Y-94545675D01*
X123695245Y-94542791D01*
X123806370Y-94585498D01*
X123856892Y-94762381D01*
X123857530Y-94948828D01*
X123803791Y-95087608D01*
X123713296Y-95100343D01*
X123611760Y-94965705D01*
X123504056Y-94815300D01*
X123349337Y-94794280D01*
X123258574Y-94843442D01*
X123207501Y-94974522D01*
X123211159Y-95043435D01*
X123168128Y-95210300D01*
X123164417Y-95221788D01*
X123214833Y-95329615D01*
X123350497Y-95486391D01*
X123527077Y-95650232D01*
X123700245Y-95779252D01*
X123825669Y-95831567D01*
X123845545Y-95826183D01*
X123974191Y-95752470D01*
X124161262Y-95619900D01*
X124224824Y-95572733D01*
X124400302Y-95455266D01*
X124499900Y-95408233D01*
X124528203Y-95416283D01*
X124670478Y-95491413D01*
X124872638Y-95619900D01*
X124943515Y-95664031D01*
X125208645Y-95782903D01*
X125441543Y-95829684D01*
X125542665Y-95818362D01*
X125749300Y-95749896D01*
X125935490Y-95644779D01*
X126054151Y-95532555D01*
X126058198Y-95442765D01*
X125979676Y-95436803D01*
X125840404Y-95521641D01*
X125790353Y-95561193D01*
X125521863Y-95655576D01*
X125221595Y-95618644D01*
X124945766Y-95454609D01*
X124906845Y-95417454D01*
X124789114Y-95264899D01*
X124734399Y-95074351D01*
X124724143Y-94849796D01*
X124969925Y-94849796D01*
X125012569Y-95113387D01*
X125124498Y-95290373D01*
X125225797Y-95360150D01*
X125391205Y-95418407D01*
X125497297Y-95344984D01*
X125553811Y-95128223D01*
X125555162Y-95098093D01*
X125745765Y-95098093D01*
X125755584Y-95295405D01*
X125765551Y-95341222D01*
X125804791Y-95389770D01*
X125894942Y-95299830D01*
X125917679Y-95270941D01*
X125963891Y-95139946D01*
X125896809Y-94969145D01*
X125811604Y-94817690D01*
X126233899Y-94817690D01*
X126248743Y-94872231D01*
X126377092Y-95048365D01*
X126451831Y-95139946D01*
X126618957Y-95344733D01*
X126703195Y-95442765D01*
X126713405Y-95454647D01*
X126926381Y-95671946D01*
X127055890Y-95747780D01*
X127099582Y-95680508D01*
X127096328Y-95669634D01*
X127014926Y-95561187D01*
X126846336Y-95377444D01*
X126620384Y-95151341D01*
X126544688Y-95078819D01*
X126332551Y-94886100D01*
X126233899Y-94817690D01*
X125811604Y-94817690D01*
X125786594Y-94773233D01*
X125757451Y-94964720D01*
X125745765Y-95098093D01*
X125555162Y-95098093D01*
X125570485Y-94756465D01*
X125570349Y-94723627D01*
X125550901Y-94482446D01*
X125825980Y-94482446D01*
X125899449Y-94582733D01*
X125925932Y-94615513D01*
X126038862Y-94724276D01*
X126080184Y-94698933D01*
X126049174Y-94655211D01*
X125931522Y-94550767D01*
X125909697Y-94533996D01*
X126140098Y-94533996D01*
X126165208Y-94579205D01*
X126273721Y-94646233D01*
X126353752Y-94670474D01*
X126395723Y-94698933D01*
X126480571Y-94756465D01*
X126503818Y-94772228D01*
X126566974Y-94818104D01*
X126749648Y-94901994D01*
X126952347Y-94958079D01*
X127116670Y-94972646D01*
X127184214Y-94931983D01*
X127182039Y-94916774D01*
X127125234Y-94779846D01*
X127015563Y-94582733D01*
X126889893Y-94414853D01*
X126740124Y-94315363D01*
X126630210Y-94356435D01*
X126583912Y-94540400D01*
X126579456Y-94640471D01*
X126559661Y-94700157D01*
X126513947Y-94610458D01*
X126446677Y-94516184D01*
X126273418Y-94434720D01*
X126165412Y-94446520D01*
X126140098Y-94533996D01*
X125909697Y-94533996D01*
X125869971Y-94503470D01*
X125825980Y-94482446D01*
X125550901Y-94482446D01*
X125542114Y-94373483D01*
X125499316Y-94270230D01*
X125740385Y-94270230D01*
X125741212Y-94282066D01*
X125790386Y-94300712D01*
X125829497Y-94259151D01*
X126111222Y-94259151D01*
X126185522Y-94312433D01*
X126287882Y-94230441D01*
X126333067Y-94194356D01*
X126484033Y-94176115D01*
X126599079Y-94170210D01*
X126683593Y-94083061D01*
X126990886Y-94083061D01*
X127036232Y-94259302D01*
X127170516Y-94399418D01*
X127322389Y-94488426D01*
X127577051Y-94509105D01*
X127709797Y-94496040D01*
X127779181Y-94549409D01*
X127766591Y-94592146D01*
X127662905Y-94696078D01*
X127518744Y-94767344D01*
X127412632Y-94760684D01*
X127384857Y-94770603D01*
X127377290Y-94893628D01*
X127382928Y-94927091D01*
X127386551Y-94931983D01*
X127490772Y-95072722D01*
X127674439Y-95147635D01*
X127857134Y-95116210D01*
X127858099Y-95115572D01*
X127890320Y-95012409D01*
X127901031Y-94808248D01*
X127892498Y-94568323D01*
X127866988Y-94357865D01*
X127826767Y-94242105D01*
X127746314Y-94249687D01*
X127575557Y-94304251D01*
X127508614Y-94327845D01*
X127367243Y-94342538D01*
X127296547Y-94255741D01*
X127287105Y-94143743D01*
X127382746Y-94030615D01*
X127565770Y-93979302D01*
X127791467Y-93999448D01*
X128015128Y-94100701D01*
X128056196Y-94131664D01*
X128148909Y-94246965D01*
X128192834Y-94425917D01*
X128203930Y-94720942D01*
X128203625Y-94781963D01*
X128185056Y-95065482D01*
X128125361Y-95249685D01*
X128007318Y-95393475D01*
X127942577Y-95451370D01*
X127757432Y-95560126D01*
X127590230Y-95527876D01*
X127390645Y-95351165D01*
X127357417Y-95316426D01*
X127197523Y-95194763D01*
X127090191Y-95214393D01*
X127069708Y-95245963D01*
X127107898Y-95359455D01*
X127291552Y-95525462D01*
X127452753Y-95638802D01*
X127553277Y-95680508D01*
X127674040Y-95730611D01*
X127875079Y-95693528D01*
X128112462Y-95527707D01*
X128229321Y-95420929D01*
X128325607Y-95279984D01*
X128371729Y-95088398D01*
X128389892Y-94786874D01*
X128405955Y-94265233D01*
X128436540Y-94749861D01*
X128441464Y-94954325D01*
X128423004Y-95224843D01*
X128379559Y-95397564D01*
X128379209Y-95398216D01*
X128340302Y-95540672D01*
X128439098Y-95625769D01*
X128564478Y-95656167D01*
X128818341Y-95685001D01*
X129126153Y-95699412D01*
X129221357Y-95699459D01*
X129566958Y-95670256D01*
X129814130Y-95600807D01*
X129939181Y-95500678D01*
X129918418Y-95379438D01*
X129901578Y-95343316D01*
X129860936Y-95159044D01*
X129822644Y-94869517D01*
X129793179Y-94519233D01*
X129765153Y-94136541D01*
X129725854Y-93804357D01*
X129675857Y-93603826D01*
X129609544Y-93514193D01*
X129521296Y-93514702D01*
X129440757Y-93505760D01*
X129352703Y-93382356D01*
X129296007Y-93264318D01*
X129198102Y-93212486D01*
X129113601Y-93312733D01*
X129062920Y-93376108D01*
X128962107Y-93312733D01*
X128843748Y-93225050D01*
X128745511Y-93241513D01*
X128713629Y-93413570D01*
X128712927Y-93418567D01*
X128693577Y-93556223D01*
X128624614Y-93675070D01*
X128576671Y-93743796D01*
X128560902Y-93912900D01*
X128545477Y-94051127D01*
X128416304Y-94095900D01*
X128335299Y-94086288D01*
X128272169Y-94008981D01*
X128273934Y-93814349D01*
X128281634Y-93682726D01*
X128250493Y-93568634D01*
X128146510Y-93552194D01*
X128042495Y-93552142D01*
X127830366Y-93502396D01*
X127660238Y-93479048D01*
X127414406Y-93529046D01*
X127405663Y-93532298D01*
X127212202Y-93585852D01*
X127096011Y-93585700D01*
X127078695Y-93587185D01*
X127033102Y-93688460D01*
X127018204Y-93778400D01*
X126999249Y-93892839D01*
X126990886Y-94083061D01*
X126683593Y-94083061D01*
X126718388Y-94047181D01*
X126758482Y-93778400D01*
X126744274Y-93631228D01*
X126662567Y-93560334D01*
X126462458Y-93545567D01*
X126304795Y-93553393D01*
X126191644Y-93606277D01*
X126190147Y-93613300D01*
X126163974Y-93736067D01*
X126154901Y-93871865D01*
X126130284Y-94011233D01*
X126111591Y-94117067D01*
X126111473Y-94162502D01*
X126111222Y-94259151D01*
X125829497Y-94259151D01*
X125875921Y-94209818D01*
X125896591Y-94162502D01*
X125838460Y-94172482D01*
X125800723Y-94198617D01*
X125740385Y-94270230D01*
X125499316Y-94270230D01*
X125463039Y-94182709D01*
X125330675Y-94148508D01*
X125142572Y-94268087D01*
X125087719Y-94332694D01*
X124995372Y-94567074D01*
X124969925Y-94849796D01*
X124724143Y-94849796D01*
X124720987Y-94780702D01*
X124721477Y-94706032D01*
X124742089Y-94439186D01*
X124808660Y-94261967D01*
X124942560Y-94109650D01*
X125087643Y-94011233D01*
X125740385Y-94011233D01*
X125782860Y-94053567D01*
X125825335Y-94011233D01*
X125782860Y-93968900D01*
X125740385Y-94011233D01*
X125087643Y-94011233D01*
X125140222Y-93975566D01*
X125324834Y-93946765D01*
X125417901Y-93959803D01*
X125485535Y-93928338D01*
X125483706Y-93911343D01*
X125472583Y-93884233D01*
X125688873Y-93884233D01*
X125764477Y-93830373D01*
X125862234Y-93711735D01*
X125910284Y-93613300D01*
X125910025Y-93603580D01*
X125865808Y-93540947D01*
X125783071Y-93587448D01*
X125715771Y-93714900D01*
X125692846Y-93815398D01*
X125688873Y-93884233D01*
X125472583Y-93884233D01*
X125426904Y-93772906D01*
X125321008Y-93595054D01*
X125207390Y-93441569D01*
X125179236Y-93418567D01*
X128373830Y-93418567D01*
X128416304Y-93460900D01*
X128458779Y-93418567D01*
X128416304Y-93376233D01*
X128373830Y-93418567D01*
X125179236Y-93418567D01*
X125127420Y-93376233D01*
X125063708Y-93428840D01*
X125091325Y-93564557D01*
X125204685Y-93733043D01*
X125280308Y-93819085D01*
X125294979Y-93865124D01*
X125183448Y-93832400D01*
X125081703Y-93789500D01*
X124912124Y-93691390D01*
X124842000Y-93656388D01*
X124805937Y-93730684D01*
X124786822Y-93825095D01*
X124696997Y-94000356D01*
X124682435Y-94019775D01*
X124625174Y-94070718D01*
X124607969Y-94000385D01*
X124622814Y-93785599D01*
X124629926Y-93707701D01*
X124636133Y-93530384D01*
X124603655Y-93482935D01*
X124520384Y-93535829D01*
X124495469Y-93555922D01*
X124392577Y-93602476D01*
X124330629Y-93512769D01*
X124233870Y-93418366D01*
X123994046Y-93376233D01*
X123781140Y-93344534D01*
X123645950Y-93247531D01*
X124484287Y-93247531D01*
X124494454Y-93348011D01*
X124520005Y-93361257D01*
X124551087Y-93291567D01*
X124544956Y-93246744D01*
X124494454Y-93235122D01*
X124484287Y-93247531D01*
X123645950Y-93247531D01*
X123632242Y-93237695D01*
X123583719Y-93188852D01*
X123539515Y-93261644D01*
X123496287Y-93485736D01*
X123478847Y-93578294D01*
X123387897Y-93866662D01*
X123269479Y-94085996D01*
X123100836Y-94299676D01*
X123036720Y-94299676D01*
X123028733Y-94181634D01*
X123096678Y-94007000D01*
X123114918Y-93982258D01*
X123193737Y-93819729D01*
X123277648Y-93587900D01*
X123367401Y-93333083D01*
X123475827Y-93150522D01*
X123614178Y-93079371D01*
X123815185Y-93089270D01*
X123849815Y-93094493D01*
X123919358Y-93089663D01*
X123836972Y-93034888D01*
X123598484Y-92927044D01*
X123437012Y-92851254D01*
X123097708Y-92669401D01*
X122710356Y-92442140D01*
X122331092Y-92201600D01*
X122059035Y-92023538D01*
X121780614Y-91847107D01*
X121580570Y-91727155D01*
X121490064Y-91682900D01*
X121480093Y-91684275D01*
X121372075Y-91776336D01*
X121217437Y-91992593D01*
X121033008Y-92304836D01*
X120835615Y-92684856D01*
X120642085Y-93104443D01*
X120525244Y-93390590D01*
X120379281Y-93780404D01*
X120232115Y-94200596D01*
X120096117Y-94613455D01*
X119983659Y-94981270D01*
X119907111Y-95266331D01*
X119878846Y-95430927D01*
X119713701Y-95430927D01*
X119746998Y-95321256D01*
X119762455Y-95247996D01*
X119899921Y-94716570D01*
X120087674Y-94130526D01*
X120310676Y-93526398D01*
X120553885Y-92940720D01*
X120802263Y-92410025D01*
X121040768Y-91970848D01*
X121254360Y-91659723D01*
X121450418Y-91424879D01*
X122130017Y-91877442D01*
X122666369Y-92219097D01*
X123501271Y-92676138D01*
X124298938Y-93006859D01*
X125092743Y-93221751D01*
X125617431Y-93291567D01*
X125916059Y-93331303D01*
G37*
M02*
