M48
; DRILL file {KiCad 9.0.7} date 2026-04-24T14:05:42+0200
; FORMAT={-:-/ absolute / metric / decimal}
; #@! TF.CreationDate,2026-04-24T14:05:42+02:00
; #@! TF.GenerationSoftware,Kicad,Pcbnew,9.0.7
; #@! TF.FileFunction,Plated,1,4,PTH
FMAT,2
METRIC
; #@! TA.AperFunction,Plated,PTH,ViaDrill
T1C0.400
%
G90
G05
T1
X112.22Y-95.06
X112.22Y-96.92
X112.48Y-75.73
X112.48Y-79.06
X115.09Y-101.32
X117.17Y-95.14
X117.17Y-96.89
X117.46Y-78.49
X117.46Y-81.96
X120.25Y-101.32
X120.69Y-80.2
X120.69Y-83.91
X122.81Y-85.46
X123.911Y-87.315
X123.98Y-85.965
X124.24Y-91.435
X125.147Y-88.918
X125.3Y-101.29
X125.336Y-91.935
X125.47Y-86.27
X125.96Y-88.335
X126.23Y-92.485
X126.38Y-80.625
X126.6Y-83.67
X126.652Y-82.316
X126.68Y-95.255
X126.69Y-78.43
X127.075Y-81.409
X127.358Y-79.781
X127.664Y-78.805
X127.8Y-101.3
X127.923Y-93.685
X128.0Y-90.69
X128.167Y-95.213
X128.91Y-74.35
X129.208Y-95.202
X129.21Y-93.685
X129.36Y-99.13
X129.54Y-91.79
X129.631Y-89.109
X130.13Y-90.13
X130.448Y-99.158
X131.14Y-93.87
X132.182Y-84.155
X132.71Y-93.87
X132.83Y-101.16
X132.86Y-90.7
X133.16Y-96.01
X133.364Y-82.152
X134.586Y-85.715
X134.61Y-83.8
X134.624Y-101.151
X134.76Y-95.48
X135.01Y-82.877
X135.7Y-98.9
X135.94Y-84.555
X137.01Y-100.21
X137.17Y-86.86
X137.71Y-74.34
X137.76Y-77.59
X138.27Y-101.5
X139.062Y-91.778
X139.58Y-85.92
X140.11Y-95.38
X140.134Y-90.729
X140.45Y-101.09
X141.14Y-85.85
X141.33Y-96.76
X141.49Y-81.925
X141.56Y-74.33
X141.584Y-93.14
X141.63Y-77.61
X141.901Y-101.07
X142.435Y-90.29
X142.675Y-101.732
X142.79Y-98.12
X143.0Y-94.43
X144.05Y-93.05
X144.11Y-95.48
X145.573Y-81.226
X145.723Y-101.637
X146.02Y-74.33
X146.03Y-90.75
X146.11Y-77.59
X146.18Y-100.09
X146.26Y-84.692
X146.306Y-82.756
X146.31Y-97.34
X146.874Y-85.481
X147.01Y-90.82
X147.192Y-80.775
X147.248Y-82.42
X147.302Y-84.025
X148.19Y-91.515
X148.258Y-96.001
X148.28Y-80.325
X148.291Y-97.0
X149.01Y-79.6
X149.088Y-97.604
X149.32Y-100.29
X149.34Y-101.73
X149.88Y-92.83
X151.215Y-89.647
X151.95Y-90.325
X151.99Y-101.22
X153.01Y-93.05
X153.07Y-78.77
X153.69Y-85.49
X153.73Y-74.36
X153.77Y-95.11
X154.79Y-93.08
X154.848Y-88.294
X155.53Y-98.02
X156.3Y-99.56
X157.575Y-95.88
X159.128Y-88.055
X159.19Y-89.25
X159.338Y-97.622
X159.47Y-101.32
X159.49Y-99.44
X159.68Y-80.25
X159.97Y-92.09
X160.73Y-78.43
X161.337Y-93.427
X162.05Y-101.27
X162.16Y-93.995
X162.416Y-97.134
X162.47Y-88.75
X162.835Y-83.645
X162.88Y-94.76
X162.928Y-86.667
X163.24Y-78.46
X163.31Y-98.78
X163.37Y-91.62
X163.928Y-90.236
X164.64Y-98.15
X164.723Y-84.902
X165.42Y-80.27
X165.64Y-85.3
X165.77Y-78.43
X167.1Y-100.45
X168.07Y-90.96
X168.12Y-94.97
X169.44Y-101.5
X169.45Y-89.27
X169.6Y-92.43
X170.65Y-87.41
X171.0Y-94.08
X173.47Y-99.0
X174.12Y-81.7
X174.12Y-84.85
X174.16Y-94.08
X174.18Y-92.48
M30
